<svg xmlns="http://www.w3.org/2000/svg" width="371.27" height="232.01" viewBox="0 0 371.27 232.01">
  <g id="Group_82" data-name="Group 82" transform="translate(0 0.01)">
    <path id="Path_885_1_" d="M197.18,22.75V13.02a3.686,3.686,0,0,0-.56-1.96l-5.77-9.3A3.657,3.657,0,0,0,187.71,0h-7.93a3.7,3.7,0,0,0-3.16,1.76l-5.77,9.3a3.686,3.686,0,0,0-.56,1.96v9.73a2.706,2.706,0,0,0-2.71,2.71h0V37.11a2.706,2.706,0,0,0,2.71,2.71h1.82V44.6L7.44,87.06A9.919,9.919,0,0,0,0,96.67V213.03a9.912,9.912,0,0,0,9.93,9.91,10.318,10.318,0,0,0,2.47-.31l159.71-41.18v50.54h23.1V44.33c.01-.02.04-.04.05-.06l-.03-4.44h1.95a2.706,2.706,0,0,0,2.71-2.71V25.46a2.7,2.7,0,0,0-2.69-2.71Z" fill="#ef476f"/>
    <path id="Path_887" data-name="Path 887" d="M363.74,88.21,196.89,45.19V40.35h1.84a2.748,2.748,0,0,0,2.75-2.75V25.79a2.748,2.748,0,0,0-2.75-2.75V13.18a3.8,3.8,0,0,0-.57-1.99l-5.84-9.42a3.766,3.766,0,0,0-3.2-1.78h-4.89V232h12.66V183.83l161.82,41.72a10.045,10.045,0,0,0,12.56-9.73V97.94A10.034,10.034,0,0,0,363.74,88.21Z" fill="#ffd166"/>
    <g id="Group_70" data-name="Group 70">
      <g id="Group_69" data-name="Group 69">
        <g id="Group_68" data-name="Group 68">
          <path id="Path_888" data-name="Path 888" d="M71.56,113.68h0L50.13,141.15v40.2l42.85-10.7v-40.7Z" fill="none" stroke="#fff" stroke-linecap="round" stroke-linejoin="round" stroke-miterlimit="10" stroke-width="2.013"/>
          <path id="Path_889" data-name="Path 889" d="M71.56,105.23l29.71,22.56,48.43-12.66V84.1Z" fill="none" stroke="#fff" stroke-linecap="round" stroke-linejoin="round" stroke-miterlimit="10" stroke-width="2.013"/>
          <path id="Path_890" data-name="Path 890" d="M101.27,127.79l-4.02,5.43-4.06-3.11V170.6l56.51-14.11V115.13Z" fill="none" stroke="#fff" stroke-linecap="round" stroke-linejoin="round" stroke-miterlimit="10" stroke-width="2.013"/>
          <path id="Path_891" data-name="Path 891" d="M63.39,106.54l-8.17,2.21v17.5l8.17-10.49Z" fill="none" stroke="#fff" stroke-linecap="round" stroke-linejoin="round" stroke-miterlimit="10" stroke-width="2.013"/>
          <path id="Path_892" data-name="Path 892" d="M71.56,105.23l-8.17,10.53-8.17,10.49L41.85,143.33l4.02,3.26,4.26-5.44,21.43-27.47h0l21.42,16.27.02.01.19.15,4.06,3.11,4.02-5.43Z" fill="none" stroke="#fff" stroke-linecap="round" stroke-linejoin="round" stroke-miterlimit="10" stroke-width="2.013"/>
          <g id="Group_65" data-name="Group 65">
            <path id="Path_893" data-name="Path 893" d="M80.34,164.12l-17.57,4.44V147.5l17.57-4.55Z" fill="none" stroke="#fff" stroke-linecap="round" stroke-linejoin="round" stroke-miterlimit="10" stroke-width="2.013"/>
            <line id="Line_20" data-name="Line 20" y1="4.43" x2="17.3" transform="translate(62.91 150.86)" fill="none" stroke="#fff" stroke-linecap="round" stroke-linejoin="round" stroke-miterlimit="10" stroke-width="2.013"/>
            <line id="Line_21" data-name="Line 21" y2="13.26" transform="translate(71.56 153.08)" fill="none" stroke="#fff" stroke-linecap="round" stroke-linejoin="round" stroke-miterlimit="10" stroke-width="2.013"/>
          </g>
          <g id="Group_66" data-name="Group 66">
            <path id="Path_894" data-name="Path 894" d="M115.85,155.16l-17.57,4.43V138.31l17.57-4.55Z" fill="none" stroke="#fff" stroke-linecap="round" stroke-linejoin="round" stroke-miterlimit="10" stroke-width="2.013"/>
            <line id="Line_22" data-name="Line 22" y1="4.44" x2="17.3" transform="translate(98.42 141.75)" fill="none" stroke="#fff" stroke-linecap="round" stroke-linejoin="round" stroke-miterlimit="10" stroke-width="2.013"/>
            <line id="Line_23" data-name="Line 23" y2="13.4" transform="translate(107.07 143.97)" fill="none" stroke="#fff" stroke-linecap="round" stroke-linejoin="round" stroke-miterlimit="10" stroke-width="2.013"/>
          </g>
          <g id="Group_67" data-name="Group 67">
            <path id="Path_895" data-name="Path 895" d="M141.53,148.67l-17.57,4.44V131.66l17.57-4.54Z" fill="none" stroke="#fff" stroke-linecap="round" stroke-linejoin="round" stroke-miterlimit="10" stroke-width="2.013"/>
            <line id="Line_24" data-name="Line 24" y1="4.43" x2="17.3" transform="translate(124.1 135.17)" fill="none" stroke="#fff" stroke-linecap="round" stroke-linejoin="round" stroke-miterlimit="10" stroke-width="2.013"/>
            <line id="Line_25" data-name="Line 25" y2="13.51" transform="translate(132.75 137.38)" fill="none" stroke="#fff" stroke-linecap="round" stroke-linejoin="round" stroke-miterlimit="10" stroke-width="2.013"/>
          </g>
          <path id="Path_896" data-name="Path 896" d="M75.33,124.53a5.448,5.448,0,0,1-3.77,5.06,2.917,2.917,0,0,1-3.77-3.07,5.458,5.458,0,0,1,3.77-5.06A2.914,2.914,0,0,1,75.33,124.53Z" fill="none" stroke="#fff" stroke-linecap="round" stroke-linejoin="round" stroke-miterlimit="10" stroke-width="2.013"/>
          <path id="Path_897" data-name="Path 897" d="M71.56,113.68Z" fill="none" stroke="#fff" stroke-miterlimit="10" stroke-width="2.013"/>
        </g>
        <path id="Path_898" data-name="Path 898" d="M153.24,163.66,46.6,190.04v-7.81L153.24,155.6Z" fill="none" stroke="#fff" stroke-linecap="round" stroke-linejoin="round" stroke-miterlimit="10" stroke-width="2.013"/>
      </g>
    </g>
    <g id="Group_81" data-name="Group 81">
      <g id="Group_80" data-name="Group 80">
        <g id="Group_71" data-name="Group 71">
          <path id="Path_899" data-name="Path 899" d="M253.74,96.26l-9.57-1.84v12.61l9.57-5.06Z" fill="none" stroke="#fff" stroke-linecap="round" stroke-linejoin="round" stroke-miterlimit="10" stroke-width="2.087"/>
          <path id="Path_900" data-name="Path 900" d="M274.23,90.84l-20.49,11.13-9.57,5.06-12.97,6.72,3.63,7.1,39.4-20.66,39.39,37.25,3.63-5.93Z" fill="none" stroke="#fff" stroke-linecap="round" stroke-linejoin="round" stroke-miterlimit="10" stroke-width="2.087"/>
        </g>
        <path id="Path_901" data-name="Path 901" d="M313.62,183.11l-78.79-18.88V120.85l39.4-20.66,39.39,37.25Z" fill="none" stroke="#fff" stroke-linecap="round" stroke-linejoin="round" stroke-miterlimit="10" stroke-width="2.087"/>
        <g id="Group_74" data-name="Group 74">
          <g id="Group_72" data-name="Group 72">
            <path id="Path_902" data-name="Path 902" d="M234.83,148.37s-7.73-1.13-9.22,5.34c0,0-7.73-1.82-7.73,6.46l16.96,4.06V148.37Z" fill="none" stroke="#fff" stroke-linecap="round" stroke-linejoin="round" stroke-miterlimit="10" stroke-width="2.087"/>
            <path id="Path_903" data-name="Path 903" d="M222.13,144.72a12.461,12.461,0,0,1-5.45-9.95c0-5.22,3.99-8.58,8.92-7.52a10.094,10.094,0,0,1,3.41,1.46" fill="none" stroke="#fff" stroke-linecap="round" stroke-linejoin="round" stroke-miterlimit="10" stroke-width="2.087"/>
            <line id="Line_26" data-name="Line 26" y2="16.96" transform="translate(225.61 136.75)" fill="none" stroke="#fff" stroke-linecap="round" stroke-linejoin="round" stroke-miterlimit="10" stroke-width="2.087"/>
          </g>
          <g id="Group_73" data-name="Group 73">
            <path id="Path_904" data-name="Path 904" d="M313.62,166.41s7.73,2.45,9.22,10.05a10.6,10.6,0,0,1,7.73,10.71l-16.96-4.06v-16.7Z" fill="none" stroke="#fff" stroke-linecap="round" stroke-linejoin="round" stroke-miterlimit="10" stroke-width="2.087"/>
            <path id="Path_905" data-name="Path 905" d="M322.85,168.52c4.93,1.13,8.92-2.52,8.92-8.14a13.246,13.246,0,0,0-5.45-10.56" fill="none" stroke="#fff" stroke-linecap="round" stroke-linejoin="round" stroke-miterlimit="10" stroke-width="2.087"/>
            <line id="Line_27" data-name="Line 27" y2="18.06" transform="translate(322.85 158.4)" fill="none" stroke="#fff" stroke-linecap="round" stroke-linejoin="round" stroke-miterlimit="10" stroke-width="2.087"/>
          </g>
        </g>
        <g id="Group_75" data-name="Group 75">
          <path id="Path_906" data-name="Path 906" d="M274.23,107.13c-2.56-.5-4.64,1.37-4.64,4.18v6.02l4.64.94Z" fill="none" stroke="#fff" stroke-linecap="round" stroke-linejoin="round" stroke-miterlimit="10" stroke-width="2.087"/>
          <path id="Path_907" data-name="Path 907" d="M278.87,119.22v-6.06a6.237,6.237,0,0,0-4.64-6.03v11.15Z" fill="none" stroke="#fff" stroke-linecap="round" stroke-linejoin="round" stroke-miterlimit="10" stroke-width="2.087"/>
          <path id="Path_908" data-name="Path 908" d="M278.87,119.22l-4.64-.94-4.65-.95-6.88-1.4v8.19l23.05,4.82v-8.31Z" fill="none" stroke="#fff" stroke-linecap="round" stroke-linejoin="round" stroke-miterlimit="10" stroke-width="2.087"/>
        </g>
        <g id="Group_79" data-name="Group 79">
          <g id="Group_77" data-name="Group 77">
            <path id="Path_909" data-name="Path 909" d="M309.11,181.99l-23.88-5.72V151.31l23.88,5.34Z" fill="none" stroke="#fff" stroke-linecap="round" stroke-linejoin="round" stroke-miterlimit="10" stroke-width="2.087"/>
            <g id="Group_76" data-name="Group 76">
              <line id="Line_28" data-name="Line 28" x2="23.88" y2="5.46" transform="translate(285.23 159.24)" fill="none" stroke="#fff" stroke-linecap="round" stroke-linejoin="round" stroke-miterlimit="10" stroke-width="2.087"/>
              <line id="Line_29" data-name="Line 29" x2="23.88" y2="5.6" transform="translate(285.23 168.34)" fill="none" stroke="#fff" stroke-linecap="round" stroke-linejoin="round" stroke-miterlimit="10" stroke-width="2.087"/>
            </g>
          </g>
          <path id="Path_910" data-name="Path 910" d="M263.89,146.54v18.85l11.53,2.72v5.81l.04.01v-24.8Z" fill="none" stroke="#fff" stroke-linecap="round" stroke-linejoin="round" stroke-miterlimit="10" stroke-width="2.087"/>
          <path id="Path_911" data-name="Path 911" d="M263.89,165.39l-6.99-1.65v5.75l6.99,1.67,11.53,2.76v-5.81Z" fill="none" stroke="#fff" stroke-linecap="round" stroke-linejoin="round" stroke-miterlimit="10" stroke-width="2.087"/>
          <g id="Group_78" data-name="Group 78">
            <path id="Path_912" data-name="Path 912" d="M257.79,160.37l-18.44-4.3V141.06l18.44,4.12Z" fill="none" stroke="#fff" stroke-linecap="round" stroke-linejoin="round" stroke-miterlimit="10" stroke-width="2.087"/>
            <line id="Line_30" data-name="Line 30" x1="18.44" y1="4.21" transform="translate(239.35 148.37)" fill="none" stroke="#fff" stroke-linecap="round" stroke-linejoin="round" stroke-miterlimit="10" stroke-width="2.087"/>
            <line id="Line_31" data-name="Line 31" y2="7.33" transform="translate(245 150.05)" fill="none" stroke="#fff" stroke-linecap="round" stroke-linejoin="round" stroke-miterlimit="10" stroke-width="2.087"/>
          </g>
        </g>
        <path id="Path_913" data-name="Path 913" d="M225.61,169.19l-12.25-2.99v-7.11L335.1,188.25v7.7l-90.93-22.22" fill="none" stroke="#fff" stroke-linecap="round" stroke-linejoin="round" stroke-miterlimit="10" stroke-width="2.087"/>
      </g>
    </g>
  </g>
</svg>
