<svg xmlns="http://www.w3.org/2000/svg" width="32.481" height="33.346" viewBox="0 0 32.481 33.346">
  <g id="Group_61" data-name="Group 61" transform="translate(1 0.566)">
    <path id="Path_858" data-name="Path 858" d="M3.648,27.917A2.79,2.79,0,0,1,1,25.269V19.31A3.207,3.207,0,0,1,4.31,16H18.875s-.7,3.31-3.31,3.31h-5.3V37.186" transform="translate(-1 -5.407)" fill="none" stroke="#fff" stroke-linecap="round" stroke-linejoin="round" stroke-miterlimit="10" stroke-width="2"/>
    <path id="Path_859" data-name="Path 859" d="M8.648,9.621A2.537,2.537,0,0,0,11.3,6.972V5.648A2.537,2.537,0,0,0,8.648,3,2.537,2.537,0,0,0,6,5.648V6.972A2.537,2.537,0,0,0,8.648,9.621Z" transform="translate(-2.69 -1.014)" fill="none" stroke="#fff" stroke-linecap="round" stroke-linejoin="round" stroke-miterlimit="10" stroke-width="2"/>
    <line id="Line_11" data-name="Line 11" y2="16" transform="translate(2.379 15.433)" fill="none" stroke="#fff" stroke-linecap="round" stroke-linejoin="round" stroke-miterlimit="10" stroke-width="2"/>
    <line id="Line_12" data-name="Line 12" y2="10" transform="translate(6.379 21.433)" fill="none" stroke="#fff" stroke-linecap="round" stroke-linejoin="round" stroke-miterlimit="10" stroke-width="2"/>
    <path id="Path_860" data-name="Path 860" d="M35,5.741v5.3a8.259,8.259,0,0,1,7.965,1.324l-2.046-3.31,2.052-1.986A8.268,8.268,0,0,0,35,5.741Z" transform="translate(-12.49 -1.769)" fill="none" stroke="#fff" stroke-linecap="round" stroke-linejoin="round" stroke-miterlimit="10" stroke-width="2"/>
    <path id="Path_861" data-name="Path 861" d="M24,2.659v5.3a10.26,10.26,0,0,1,7.283,0v-5.3A10.26,10.26,0,0,0,24,2.659Z" transform="translate(-8.773 -0.673)" fill="none" stroke="#fff" stroke-linecap="round" stroke-linejoin="round" stroke-miterlimit="10" stroke-width="2"/>
    <line id="Line_13" data-name="Line 13" y2="10" transform="translate(15.379 0.433)" fill="none" stroke="#fff" stroke-linecap="round" stroke-linejoin="round" stroke-miterlimit="10" stroke-width="2"/>
    <line id="Line_14" data-name="Line 14" y2="18" transform="translate(15.379 13.433)" fill="none" stroke="#fff" stroke-linecap="round" stroke-linejoin="round" stroke-miterlimit="10" stroke-width="2"/>
  </g>
</svg>
