<svg xmlns="http://www.w3.org/2000/svg" width="31.13" height="31.131" viewBox="0 0 31.13 31.131">
  <g id="Group_63" data-name="Group 63" transform="translate(1 1)">
    <path id="Path_867" data-name="Path 867" d="M34.01,36.313a12.853,12.853,0,0,0,6.614-9.183" transform="translate(-12.156 -9.83)" fill="none" stroke="#fff" stroke-linecap="round" stroke-miterlimit="10" stroke-width="2"/>
    <path id="Path_868" data-name="Path 868" d="M8.624,36.313A12.853,12.853,0,0,1,2.01,27.13" transform="translate(-1.341 -9.83)" fill="none" stroke="#fff" stroke-linecap="round" stroke-miterlimit="10" stroke-width="2"/>
    <path id="Path_869" data-name="Path 869" d="M26.043,2.543a13.3,13.3,0,0,0-12.433,0" transform="translate(-5.261 -1)" fill="none" stroke="#fff" stroke-linecap="round" stroke-miterlimit="10" stroke-width="2"/>
    <path id="Path_870" data-name="Path 870" d="M35.634,15C33.549,15,31,16.4,31,17.357v2.278a7.586,7.586,0,0,0,4.634,1.324,7.586,7.586,0,0,0,4.634-1.324V17.357C40.269,16.4,37.72,15,35.634,15Z" transform="translate(-11.138 -5.731)" fill="none" stroke="#fff" stroke-linecap="round" stroke-miterlimit="10" stroke-width="2"/>
    <path id="Path_871" data-name="Path 871" d="M36.648,5A2.586,2.586,0,0,0,34,7.383V9.237a2.663,2.663,0,0,0,5.3,0V7.383A2.586,2.586,0,0,0,36.648,5Z" transform="translate(-12.152 -2.352)" fill="none" stroke="#fff" stroke-linecap="round" stroke-miterlimit="10" stroke-width="2"/>
    <path id="Path_872" data-name="Path 872" d="M20.634,36C18.549,36,16,37.4,16,38.357v2.278a7.138,7.138,0,0,0,4.634,1.324,7.138,7.138,0,0,0,4.634-1.324V38.357C25.269,37.4,22.72,36,20.634,36Z" transform="translate(-6.069 -12.828)" fill="none" stroke="#fff" stroke-linecap="round" stroke-miterlimit="10" stroke-width="2"/>
    <path id="Path_873" data-name="Path 873" d="M21.648,26A2.586,2.586,0,0,0,19,28.383v1.854a2.663,2.663,0,0,0,5.3,0V28.383A2.586,2.586,0,0,0,21.648,26Z" transform="translate(-7.083 -9.448)" fill="none" stroke="#fff" stroke-linecap="round" stroke-miterlimit="10" stroke-width="2"/>
    <path id="Path_874" data-name="Path 874" d="M5.634,15C3.549,15,1,16.4,1,17.357v2.278a7.586,7.586,0,0,0,4.634,1.324,7.586,7.586,0,0,0,4.634-1.324V17.357C10.269,16.4,7.72,15,5.634,15Z" transform="translate(-1 -5.731)" fill="none" stroke="#fff" stroke-linecap="round" stroke-miterlimit="10" stroke-width="2"/>
    <path id="Path_875" data-name="Path 875" d="M6.648,5A2.586,2.586,0,0,0,4,7.383V9.237a2.586,2.586,0,0,0,2.648,2.383A2.586,2.586,0,0,0,9.3,9.237V7.383A2.586,2.586,0,0,0,6.648,5Z" transform="translate(-2.014 -2.352)" fill="none" stroke="#fff" stroke-linecap="round" stroke-miterlimit="10" stroke-width="2"/>
  </g>
</svg>
