<svg xmlns="http://www.w3.org/2000/svg" width="87.92" height="87.92" viewBox="0 0 87.92 87.92">
  <g id="Group_95" data-name="Group 95" transform="translate(0 -3.152)">
    <circle id="Ellipse_29" data-name="Ellipse 29" cx="42.46" cy="42.46" r="42.46" transform="translate(1.5 4.652)" stroke-width="3" stroke="#fff" stroke-linecap="round" stroke-linejoin="round" stroke-miterlimit="10" fill="none"/>
    <g id="Group_85" data-name="Group 85" transform="translate(12.728 16.263)">
      <g id="Group_84" data-name="Group 84" transform="translate(0)">
        <g id="Group_83" data-name="Group 83" transform="translate(9.262 9.268)">
          <circle id="Ellipse_32" data-name="Ellipse 32" cx="21.431" cy="21.431" r="21.431" stroke-width="3" stroke="#fff" stroke-linecap="round" stroke-linejoin="round" stroke-miterlimit="10" fill="none"/>
          <path id="Path_917" data-name="Path 917" d="M73.232,48.308s-1.147,6.2-3.793,7.218-3.954-.969-4.884-1.22S59.676,50.775,59.676,53,61.5,57.252,61.5,59.8s-2.322,3.782-1.058,5.046,4.572-.273,4.572,2.15-4.934,3.587-7.986,3.587-2.64,2.289-4.015,2.289-3.007-.362-4.327.963-5.692-.4-3.86-3.046,6.2-4.884,6.2-6.817.64-6.132,3.575-7.641S56.151,46.32,56.151,46.32" transform="translate(-40.991 -45.39)" fill="none" stroke="#fff" stroke-linecap="round" stroke-linejoin="round" stroke-miterlimit="10" stroke-width="3"/>
          <path id="Path_918" data-name="Path 918" d="M95.364,96.45S91.2,92.529,90.658,90.5s-4.884-3.252-7.223.1S84.9,94.54,84.9,97.959s-4.478,2.684-4.478,4.472-.345,3.247-3.291,4.506" transform="translate(-55.499 -64.081)" fill="none" stroke="#fff" stroke-linecap="round" stroke-linejoin="round" stroke-miterlimit="10" stroke-width="3"/>
          <path id="Path_919" data-name="Path 919" d="M106.781,69.291s-6.377-.446-7.19,1.793.59,2.612,2.317,3.074,2.6-.089,3.124,1.855,2.98,3.821,2.98,3.821" transform="translate(-65.346 -55.552)" fill="none" stroke="#fff" stroke-linecap="round" stroke-linejoin="round" stroke-miterlimit="10" stroke-width="3"/>
        </g>
        <path id="Path_920" data-name="Path 920" d="M79.341,44.066A30.691,30.691,0,1,1,66.5,31.451" transform="translate(-21.66 -28.009)" fill="none" stroke="#fff" stroke-linecap="round" stroke-linejoin="round" stroke-miterlimit="10" stroke-width="3"/>
      </g>
      <circle id="Ellipse_33" data-name="Ellipse 33" cx="5.101" cy="5.101" r="5.101" transform="translate(47.294 3.894)" stroke-width="3" stroke="#fff" stroke-linecap="round" stroke-linejoin="round" stroke-miterlimit="10" fill="none"/>
    </g>
  </g>
</svg>
