<?xml version="1.0" encoding="UTF-8" standalone="no" ?>
<svg xmlns:dc="http://purl.org/dc/elements/1.1/" xmlns:cc="http://creativecommons.org/ns#" xmlns:rdf="http://www.w3.org/1999/02/22-rdf-syntax-ns#" xmlns:svg="http://www.w3.org/2000/svg" xmlns="http://www.w3.org/2000/svg" xmlns:sodipodi="http://sodipodi.sourceforge.net/DTD/sodipodi-0.dtd" xmlns:inkscape="http://www.inkscape.org/namespaces/inkscape" width="199.89001" height="231.99002" viewBox="0 0 199.89002 231.99003" version="1.1" id="svg4" sodipodi:docname="map-right-flag.svg" inkscape:version="0.92.4 (5da689c313, 2019-01-14)">
   <g id="Group_82" data-name="Group 82" transform="matrix(-1,0,0,1,199.89002,2.4840187e-5)">
      <path id="Path_885_1_" d="m 197.18,22.75 v -9.73 a 3.686,3.686 0 0 0 -0.56,-1.96 l -5.77,-9.3 A 3.657,3.657 0 0 0 187.71,0 h -7.93 a 3.7,3.7 0 0 0 -3.16,1.76 l -5.77,9.3 a 3.686,3.686 0 0 0 -0.56,1.96 v 9.73 a 2.706,2.706 0 0 0 -2.71,2.71 v 0 11.65 a 2.706,2.706 0 0 0 2.71,2.71 h 1.82 V 44.6 L 7.44,87.06 A 9.919,9.919 0 0 0 0,96.67 v 116.36 a 9.912,9.912 0 0 0 9.93,9.91 10.318,10.318 0 0 0 2.47,-0.31 l 159.71,-41.18 v 50.54 h 23.1 V 44.33 c 0.01,-0.02 0.04,-0.04 0.05,-0.06 l -0.03,-4.44 h 1.95 a 2.706,2.706 0 0 0 2.71,-2.71 V 25.46 a 2.7,2.7 0 0 0 -2.69,-2.71 z" inkscape:connector-curvature="0" style="fill:#ffd166" />
   </g>
</svg>