<svg id="Group_88" data-name="Group 88" xmlns="http://www.w3.org/2000/svg" width="267" height="266.917" viewBox="0 0 267 266.917">
  <path id="Path_914" data-name="Path 914" d="M94.544,285.935A112.2,112.2,0,0,1,36.673,167.12" transform="translate(-14.812 -73.382)" fill="none" stroke="#fff" stroke-linecap="round" stroke-linejoin="round" stroke-miterlimit="10" stroke-width="3"/>
  <path id="Path_915" data-name="Path 915" d="M389.291,172.1A112.229,112.229,0,0,1,331.95,287.607" transform="translate(-146.413 -75.588)" fill="none" stroke="#fff" stroke-linecap="round" stroke-linejoin="round" stroke-miterlimit="10" stroke-width="3"/>
  <path id="Path_916" data-name="Path 916" d="M149.67,12.332a112.294,112.294,0,0,1,97.006.368" transform="translate(-65.65)" fill="none" stroke="#fff" stroke-linecap="round" stroke-linejoin="round" stroke-miterlimit="10" stroke-width="3"/>
  <circle id="Ellipse_29" data-name="Ellipse 29" cx="42.46" cy="42.46" r="42.46" transform="translate(1.5 4.652)" stroke-width="3" stroke="#fff" stroke-linecap="round" stroke-linejoin="round" stroke-miterlimit="10" fill="none"/>
  <circle id="Ellipse_30" data-name="Ellipse 30" cx="42.46" cy="42.46" r="42.46" transform="translate(180.58 4.652)" stroke-width="3" stroke="#fff" stroke-linecap="round" stroke-linejoin="round" stroke-miterlimit="10" fill="none"/>
  <circle id="Ellipse_31" data-name="Ellipse 31" cx="42.46" cy="42.46" r="42.46" transform="translate(89.133 180.496)" stroke-width="3" stroke="#fff" stroke-linecap="round" stroke-linejoin="round" stroke-miterlimit="10" fill="none"/>
  <g id="Group_85" data-name="Group 85" transform="translate(12.728 16.263)">
    <g id="Group_84" data-name="Group 84" transform="translate(0)">
      <g id="Group_83" data-name="Group 83" transform="translate(9.262 9.268)">
        <circle id="Ellipse_32" data-name="Ellipse 32" cx="21.431" cy="21.431" r="21.431" stroke-width="3" stroke="#fff" stroke-linecap="round" stroke-linejoin="round" stroke-miterlimit="10" fill="none"/>
        <path id="Path_917" data-name="Path 917" d="M73.232,48.308s-1.147,6.2-3.793,7.218-3.954-.969-4.884-1.22S59.676,50.775,59.676,53,61.5,57.252,61.5,59.8s-2.322,3.782-1.058,5.046,4.572-.273,4.572,2.15-4.934,3.587-7.986,3.587-2.64,2.289-4.015,2.289-3.007-.362-4.327.963-5.692-.4-3.86-3.046,6.2-4.884,6.2-6.817.64-6.132,3.575-7.641S56.151,46.32,56.151,46.32" transform="translate(-40.991 -45.39)" fill="none" stroke="#fff" stroke-linecap="round" stroke-linejoin="round" stroke-miterlimit="10" stroke-width="3"/>
        <path id="Path_918" data-name="Path 918" d="M95.364,96.45S91.2,92.529,90.658,90.5s-4.884-3.252-7.223.1S84.9,94.54,84.9,97.959s-4.478,2.684-4.478,4.472-.345,3.247-3.291,4.506" transform="translate(-55.499 -64.081)" fill="none" stroke="#fff" stroke-linecap="round" stroke-linejoin="round" stroke-miterlimit="10" stroke-width="3"/>
        <path id="Path_919" data-name="Path 919" d="M106.781,69.291s-6.377-.446-7.19,1.793.59,2.612,2.317,3.074,2.6-.089,3.124,1.855,2.98,3.821,2.98,3.821" transform="translate(-65.346 -55.552)" fill="none" stroke="#fff" stroke-linecap="round" stroke-linejoin="round" stroke-miterlimit="10" stroke-width="3"/>
      </g>
      <path id="Path_920" data-name="Path 920" d="M79.341,44.066A30.691,30.691,0,1,1,66.5,31.451" transform="translate(-21.66 -28.009)" fill="none" stroke="#fff" stroke-linecap="round" stroke-linejoin="round" stroke-miterlimit="10" stroke-width="3"/>
    </g>
    <circle id="Ellipse_33" data-name="Ellipse 33" cx="5.101" cy="5.101" r="5.101" transform="translate(47.294 3.894)" stroke-width="3" stroke="#fff" stroke-linecap="round" stroke-linejoin="round" stroke-miterlimit="10" fill="none"/>
  </g>
  <g id="Group_86" data-name="Group 86" transform="translate(194.854 17.824)">
    <path id="Path_921" data-name="Path 921" d="M396.691,81.538a5.174,5.174,0,0,0,4.907-4.907V65.587c0-4.054-6.783-6.137-11.044-6.137s-11.044,2.083-11.044,6.137V76.631a5.17,5.17,0,0,0,4.907,4.907" transform="translate(-362.34 -43.5)" fill="none" stroke="#fff" stroke-linecap="round" stroke-linejoin="round" stroke-miterlimit="10" stroke-width="3"/>
    <path id="Path_922" data-name="Path 922" d="M395.447,43.079a4.7,4.7,0,0,0,4.906-4.907V35.717a4.907,4.907,0,1,0-9.813,0v2.456A4.7,4.7,0,0,0,395.447,43.079Z" transform="translate(-367.227 -30.81)" fill="none" stroke="#fff" stroke-linecap="round" stroke-linejoin="round" stroke-miterlimit="10" stroke-width="3"/>
    <line id="Line_32" data-name="Line 32" y1="31.901" transform="translate(34.351 24.538)" fill="none" stroke="#fff" stroke-linecap="round" stroke-linejoin="round" stroke-miterlimit="10" stroke-width="3"/>
    <line id="Line_33" data-name="Line 33" y2="31.901" transform="translate(22.082 24.538)" fill="none" stroke="#fff" stroke-linecap="round" stroke-linejoin="round" stroke-miterlimit="10" stroke-width="3"/>
    <line id="Line_34" data-name="Line 34" y2="19.632" transform="translate(28.22 36.807)" fill="none" stroke="#fff" stroke-linecap="round" stroke-linejoin="round" stroke-miterlimit="10" stroke-width="3"/>
    <line id="Line_35" data-name="Line 35" x1="12.269" transform="translate(0 28.22)" fill="none" stroke="#fff" stroke-linecap="round" stroke-linejoin="round" stroke-miterlimit="10" stroke-width="3"/>
    <path id="Path_923" data-name="Path 923" d="M361.89,72.67l4.912,4.907-4.912,4.912" transform="translate(-354.533 -49.357)" fill="none" stroke="#fff" stroke-linecap="round" stroke-linejoin="round" stroke-miterlimit="10" stroke-width="3"/>
    <line id="Line_36" data-name="Line 36" x2="8.588" y2="8.588" transform="translate(4.907 8.588)" fill="none" stroke="#fff" stroke-linecap="round" stroke-linejoin="round" stroke-miterlimit="10" stroke-width="3"/>
    <path id="Path_924" data-name="Path 924" d="M368.027,50.64v6.132H361.89" transform="translate(-354.533 -39.596)" fill="none" stroke="#fff" stroke-linecap="round" stroke-linejoin="round" stroke-miterlimit="10" stroke-width="3"/>
    <line id="Line_37" data-name="Line 37" y1="8.588" x2="8.588" transform="translate(4.907 39.263)" fill="none" stroke="#fff" stroke-linecap="round" stroke-linejoin="round" stroke-miterlimit="10" stroke-width="3"/>
    <path id="Path_925" data-name="Path 925" d="M368.027,107.447V101.31H361.89" transform="translate(-354.533 -62.047)" fill="none" stroke="#fff" stroke-linecap="round" stroke-linejoin="round" stroke-miterlimit="10" stroke-width="3"/>
    <line id="Line_38" data-name="Line 38" x2="12.269" transform="translate(44.17 28.22)" fill="none" stroke="#fff" stroke-linecap="round" stroke-linejoin="round" stroke-miterlimit="10" stroke-width="3"/>
    <path id="Path_926" data-name="Path 926" d="M432.9,72.67l-4.907,4.907,4.907,4.912" transform="translate(-383.82 -49.357)" fill="none" stroke="#fff" stroke-linecap="round" stroke-linejoin="round" stroke-miterlimit="10" stroke-width="3"/>
    <line id="Line_39" data-name="Line 39" x1="8.593" y2="8.588" transform="translate(42.939 8.588)" fill="none" stroke="#fff" stroke-linecap="round" stroke-linejoin="round" stroke-miterlimit="10" stroke-width="3"/>
    <path id="Path_927" data-name="Path 927" d="M425.78,50.64v6.132h6.137" transform="translate(-382.841 -39.596)" fill="none" stroke="#fff" stroke-linecap="round" stroke-linejoin="round" stroke-miterlimit="10" stroke-width="3"/>
    <line id="Line_40" data-name="Line 40" x1="8.593" y1="8.588" transform="translate(42.939 39.263)" fill="none" stroke="#fff" stroke-linecap="round" stroke-linejoin="round" stroke-miterlimit="10" stroke-width="3"/>
    <path id="Path_928" data-name="Path 928" d="M425.78,107.447V101.31h6.137" transform="translate(-382.841 -62.047)" fill="none" stroke="#fff" stroke-linecap="round" stroke-linejoin="round" stroke-miterlimit="10" stroke-width="3"/>
  </g>
  <g id="Group_87" data-name="Group 87" transform="translate(110.379 196.937)">
    <path id="Path_929" data-name="Path 929" d="M201.539,405.448A4.788,4.788,0,0,1,197,400.909V390.7a5.5,5.5,0,0,1,5.675-5.675h24.967s-1.209,5.675-5.675,5.675h-9.078v30.642" transform="translate(-197 -366.864)" fill="none" stroke="#fff" stroke-linecap="round" stroke-linejoin="round" stroke-miterlimit="10" stroke-width="3"/>
    <path id="Path_930" data-name="Path 930" d="M211.729,369.88a4.351,4.351,0,0,0,4.539-4.539v-2.272a4.539,4.539,0,1,0-9.078,0v2.272A4.348,4.348,0,0,0,211.729,369.88Z" transform="translate(-201.515 -355.127)" fill="none" stroke="#fff" stroke-linecap="round" stroke-linejoin="round" stroke-miterlimit="10" stroke-width="3"/>
    <line id="Line_41" data-name="Line 41" y2="28.37" transform="translate(4.539 26.103)" fill="none" stroke="#fff" stroke-linecap="round" stroke-linejoin="round" stroke-miterlimit="10" stroke-width="3"/>
    <line id="Line_42" data-name="Line 42" y2="17.02" transform="translate(10.214 37.453)" fill="none" stroke="#fff" stroke-linecap="round" stroke-linejoin="round" stroke-miterlimit="10" stroke-width="3"/>
    <path id="Path_931" data-name="Path 931" d="M266.28,363.959v9.078c4.539-1.727,9.39-.835,13.65,2.272l-3.5-5.675,3.52-3.4C275.692,363.123,270.819,362.232,266.28,363.959Z" transform="translate(-227.696 -357.147)" fill="none" stroke="#fff" stroke-linecap="round" stroke-linejoin="round" stroke-miterlimit="10" stroke-width="3"/>
    <path id="Path_932" data-name="Path 932" d="M243.87,357.629v9.089a17.615,17.615,0,0,1,12.481,0v-9.089A17.585,17.585,0,0,0,243.87,357.629Z" transform="translate(-217.767 -354.221)" fill="none" stroke="#fff" stroke-linecap="round" stroke-linejoin="round" stroke-miterlimit="10" stroke-width="3"/>
    <line id="Line_43" data-name="Line 43" y2="18.161" transform="translate(26.103 0)" fill="none" stroke="#fff" stroke-linecap="round" stroke-linejoin="round" stroke-miterlimit="10" stroke-width="3"/>
    <line id="Line_44" data-name="Line 44" y2="30.642" transform="translate(26.103 23.831)" fill="none" stroke="#fff" stroke-linecap="round" stroke-linejoin="round" stroke-miterlimit="10" stroke-width="3"/>
  </g>
</svg>
