<svg xmlns="http://www.w3.org/2000/svg" width="32.455" height="33.091" viewBox="0 0 32.455 33.091">
  <g id="Group_64" data-name="Group 64" transform="translate(1 1)">
    <path id="Path_876" data-name="Path 876" d="M22.74,25.646V14l4.681-4.442a3.188,3.188,0,0,0,.126-4.118l-5.469,4.979a3.014,3.014,0,0,1-1.946.662H18.688a2.956,2.956,0,0,1-1.907-.662L11.161,5.473a3.161,3.161,0,0,0,.146,4.1L16.12,14V25.646" transform="translate(-4.203 -2.5)" fill="none" stroke="#fff" stroke-linecap="round" stroke-miterlimit="10" stroke-width="2"/>
    <line id="Line_19" data-name="Line 19" y2="6.621" transform="translate(15.227 16.525)" fill="none" stroke="#fff" stroke-linecap="round" stroke-miterlimit="10" stroke-width="2"/>
    <path id="Path_877" data-name="Path 877" d="M16,44.581V37.96H26.593v6.621" transform="translate(-6.069 -13.49)" fill="none" stroke="#fff" stroke-linecap="round" stroke-miterlimit="10" stroke-width="2"/>
    <path id="Path_878" data-name="Path 878" d="M32,45.932V41.96h9.931v3.972" transform="translate(-11.476 -14.842)" fill="none" stroke="#fff" stroke-linecap="round" stroke-miterlimit="10" stroke-width="2"/>
    <path id="Path_879" data-name="Path 879" d="M1,46.946V44.96h9.931v1.986" transform="translate(-1 -15.856)" fill="none" stroke="#fff" stroke-linecap="round" stroke-miterlimit="10" stroke-width="2"/>
    <path id="Path_880" data-name="Path 880" d="M22.648,6.939A2.522,2.522,0,0,0,25.3,4.39V3.549A2.522,2.522,0,0,0,22.648,1,2.522,2.522,0,0,0,20,3.549V4.4A2.52,2.52,0,0,0,22.648,6.939Z" transform="translate(-7.421 -1)" fill="none" stroke="#fff" stroke-linecap="round" stroke-miterlimit="10" stroke-width="2"/>
  </g>
</svg>
