<svg xmlns="http://www.w3.org/2000/svg" width="439.101" height="361.519" viewBox="0 0 439.101 361.519">
  <g id="Group_39" data-name="Group 39" opacity="0.163">
    <path id="Path_138" data-name="Path 138" d="M1303.978,500.3,1251.8,486.716q-46.62-12.127-46.609,30.193v185.2q0,42.333,46.609,54.472l52.179,13.581q46.622,12.127,46.609-30.218v-185.2Q1350.624,512.448,1303.978,500.3ZM1301.415,720.3c0,4.559-.863,7.419-2.564,8.528-1.7,1.134-4.855,1.084-9.415-.1l-22.676-5.891c-4.856-1.257-8.135-2.884-9.835-4.9s-2.564-5.3-2.564-9.859v-171.5c0-4.56.863-7.394,2.564-8.528,1.7-1.109,4.978-1.06,9.835.2l22.676,5.891q6.839,1.775,9.415,4.806c1.7,2.021,2.564,5.3,2.564,9.859Z" transform="translate(-1079.265 -455.023)" fill="#fff"/>
    <path id="Path_139" data-name="Path 139" d="M1154.1,670.316l15.725.271a6.479,6.479,0,0,0,6.31-4.634l33-111.778V737.408a7.516,7.516,0,0,0,5.62,7.271l28.591,7.444a7.531,7.531,0,0,0,9.415-7.271V490.511a7.516,7.516,0,0,0-5.62-7.271l-41.284-10.746a7.546,7.546,0,0,0-9.1,5.077l-42.641,139.778v-.025l-.024,52.993Z" transform="translate(-1154.1 -472.252)" fill="#fff"/>
    <path id="Path_140" data-name="Path 140" d="M1370.717,632.747l-33.792-8.8c-4.855-1.257-8.134-2.884-9.835-4.9s-2.563-5.3-2.563-9.859V554.86c0-4.56.862-7.394,2.563-8.528,1.7-1.109,4.98-1.06,9.835.2l16.244,4.239q6.839,1.775,9.415,4.806c1.7,2.021,2.563,5.3,2.563,9.859v24.993a7.517,7.517,0,0,0,5.62,7.271l34.581,9a7.531,7.531,0,0,0,9.415-7.271v-27.9q0-42.333-46.19-54.373l-47.052-12.25q-46.178-12.016-46.191,30.317v66.3q0,42.777,44.046,54.225l34.655,9.021q6.839,1.774,9.415,4.806c1.7,2.021,2.564,5.3,2.564,9.859v57.75c0,4.56-.863,7.419-2.564,8.528-1.7,1.134-4.856,1.084-9.415-.1l-16.243-4.239c-4.856-1.257-8.134-2.884-9.834-4.9s-2.564-5.3-2.564-9.859V702.056a7.517,7.517,0,0,0-5.619-7.271l-34.137-8.9a7.531,7.531,0,0,0-9.416,7.271v27.482q0,42.333,46.609,54.471l46.19,12.028q46.62,12.127,46.609-30.218V686.356Q1415.625,644.429,1370.717,632.747Z" transform="translate(-976.525 -428.323)" fill="#fff"/>
  </g>
</svg>
