<svg xmlns="http://www.w3.org/2000/svg" width="441.477" height="357.947" viewBox="0 0 441.477 357.947">
  <g id="Group_40" data-name="Group 40" opacity="0.163">
    <path id="Path_138" data-name="Path 138" d="M1251.8,500.3l52.179-13.581q46.62-12.127,46.609,30.193v185.2q0,42.333-46.609,54.472L1251.8,770.165q-46.622,12.127-46.609-30.218v-185.2Q1205.153,512.448,1251.8,500.3Zm2.563,220.006c0,4.559.863,7.419,2.564,8.528,1.7,1.134,4.855,1.084,9.415-.1l22.676-5.891c4.856-1.257,8.135-2.884,9.835-4.9s2.564-5.3,2.564-9.859v-171.5c0-4.56-.864-7.394-2.564-8.528-1.7-1.109-4.979-1.06-9.835.2l-22.676,5.891q-6.839,1.775-9.415,4.806c-1.7,2.021-2.564,5.3-2.564,9.859Z" transform="translate(-1036.054 -455.023)" fill="#fff"/>
    <path id="Path_139" data-name="Path 139" d="M1252.765,670.316l-15.725.271a6.478,6.478,0,0,1-6.31-4.634l-33-111.778V737.408a7.516,7.516,0,0,1-5.62,7.271l-28.591,7.444a7.531,7.531,0,0,1-9.415-7.271V490.511a7.516,7.516,0,0,1,5.62-7.271L1201,472.494a7.546,7.546,0,0,1,9.1,5.077l42.641,139.778v-.025l.025,52.993Z" transform="translate(-811.288 -472.252)" fill="#fff"/>
    <path id="Path_140" data-name="Path 140" d="M1368.047,654.94l-32.846,8.553c-4.719,1.222-7.906,2.8-9.559,4.768s-2.492,5.151-2.492,9.583v52.8c0,4.432.839,7.187,2.492,8.29,1.653,1.078,4.84,1.03,9.559-.192l15.789-4.121q6.647-1.725,9.151-4.672c1.653-1.964,2.491-5.151,2.491-9.583V696.075a7.307,7.307,0,0,1,5.463-7.068l33.613-8.745a7.32,7.32,0,0,1,9.151,7.068v27.12q0,41.147-44.9,52.851l-45.734,11.907q-44.885,11.679-44.9-29.468V685.294q0-41.579,42.813-52.707l33.685-8.769c4.432-1.15,7.475-2.707,9.152-4.672,1.653-1.964,2.492-5.151,2.492-9.583V553.431c0-4.432-.839-7.211-2.492-8.29-1.653-1.1-4.72-1.054-9.152.1l-15.788,4.121q-7.08,1.833-9.559,4.767c-1.653,1.965-2.492,5.151-2.492,9.583V587.57a7.307,7.307,0,0,1-5.462,7.068l-33.181,8.648a7.32,7.32,0,0,1-9.152-7.067V569.506q0-41.147,45.3-52.946l44.9-11.692q45.315-11.788,45.3,29.372v68.591Q1411.7,643.584,1368.047,654.94Z" transform="translate(-1275.33 -423.844)" fill="#fff"/>
  </g>
</svg>
