<svg xmlns="http://www.w3.org/2000/svg" width="334.342" height="232.782" viewBox="0 0 334.342 232.782">
  <g id="Group_38" data-name="Group 38" transform="translate(-403.247 -51.072)">
    <g id="Group_34" data-name="Group 34" transform="translate(403.247 51.072)">
      <path id="Path_94" data-name="Path 94" d="M319.192,454.741l41.233,10.319a3.31,3.31,0,0,0,4.116-3.216V440.977a3.321,3.321,0,0,0-2.512-3.216L320.8,427.442a3.31,3.31,0,0,0-4.116,3.216v20.867A3.306,3.306,0,0,0,319.192,454.741Z" transform="translate(-47.95 -392.548)" fill="#162d54"/>
      <g id="Group_7" data-name="Group 7" transform="translate(276.18 41.297)">
        <path id="Path_95" data-name="Path 95" d="M328.693,438.438v2.639l-3.233-.806v-3.089q0-2.775,3.063-2.011l2.7.679c2.062.518,3.089,1.7,3.089,3.556V441.4a5.975,5.975,0,0,1-1.264,3.725l-3.674,5.507,5.024,1.256v2.469l-8.842-2.215v-2.334l4.574-6.271a4.725,4.725,0,0,0,.984-3.012V439.04a.948.948,0,0,0-.17-.645,1.17,1.17,0,0,0-.619-.306l-.815-.2c-.322-.076-.535-.085-.645-.009S328.693,438.132,328.693,438.438Z" transform="translate(-325.46 -435.006)" fill="#fff"/>
        <path id="Path_96" data-name="Path 96" d="M345.782,439.368v17.718l-3.233-.806V441.031l-2.189-.552V438.01Z" transform="translate(-327.716 -435.461)" fill="#fff"/>
        <path id="Path_97" data-name="Path 97" d="M362.015,446.322v12.16c0,1.85-1.018,2.529-3.063,2.011l-3.259-.815q-3.068-.764-3.063-3.547v-12.16c0-1.85,1.018-2.529,3.063-2.011l3.259.815C361,443.284,362.015,444.472,362.015,446.322Zm-3.225,10.9V445.965a1,1,0,0,0-.17-.645,1.262,1.262,0,0,0-.645-.314l-1.29-.323a.827.827,0,0,0-.62,0c-.11.076-.17.263-.17.56V456.5a1,1,0,0,0,.17.645,1.136,1.136,0,0,0,.62.306l1.29.322a.9.9,0,0,0,.645.008C358.731,457.71,358.791,457.523,358.791,457.226Z" transform="translate(-329.574 -436.033)" fill="#fff"/>
      </g>
      <g id="Group_17" data-name="Group 17">
        <path id="Path_98" data-name="Path 98" d="M183.03,568.03v18.839l10.259-2.648,10.48,2.707V570.864Z" transform="translate(-27.714 -413.851)" fill="#162d54"/>
        <path id="Path_99" data-name="Path 99" d="M195.128,581.456l-.008-5.626,6.661,1.748v5.6Z" transform="translate(-29.544 -415.032)" fill="#fff"/>
        <g id="Group_8" data-name="Group 8">
          <path id="Path_100" data-name="Path 100" d="M116.975,483.623l-7.807,2.028a6.644,6.644,0,0,0-3.386,1.689,5.25,5.25,0,0,0-.883,3.394v59.044c0,1.57.3,2.554.883,2.936s1.714.365,3.386-.076l7.807-2.028a6.294,6.294,0,0,0,3.242-1.655,5.251,5.251,0,0,0,.883-3.394V486.525c0-1.57-.3-2.546-.883-2.936S118.545,483.207,116.975,483.623Z" transform="translate(-15.884 -401.022)" fill="#162d54"/>
          <path id="Path_101" data-name="Path 101" d="M327.638,465.742l-151.693-39.2-.034-4.294h1.757a2.445,2.445,0,0,0,2.444-2.444V409.294a2.445,2.445,0,0,0-2.444-2.444v-8.774a3.428,3.428,0,0,0-.5-1.765l-5.193-8.384a3.353,3.353,0,0,0-2.843-1.587h-7.145a3.354,3.354,0,0,0-2.843,1.587l-5.193,8.384a3.306,3.306,0,0,0-.5,1.765v8.774a2.445,2.445,0,0,0-2.444,2.444V419.8a2.445,2.445,0,0,0,2.444,2.444h1.757v4.268L6.7,464.8A8.942,8.942,0,0,0,0,473.456V578.3a8.94,8.94,0,0,0,11.167,8.656l154.4-39.807,157.6,40.741a8.94,8.94,0,0,0,11.176-8.656V474.4A8.935,8.935,0,0,0,327.638,465.742ZM62.609,544.329q0,14.574-16.047,18.754l-15.9,4.141q-16.051,4.175-16.047-10.4V546.009a2.588,2.588,0,0,1,1.935-2.5L28.3,540.443a2.593,2.593,0,0,1,3.242,2.5v7.1c0,1.57.3,2.554.883,2.936s1.714.365,3.386-.076l5.592-1.46a6.293,6.293,0,0,0,3.242-1.655,5.25,5.25,0,0,0,.883-3.394V526.518c0-1.57-.3-2.546-.883-2.936s-1.672-.373-3.242.034l-11.931,3.106Q14.3,530.667,14.307,515.944V493.117q0-14.575,15.9-18.72l16.2-4.217q15.9-4.137,15.9,10.438v10.955a2.588,2.588,0,0,1-1.935,2.5l-11.906,3.1a2.593,2.593,0,0,1-3.242-2.5v-7.255c0-1.57-.3-2.546-.883-2.936s-1.672-.373-3.242.034l-5.592,1.46a6.644,6.644,0,0,0-3.386,1.689,5.25,5.25,0,0,0-.883,3.394v18.7c0,1.57.3,2.554.883,2.936s1.714.365,3.386-.068L47.147,509.6q15.465-4.022,15.461,10.4Zm59.545-15.5q0,14.574-16.047,18.754l-17.965,4.676q-16.051,4.175-16.047-10.4V478.1q0-14.574,16.047-18.754l17.965-4.676q16.051-4.175,16.047,10.4Zm202,44.415a3.381,3.381,0,0,1-4.234,3.276l-154.357-39.9V511.939l-5.405.1a2.223,2.223,0,0,1-2.172-1.6l-11.363-38.483v63.084a2.588,2.588,0,0,1-1.935,2.5l-9.844,2.563a2.593,2.593,0,0,1-3.242-2.5V450.043a2.588,2.588,0,0,1,1.935-2.5l14.214-3.7a2.6,2.6,0,0,1,3.131,1.748l14.68,48.115V434.37L321.613,474.7a3.386,3.386,0,0,1,2.537,3.276Z" transform="translate(0 -386.34)" fill="#162d54"/>
        </g>
        <g id="Group_14" data-name="Group 14" transform="translate(44.254 176.684)">
          <g id="Group_12" data-name="Group 12" transform="translate(0 5.736)">
            <g id="Group_9" data-name="Group 9" transform="translate(146.211)">
              <path id="Path_102" data-name="Path 102" d="M224.45,601.31l5.278,1.315a9.084,9.084,0,0,1,2.962,1.273,8.018,8.018,0,0,1,2,1.918,7.314,7.314,0,0,1,1.12,2.317,9.527,9.527,0,0,1,.339,2.478v.925a7.274,7.274,0,0,1-.161,1.7,3.231,3.231,0,0,1-.475,1.12,2.842,2.842,0,0,1-.781.747,4.911,4.911,0,0,1-1.061.492,5.565,5.565,0,0,1,1.875,2.257,8.152,8.152,0,0,1,.6,3.326v1.417q0,3.335-1.612,4.7c-1.078.916-2.792,1.078-5.159.484l-4.93-1.23V601.31Zm3.623,11.261,1.629.407c1.2.3,2.011.2,2.427-.3a3.913,3.913,0,0,0,.619-2.486,4.8,4.8,0,0,0-.687-2.724,4.1,4.1,0,0,0-2.5-1.477l-1.485-.373Zm0,11.269,1.561.391a3.573,3.573,0,0,0,1.723.11,1.527,1.527,0,0,0,.942-.653,2.775,2.775,0,0,0,.39-1.247c.051-.509.068-1.069.068-1.68a12.577,12.577,0,0,0-.1-1.7,3.458,3.458,0,0,0-.441-1.3,2.983,2.983,0,0,0-.942-.959,5.109,5.109,0,0,0-1.6-.645l-1.6-.4v8.078Z" transform="translate(-224.45 -601.31)" fill="#39a7d3"/>
              <path id="Path_103" data-name="Path 103" d="M260.8,616.547a5.56,5.56,0,0,1,.535-2.563,3.925,3.925,0,0,1,1.4-1.578,4.492,4.492,0,0,1,1.952-.662,6.348,6.348,0,0,1,2.181.153,7.935,7.935,0,0,1,2.181.933A8.524,8.524,0,0,1,271,614.468a8.046,8.046,0,0,1,1.4,2.283,7.348,7.348,0,0,1,.535,2.826v13.331a5.512,5.512,0,0,1-.535,2.58,3.93,3.93,0,0,1-1.4,1.561,4.491,4.491,0,0,1-1.952.662,6.335,6.335,0,0,1-2.181-.153,7.941,7.941,0,0,1-2.181-.933,8.525,8.525,0,0,1-1.952-1.638,8.073,8.073,0,0,1-1.4-2.266,7.344,7.344,0,0,1-.535-2.843Zm3.615,14.231a2.992,2.992,0,0,0,.73,2.113,3.435,3.435,0,0,0,1.723,1.052,2.2,2.2,0,0,0,1.723-.2,1.876,1.876,0,0,0,.73-1.748V618.668a3.031,3.031,0,0,0-.73-2.113,3.435,3.435,0,0,0-1.723-1.052,2.156,2.156,0,0,0-1.723.2,1.876,1.876,0,0,0-.73,1.748Z" transform="translate(-229.954 -602.885)" fill="#39a7d3"/>
              <path id="Path_104" data-name="Path 104" d="M297.65,619.59l5.813,1.451q6.377,1.591,6.381,9a8.23,8.23,0,0,1-.687,3.607,3.752,3.752,0,0,1-2.427,1.926l3.9,12.5-3.827-.959L303.437,635.5l-2.164-.543v10.777l-3.615-.9V619.59Zm3.615,12.177,2.054.509a3.423,3.423,0,0,0,1.527.11,1.364,1.364,0,0,0,.866-.543,2.494,2.494,0,0,0,.407-1.12,11.668,11.668,0,0,0,.1-1.655,13.032,13.032,0,0,0-.1-1.714,3.83,3.83,0,0,0-.441-1.349,2.943,2.943,0,0,0-.942-1,5.115,5.115,0,0,0-1.6-.645l-1.875-.467Z" transform="translate(-235.534 -604.078)" fill="#39a7d3"/>
              <path id="Path_105" data-name="Path 105" d="M345.825,639.087l-3.615-.9v-.815a4.65,4.65,0,0,0-.585-2.291,2.906,2.906,0,0,0-1.969-1.392,2.224,2.224,0,0,0-1.222-.026,1.448,1.448,0,0,0-.747.543,2.448,2.448,0,0,0-.373.933,5.972,5.972,0,0,0-.11,1.2q0,.738.051,1.273a2.808,2.808,0,0,0,.263.95,2.962,2.962,0,0,0,.62.815,9.076,9.076,0,0,0,1.112.849l2.766,1.79a9.6,9.6,0,0,1,1.952,1.57,6.339,6.339,0,0,1,1.154,1.74,7.379,7.379,0,0,1,.551,2.054,20.216,20.216,0,0,1,.144,2.5,11.929,11.929,0,0,1-.322,2.877,4.672,4.672,0,0,1-1.044,2.079,3.61,3.61,0,0,1-1.935,1.061,6.534,6.534,0,0,1-2.945-.17,8.058,8.058,0,0,1-2.444-1.069,8.4,8.4,0,0,1-1.952-1.748,8.191,8.191,0,0,1-1.29-2.223,6.714,6.714,0,0,1-.475-2.495v-1.349l3.615.9v1.137a3.621,3.621,0,0,0,.586,1.935,3.05,3.05,0,0,0,1.969,1.29,3,3,0,0,0,1.434.093,1.286,1.286,0,0,0,.781-.552,2.528,2.528,0,0,0,.339-1.1A14.256,14.256,0,0,0,342.2,649c0-.662-.026-1.213-.068-1.646a3.211,3.211,0,0,0-.3-1.1,2.7,2.7,0,0,0-.636-.8,12.8,12.8,0,0,0-1.078-.8l-2.588-1.706a8.207,8.207,0,0,1-3.14-3.318,10.029,10.029,0,0,1-.8-4.15,8.171,8.171,0,0,1,.39-2.6,4.561,4.561,0,0,1,1.154-1.909,4.053,4.053,0,0,1,1.935-.993,6,6,0,0,1,2.732.136,7.272,7.272,0,0,1,2.461,1.112,8.78,8.78,0,0,1,1.918,1.79,7.941,7.941,0,0,1,1.222,2.13,6.176,6.176,0,0,1,.424,2.181v1.757Z" transform="translate(-240.948 -605.636)" fill="#39a7d3"/>
            </g>
            <g id="Group_11" data-name="Group 11" transform="translate(0 1.314)">
              <g id="Group_10" data-name="Group 10">
                <path id="Path_106" data-name="Path 106" d="M52.15,630.2l3.479-.9,5.456,13.8.068-.017V627.873l3.615-.933v25.245l-3.4.883-5.533-13.739-.068.017v15.173l-3.615.933Z" transform="translate(-52.15 -606.504)" fill="#39a7d3"/>
                <path id="Path_107" data-name="Path 107" d="M89.67,620.572l10.777-2.792v3.4l-7.162,1.85v7.408l6.237-1.612v3.4l-6.237,1.612v7.408l7.162-1.85v3.615L89.67,645.809Z" transform="translate(-57.831 -605.117)" fill="#39a7d3"/>
                <path id="Path_108" data-name="Path 108" d="M124.05,612l3.615-.933v25.245l-3.615.933V612Z" transform="translate(-63.037 -604.101)" fill="#39a7d3"/>
                <path id="Path_109" data-name="Path 109" d="M151,610.794a7.424,7.424,0,0,1,.535-2.834,7.979,7.979,0,0,1,1.4-2.291,8.389,8.389,0,0,1,1.952-1.655,7.649,7.649,0,0,1,2.181-.95,6.352,6.352,0,0,1,2.181-.178,4.586,4.586,0,0,1,1.952.645,3.9,3.9,0,0,1,1.4,1.57,5.522,5.522,0,0,1,.535,2.554v1.273l-3.615.933v-1.273a1.876,1.876,0,0,0-.73-1.748,2.192,2.192,0,0,0-1.723-.178,3.409,3.409,0,0,0-1.723,1.069,3.068,3.068,0,0,0-.73,2.122v13.331a1.858,1.858,0,0,0,.73,1.748,2.191,2.191,0,0,0,1.723.178,3.443,3.443,0,0,0,1.723-1.069,3.053,3.053,0,0,0,.73-2.122v-4.752l-2.868.747v-3.191l6.492-1.68v7.943a7.357,7.357,0,0,1-.535,2.851,8.121,8.121,0,0,1-1.4,2.274,8.391,8.391,0,0,1-1.952,1.655,7.753,7.753,0,0,1-2.181.95,6.356,6.356,0,0,1-2.181.178,4.584,4.584,0,0,1-1.952-.645,3.9,3.9,0,0,1-1.4-1.553,5.5,5.5,0,0,1-.535-2.571V610.794Z" transform="translate(-67.117 -602.858)" fill="#39a7d3"/>
              </g>
            </g>
          </g>
          <g id="Group_13" data-name="Group 13" transform="translate(115.153)">
            <path id="Path_110" data-name="Path 110" d="M194.75,604.809l2.232.56V594.55l3.615.908V620.7l-3.615-.908V608.56L194.75,608Z" transform="translate(-188.895 -594.55)" fill="#39a7d3"/>
            <path id="Path_111" data-name="Path 111" d="M193.705,604.792l-2.24.577V594.55l-3.615.942v25.237l3.615-.933V608.56l2.24-.577Z" transform="translate(-187.85 -594.55)" fill="#39a7d3"/>
          </g>
        </g>
        <g id="Group_15" data-name="Group 15" transform="translate(165.559 57.417)">
          <path id="Path_112" data-name="Path 112" d="M280.2,471.37l-17.965-4.676q-16.051-4.175-16.047,10.4v63.763q0,14.574,16.047,18.754l17.965,4.676q16.051,4.175,16.047-10.4V490.115Q296.261,475.553,280.2,471.37Zm-.883,75.745c0,1.57-.3,2.554-.883,2.936s-1.672.373-3.242-.034l-7.807-2.028A6.579,6.579,0,0,1,264,546.3a5.25,5.25,0,0,1-.883-3.394V483.861c0-1.57.3-2.546.883-2.936s1.714-.365,3.386.068l7.807,2.028a6.294,6.294,0,0,1,3.242,1.655,5.25,5.25,0,0,1,.883,3.394Z" transform="translate(-202.836 -455.783)" fill="#39a7d3"/>
          <path id="Path_113" data-name="Path 113" d="M195.1,522.193l5.414.093a2.23,2.23,0,0,0,2.172-1.6l11.363-38.483v63.084a2.588,2.588,0,0,0,1.935,2.5l9.844,2.563a2.593,2.593,0,0,0,3.242-2.5V460.288a2.588,2.588,0,0,0-1.935-2.5l-14.214-3.7a2.6,2.6,0,0,0-3.131,1.748l-14.681,48.123v-.008l-.009,18.245Z" transform="translate(-195.1 -454.002)" fill="#39a7d3"/>
          <path id="Path_114" data-name="Path 114" d="M349.17,528.923l-11.634-3.029a6.578,6.578,0,0,1-3.386-1.689,5.25,5.25,0,0,1-.883-3.394v-18.7c0-1.57.3-2.546.883-2.936s1.714-.365,3.386.068l5.592,1.46a6.293,6.293,0,0,1,3.242,1.655,5.25,5.25,0,0,1,.883,3.394v8.6a2.588,2.588,0,0,0,1.935,2.5l11.906,3.1a2.593,2.593,0,0,0,3.242-2.5v-9.606q0-14.575-15.9-18.72l-16.2-4.217q-15.9-4.137-15.9,10.438v22.827q0,14.727,15.164,18.669l11.931,3.106a6.294,6.294,0,0,1,3.242,1.655,5.25,5.25,0,0,1,.883,3.394v19.882c0,1.57-.3,2.554-.883,2.936s-1.672.373-3.242-.034l-5.592-1.46a6.579,6.579,0,0,1-3.386-1.689,5.25,5.25,0,0,1-.883-3.394v-8.452a2.588,2.588,0,0,0-1.935-2.5l-11.753-3.063a2.593,2.593,0,0,0-3.242,2.5v9.462q0,14.574,16.047,18.754l15.9,4.141q16.051,4.175,16.047-10.4V547.379Q364.631,532.945,349.17,528.923Z" transform="translate(-213.456 -458.543)" fill="#39a7d3"/>
        </g>
        <path id="Path_115" data-name="Path 115" d="M204.927,411.352H203.4V399.616a2.48,2.48,0,0,0-.382-1.332l-3.861-6.237a2.516,2.516,0,0,0-2.147-1.2H195.1v34.02l6.543,1.273-.034-7.035h3.309a.913.913,0,0,0,.916-.916v-5.915A.907.907,0,0,0,204.927,411.352Z" transform="translate(-29.541 -387.023)" fill="#fff"/>
        <g id="Group_16" data-name="Group 16" transform="translate(165.559 107.363)">
          <path id="Path_116" data-name="Path 116" d="M195.1,512.86" transform="translate(-195.1 -512.86)" fill="none" stroke="#162d54" stroke-miterlimit="10" stroke-width="1.501"/>
        </g>
        <path id="Path_117" data-name="Path 117" d="M354.96,591.79a5.246,5.246,0,0,1-1.3-.17L195.112,550.634V548s157.65,40.291,158.244,40.4c4.345.8,4.073-1.952,4.073-5.932l.076-97.052c0-3.284.348-5.465-2.834-6.288l-159.6-41.368.042-2.334,161.112,41.445a5.122,5.122,0,0,1,3.827,4.956V586.673a5.114,5.114,0,0,1-5.091,5.117Z" transform="translate(-29.537 -393.773)" fill="#fff"/>
        <rect id="Rectangle_17" data-name="Rectangle 17" width="12.067" height="3.751" transform="translate(163.666 20.553)" fill="#162d54"/>
        <rect id="Rectangle_18" data-name="Rectangle 18" width="12.067" height="3.751" transform="translate(163.666 32.093)" fill="#162d54"/>
        <path id="Path_118" data-name="Path 118" d="M198.392,409.105H194.37V395.35l.246.025a3.722,3.722,0,0,1,3.08,2.206l.7,1.587Z" transform="translate(-29.431 -387.704)" fill="#162d54"/>
        <path id="Path_119" data-name="Path 119" d="M202.1,423.739H193.49V418.8h7.985a.627.627,0,0,1,.628.628v4.311Z" transform="translate(-29.298 -391.255)" fill="#162d54"/>
      </g>
      <g id="Group_18" data-name="Group 18" transform="translate(279.515 63.084)">
        <rect id="Rectangle_19" data-name="Rectangle 19" width="3.318" height="7.654" fill="#162d54"/>
        <rect id="Rectangle_20" data-name="Rectangle 20" width="3.318" height="7.654" transform="translate(22.988 5.702)" fill="#162d54"/>
      </g>
    </g>
  </g>
</svg>
