<?xml version="1.0" encoding="UTF-8" standalone="no" ?>
<svg xmlns:dc="http://purl.org/dc/elements/1.1/" xmlns:cc="http://creativecommons.org/ns#" xmlns:rdf="http://www.w3.org/1999/02/22-rdf-syntax-ns#" xmlns:svg="http://www.w3.org/2000/svg" xmlns="http://www.w3.org/2000/svg" xmlns:sodipodi="http://sodipodi.sourceforge.net/DTD/sodipodi-0.dtd" xmlns:inkscape="http://www.inkscape.org/namespaces/inkscape" width="187.04001" height="232.00999" viewBox="0 0 187.04001 232.01" version="1.1" id="svg3723" sodipodi:docname="left-flag.svg" inkscape:version="0.92.4 (5da689c313, 2019-01-14)">

   <path id="Path_887" data-name="Path 887" d="M 7.530009,88.22 174.38001,45.2 v -4.84 h -1.84 a 2.748,2.748 0 0 1 -2.75,-2.75 V 25.8 a 2.748,2.748 0 0 1 2.75,-2.75 v -9.86 a 3.8,3.8 0 0 1 0.57,-1.99 l 5.84,-9.42 a 3.766,3.766 0 0 1 3.2,-1.78 h 4.89 v 232.01 h -12.66 V 183.84 L 12.560009,225.56 A 10.045,10.045 0 0 1 9.0254301e-6,215.83 V 97.95 A 10.034,10.034 0 0 1 7.530009,88.22 Z" style="fill:#ef476f" />
</svg>