<svg xmlns="http://www.w3.org/2000/svg" width="371.27" height="232.01" viewBox="0 0 371.27 232.01">
  <g id="Group_82" data-name="Group 82" transform="translate(0 0.01)">
    <path id="Path_885_1_" d="M197.18,22.75V13.02a3.686,3.686,0,0,0-.56-1.96l-5.77-9.3A3.657,3.657,0,0,0,187.71,0h-7.93a3.7,3.7,0,0,0-3.16,1.76l-5.77,9.3a3.686,3.686,0,0,0-.56,1.96v9.73a2.706,2.706,0,0,0-2.71,2.71h0V37.11a2.706,2.706,0,0,0,2.71,2.71h1.82V44.6L7.44,87.06A9.919,9.919,0,0,0,0,96.67V213.03a9.912,9.912,0,0,0,9.93,9.91,10.318,10.318,0,0,0,2.47-.31l159.71-41.18v50.54h23.1V44.33c.01-.02.04-.04.05-.06l-.03-4.44h1.95a2.706,2.706,0,0,0,2.71-2.71V25.46a2.7,2.7,0,0,0-2.69-2.71Z" fill="#ef476f" />
  </g>

</svg>