<?xml version="1.0" encoding="UTF-8" standalone="no"?>
<svg
   xmlns:dc="http://purl.org/dc/elements/1.1/"
   xmlns:cc="http://creativecommons.org/ns#"
   xmlns:rdf="http://www.w3.org/1999/02/22-rdf-syntax-ns#"
   xmlns:svg="http://www.w3.org/2000/svg"
   xmlns="http://www.w3.org/2000/svg"
   xmlns:sodipodi="http://sodipodi.sourceforge.net/DTD/sodipodi-0.dtd"
   xmlns:inkscape="http://www.inkscape.org/namespaces/inkscape"
   width="187.04001"
   height="232.00999"
   viewBox="0 0 187.04001 232.01"
   version="1.1"
   id="svg3723"
   sodipodi:docname="left-flag.svg"
   inkscape:version="0.92.4 (5da689c313, 2019-01-14)">
  <metadata
     id="metadata8">
    <rdf:RDF>
      <cc:Work
         rdf:about="">
        <dc:format>image/svg+xml</dc:format>
        <dc:type
           rdf:resource="http://purl.org/dc/dcmitype/StillImage" />
      </cc:Work>
    </rdf:RDF>
  </metadata>
  <defs
     id="defs6" />
  <sodipodi:namedview
     pagecolor="#ffffff"
     bordercolor="#666666"
     borderopacity="1"
     objecttolerance="10"
     gridtolerance="10"
     guidetolerance="10"
     inkscape:pageopacity="0"
     inkscape:pageshadow="2"
     inkscape:window-width="1920"
     inkscape:window-height="1057"
     id="namedview4"
     showgrid="false"
     inkscape:zoom="1.0171976"
     inkscape:cx="93.520004"
     inkscape:cy="116.005"
     inkscape:window-x="-8"
     inkscape:window-y="-8"
     inkscape:window-maximized="1"
     inkscape:current-layer="svg3723" />
  <path
     id="Path_887"
     data-name="Path 887"
     d="M 7.530009,88.22 174.38001,45.2 v -4.84 h -1.84 a 2.748,2.748 0 0 1 -2.75,-2.75 V 25.8 a 2.748,2.748 0 0 1 2.75,-2.75 v -9.86 a 3.8,3.8 0 0 1 0.57,-1.99 l 5.84,-9.42 a 3.766,3.766 0 0 1 3.2,-1.78 h 4.89 v 232.01 h -12.66 V 183.84 L 12.560009,225.56 A 10.045,10.045 0 0 1 9.0254301e-6,215.83 V 97.95 A 10.034,10.034 0 0 1 7.530009,88.22 Z"
     style="fill:#ef476f" />
  <g
     style="opacity:0.42000002"
     id="g143"
     transform="matrix(1.0540975,0,0,1.0540975,1.2071637,0.02439195)">
    <path
       transform="translate(-292.829,-278.158)"
       d="m 605.547,550.864 h -6.893 V 548.2 h 6.893 v 2.66 z m 0.82,-4.3 h -8.534 a 0.82,0.82 0 0 0 -0.819,0.82 v 4.3 a 0.82,0.82 0 0 0 0.819,0.82 h 8.534 a 0.822,0.822 0 0 0 0.822,-0.82 v -4.3 a 0.822,0.822 0 0 0 -0.822,-0.82 z"
       data-name="Path 933"
       id="Path_933"
       inkscape:connector-curvature="0"
       style="fill:#ffffff" />
    <path
       transform="translate(-367.019,-340.004)"
       d="m 412.053,399.608 h 5.647 v 5.35 h -5.646 v -5.35 z m 0,-6.958 h 5.647 v 5.318 h -5.646 v -5.318 z m 7.287,6.958 h 5.645 v 5.35 h -5.645 z m 0,-6.958 h 5.645 v 5.318 h -5.645 z m -8.107,13.95 h 14.573 a 0.82,0.82 0 0 0 0.82,-0.82 v -13.951 a 0.82,0.82 0 0 0 -0.82,-0.82 h -14.573 a 0.82,0.82 0 0 0 -0.819,0.82 v 13.949 a 0.82,0.82 0 0 0 0.819,0.82 z"
       data-name="Path 934"
       id="Path_934"
       inkscape:connector-curvature="0"
       style="fill:#ffffff" />
    <path
       transform="translate(-290.523,-256.944)"
       d="m 617.389,606.909 h -5.648 v -5.349 h 5.648 z m -7.288,0 h -5.645 v -5.349 h 5.644 v 5.349 z m 8.107,-6.989 h -14.573 a 0.821,0.821 0 0 0 -0.82,0.82 v 8.1 h 1.641 v -0.291 h 5.644 v 0.291 h 1.641 v -0.291 h 5.648 v 0.291 h 1.638 v -8.1 a 0.82,0.82 0 0 0 -0.819,-0.82 z"
       data-name="Path 935"
       id="Path_935"
       inkscape:connector-curvature="0"
       style="fill:#ffffff" />
    <path
       transform="translate(-284.921,-321.63)"
       d="m 634,445.791 h -6.891 v -6.925 H 634 Z m 0,8.567 h -6.891 v -6.926 H 634 Z m -8.531,-8.567 h -6.926 v -6.925 h 6.926 z m 0,8.567 h -6.926 v -6.926 h 6.926 z m 0.82,-17.134 h -8.567 a 0.819,0.819 0 0 0 -0.819,0.82 v 17.134 a 0.818,0.818 0 0 0 0.819,0.82 h 17.1 a 0.82,0.82 0 0 0 0.82,-0.82 v -17.134 a 0.821,0.821 0 0 0 -0.82,-0.82 z"
       data-name="Path 936"
       id="Path_936"
       inkscape:connector-curvature="0"
       style="fill:#ffffff" />
    <path
       transform="translate(-299.403,-256.169)"
       d="m 598.4,601.869 h -17.1 a 0.821,0.821 0 0 0 -0.82,0.82 v 5.379 h 1.642 v -4.558 h 6.891 v 4.559 h 1.641 v -4.559 h 6.926 v 4.559 h 1.641 v -5.379 a 0.821,0.821 0 0 0 -0.822,-0.82 z"
       data-name="Path 937"
       id="Path_937"
       inkscape:connector-curvature="0"
       style="fill:#ffffff" />
    <path
       transform="translate(-285.528,-308.371)"
       d="M 632.479,474.838 H 617.02 v -2.625 h 15.459 z m 1.639,-3.445 a 0.82,0.82 0 0 0 -0.819,-0.82 H 616.2 a 0.82,0.82 0 0 0 -0.82,0.82 v 4.265 a 0.82,0.82 0 0 0 0.82,0.82 h 17.1 a 0.82,0.82 0 0 0 0.819,-0.82 v -4.265 z"
       data-name="Path 938"
       id="Path_938"
       inkscape:connector-curvature="0"
       style="fill:#ffffff" />
    <path
       transform="translate(-299.403,-258.606)"
       d="m 597.582,600.007 h -15.459 v -2.626 h 15.459 z m 0.819,-4.268 H 581.3 a 0.821,0.821 0 0 0 -0.82,0.82 v 4.268 a 0.821,0.821 0 0 0 0.82,0.82 h 17.1 a 0.821,0.821 0 0 0 0.822,-0.82 v -4.268 a 0.821,0.821 0 0 0 -0.822,-0.82 z"
       data-name="Path 939"
       id="Path_939"
       inkscape:connector-curvature="0"
       style="fill:#ffffff" />
    <path
       transform="translate(-314.117,-288.064)"
       d="m 545.113,530.282 h 5.645 v 5.347 h -5.645 z m 0,-6.992 h 5.645 v 5.35 h -5.645 z m 7.286,6.992 h 5.645 v 5.347 H 552.4 v -5.347 z m 0,-6.992 h 5.645 v 5.35 H 552.4 v -5.35 z m -8.107,13.983 h 14.574 a 0.822,0.822 0 0 0 0.82,-0.822 v -13.982 a 0.82,0.82 0 0 0 -0.82,-0.82 h -14.575 a 0.82,0.82 0 0 0 -0.82,0.82 v 13.981 a 0.822,0.822 0 0 0 0.82,0.822 z"
       data-name="Path 940"
       id="Path_940"
       inkscape:connector-curvature="0"
       style="fill:#ffffff" />
    <path
       transform="translate(-320.756,-288.045)"
       d="m 540.757,528.982 h -5.35 v -5.645 h 5.35 z m 0,7.286 h -5.35 v -5.643 h 5.35 z m -6.991,-7.286 h -5.35 v -5.645 h 5.35 z m 0,7.286 h -5.35 v -5.643 h 5.35 z m 7.811,-14.571 H 527.6 a 0.82,0.82 0 0 0 -0.822,0.82 v 14.573 a 0.821,0.821 0 0 0 0.822,0.82 h 13.981 a 0.82,0.82 0 0 0 0.82,-0.82 v -14.574 a 0.819,0.819 0 0 0 -0.82,-0.82 z"
       data-name="Path 941"
       id="Path_941"
       inkscape:connector-curvature="0"
       style="fill:#ffffff" />
    <path
       transform="translate(-281.878,-293.974)"
       d="m 624.56,507.6 v 4.267 a 0.822,0.822 0 0 0 0.822,0.822 h 8.4 V 511.05 H 626.2 v -2.625 h 7.576 v -1.642 h -8.4 a 0.822,0.822 0 0 0 -0.822,0.82 z"
       data-name="Path 942"
       id="Path_942"
       inkscape:connector-curvature="0"
       style="fill:#ffffff" />
    <path
       transform="translate(-286.929,-336.802)"
       d="M 628.955,403.331 H 613.5 V 400.7 h 15.459 v 2.626 z m -16.279,-4.267 a 0.821,0.821 0 0 0 -0.82,0.82 v 4.267 a 0.82,0.82 0 0 0 0.82,0.82 h 17.1 a 0.819,0.819 0 0 0 0.82,-0.82 v -4.267 a 0.82,0.82 0 0 0 -0.82,-0.82 z"
       data-name="Path 943"
       id="Path_943"
       inkscape:connector-curvature="0"
       style="fill:#ffffff" />
    <path
       transform="translate(-307.469,-256.169)"
       d="m 577.325,606.134 h -15.494 v -2.624 h 15.494 v 2.625 z m 0.819,-4.265 h -17.132 a 0.819,0.819 0 0 0 -0.819,0.82 v 4.265 a 0.82,0.82 0 0 0 0.819,0.823 h 17.132 a 0.821,0.821 0 0 0 0.82,-0.823 v -4.265 a 0.82,0.82 0 0 0 -0.82,-0.82 z"
       data-name="Path 944"
       id="Path_944"
       inkscape:connector-curvature="0"
       style="fill:#ffffff" />
    <path
       transform="translate(-325.872,-293.377)"
       d="M 527.854,515.573 H 522.5 v -5.645 h 5.35 v 5.645 z m 0,7.286 H 522.5 v -5.643 h 5.35 v 5.643 z m -6.989,-7.286 h -5.319 v -5.645 h 5.319 z m 0,7.286 h -5.319 v -5.643 h 5.319 z m 7.811,-14.573 h -13.951 a 0.82,0.82 0 0 0 -0.819,0.822 v 14.571 a 0.82,0.82 0 0 0 0.819,0.82 h 13.951 a 0.821,0.821 0 0 0 0.82,-0.82 v -14.571 a 0.821,0.821 0 0 0 -0.82,-0.822 z"
       data-name="Path 945"
       id="Path_945"
       inkscape:connector-curvature="0"
       style="fill:#ffffff" />
    <path
       transform="translate(-377.122,-308.371)"
       d="m 402.137,474.838 h -15.492 v -2.625 h 15.492 z m 1.639,0.82 v -4.265 a 0.819,0.819 0 0 0 -0.819,-0.82 h -17.133 a 0.82,0.82 0 0 0 -0.82,0.82 v 4.265 a 0.82,0.82 0 0 0 0.82,0.82 h 17.133 a 0.819,0.819 0 0 0 0.819,-0.82 z"
       data-name="Path 946"
       id="Path_946"
       inkscape:connector-curvature="0"
       style="fill:#ffffff" />
    <path
       transform="translate(-280.234,-256.244)"
       d="m 632.135,601.681 h -2.622 a 0.822,0.822 0 0 0 -0.82,0.82 v 5.642 h 1.642 v -4.82 h 1.8 z"
       data-name="Path 947"
       id="Path_947"
       inkscape:connector-curvature="0"
       style="fill:#ffffff" />
    <g
       data-name="Group 98"
       id="Group_98">
      <path
         transform="translate(-343.874,-326.662)"
         d="m 482.612,431.853 h -5.352 v -5.643 h 5.351 v 5.643 z m 0,7.287 h -5.352 v -5.645 h 5.351 v 5.645 z m -6.992,-7.287 h -5.35 v -5.643 h 5.35 z m 0,7.287 h -5.35 v -5.645 h 5.35 z m 7.813,-14.573 h -13.984 a 0.821,0.821 0 0 0 -0.82,0.82 v 14.574 a 0.822,0.822 0 0 0 0.82,0.82 h 13.983 a 0.82,0.82 0 0 0 0.819,-0.82 v -14.574 a 0.82,0.82 0 0 0 -0.819,-0.82 z"
         data-name="Path 948"
         id="Path_948"
         inkscape:connector-curvature="0"
         style="fill:#ffffff" />
      <path
         transform="translate(-342.678,-354.514)"
         d="m 473.276,358.52 h 5.646 v 5.318 h -5.646 z m 7.287,0 h 5.645 v 5.318 h -5.645 z m -8.107,6.959 h 14.573 a 0.82,0.82 0 0 0 0.82,-0.82 v -10.145 h -1.641 v 2.365 h -5.645 v -2.365 h -1.641 v 2.365 h -5.646 v -2.365 h -1.641 v 10.144 a 0.82,0.82 0 0 0 0.82,0.82 z"
         data-name="Path 949"
         id="Path_949"
         inkscape:connector-curvature="0"
         style="fill:#ffffff" />
      <path
         transform="translate(-370.604,-354.514)"
         d="m 402.215,362.525 h 17.1 a 0.821,0.821 0 0 0 0.822,-0.82 v -7.191 h -1.642 v 6.37 h -6.925 v -6.37 h -1.641 v 6.37 h -6.891 v -6.37 H 401.4 v 7.186 a 0.82,0.82 0 0 0 0.819,0.82 z"
         data-name="Path 950"
         id="Path_950"
         inkscape:connector-curvature="0"
         style="fill:#ffffff" />
      <path
         transform="translate(-352.164,-316.859)"
         d="m 449.417,450.866 h 6.891 v 2.626 h -6.891 z m -1.641,-0.82 v 4.267 a 0.819,0.819 0 0 0 0.82,0.82 h 8.532 a 0.82,0.82 0 0 0 0.822,-0.82 v -4.267 a 0.822,0.822 0 0 0 -0.822,-0.822 H 448.6 a 0.821,0.821 0 0 0 -0.82,0.822 z"
         data-name="Path 951"
         id="Path_951"
         inkscape:connector-curvature="0"
         style="fill:#ffffff" />
      <path
         transform="translate(-330.464,-354.514)"
         d="m 503.959,363.083 a 0.82,0.82 0 0 0 0.82,0.82 h 4.3 a 0.821,0.821 0 0 0 0.82,-0.82 v -8.107 a 13.55,13.55 0 0 0 1.576,-0.461 h -3.217 v 7.748 H 505.6 v -7.748 h -3.242 a 13.351,13.351 0 0 0 1.6,0.467 v 8.1 z"
         data-name="Path 952"
         id="Path_952"
         inkscape:connector-curvature="0"
         style="fill:#ffffff" />
      <path
         transform="translate(-282.718,-262.28)"
         d="m 634.619,595.145 h -8.736 l 3.525,-2.657 h 5.212 v -1.642 h -3.037 l 3.037,-2.289 V 586.5 l -0.169,0.129 a 0.8,0.8 0 0 0 -0.428,0.323 l -5.209,3.929 a 0.811,0.811 0 0 0 -0.562,0.422 l -5.133,3.876 a 0.785,0.785 0 0 0 -0.507,1.256 v 17.745 h 1.641 v -17.392 h 10.367 v -1.642 z"
         data-name="Path 953"
         id="Path_953"
         inkscape:connector-curvature="0"
         style="fill:#ffffff" />
      <path
         transform="translate(-379.364,-354.514)"
         d="m 717.749,683.081 h -3.989 l -2.088,-2.625 h 6.077 z m -2.587,4.4 h -2.184 a 0.819,0.819 0 0 0 -0.383,-0.1 h -28.152 l 9.012,-11.329 a 0.822,0.822 0 0 0 0.31,-0.39 l 6,-7.54 15.4,19.358 z m -32.817,-0.1 H 652.7 a 0.824,0.824 0 0 0 -0.383,0.1 h -2.18 l 2.193,-2.756 h 32.13 l -2.115,2.657 z m -30.469,8.8 h -25.97 l 4.746,-7.124 a 0.818,0.818 0 0 0 0.191,-0.288 l 2.654,-3.982 a 0.812,0.812 0 0 0 0.245,-0.37 l 2.587,-3.88 a 0.812,0.812 0 0 0 0.275,-0.414 l 2.528,-3.8 a 0.788,0.788 0 0 0 0.377,-0.566 l 1.962,-2.943 8.309,12.472 -1.993,2.5 a 0.822,0.822 0 0 0 0.643,1.332 h 3.445 v 7.056 z m -27.942,0 h -32.261 l 1.75,-2.625 h 32.26 l -1.748,2.625 z m -33.6,-25.665 H 574.06 v -2.625 h 32.459 v 2.625 h -16.18 z m 3.479,17.132 h -2.653 v -15.49 h 2.658 v 15.49 z m -8.567,0 h -2.657 v -15.49 h 2.657 z m -8.566,0 h -2.62 v -15.49 h 2.625 v 15.49 z m -2.644,-36.854 h 6.815 v 2.623 h -6.8 l -0.014,-2.623 z m -0.025,-4.3 h 32.5 v 2.658 h -32.48 l -0.015,-2.658 z m -0.024,-4.267 h 32.527 v 2.626 h -32.507 l -0.015,-2.626 z m -0.024,-4.266 h 32.551 v 2.625 h -32.532 l -0.014,-2.625 z m -1.265,-1.676 h -5.9 v -7.246 a 13.422,13.422 0 0 0 8.223,-20.584 h 52.889 v 3.479 a 0.821,0.821 0 0 0 0.819,0.822 h 1.314 v 5.592 l -4.9,-7.36 a 0.824,0.824 0 0 0 -0.18,-0.163 0.692,0.692 0 0 0 -0.1,-0.092 0.807,0.807 0 0 0 -0.4,-0.112 h -34.222 a 0.82,0.82 0 0 0 -0.683,0.368 l -16.855,25.3 z m -0.383,4.3 H 558.47 l 3.523,-2.658 h 10.327 v 2.658 z m 0,4.267 h -19.501 l 3.48,-2.626 h 16.026 v 2.626 z m 0,4.3 h -25.202 l 3.525,-2.658 h 21.682 v 2.658 z m 0,4.267 h -30.858 l 3.48,-2.623 h 27.383 v 2.623 z m 0,17.1 h -6.827 v -15.465 h 6.827 v 15.457 z m -8.467,0 h -6.926 v -15.465 h 6.926 v 15.457 z m -8.566,0 H 548.4 v -15.465 h 6.893 v 15.457 z m -8.534,0 h -6.927 v -15.465 h 6.927 v 15.457 z m -8.038,-17.087 a 0.816,0.816 0 0 0 -0.53,1.3 v 7.068 a 0.8,0.8 0 0 0 -0.361,-0.088 h -3.48 v -3.48 a 0.82,0.82 0 0 0 -0.82,-0.82 h -3.445 v -3.445 a 0.82,0.82 0 0 0 -0.82,-0.82 h -3.48 v -2.657 h 3.48 a 0.82,0.82 0 0 0 0.82,-0.82 v -3.446 h 3.445 a 0.819,0.819 0 0 0 0.82,-0.82 v -3.447 h 3.48 a 0.821,0.821 0 0 0 0.82,-0.822 v -3.477 h 3.446 a 0.819,0.819 0 0 0 0.819,-0.82 v -33.28 h 12.244 a 0.82,0.82 0 0 0 0.819,-0.822 v -33.41 h 3.5 a 0.82,0.82 0 0 0 0.59,-1.391 l -0.574,-0.939 h 3.146 v 35.539 a 13.437,13.437 0 0 0 -1.74,26.5 v 7.659 l -10.873,8.2 a 0.8,0.8 0 0 0 -0.429,0.323 l -5.268,3.973 a 0.8,0.8 0 0 0 -0.456,0.342 l -5.157,3.891 z m -0.53,17.087 h -12.399 v -2.888 h 12.406 v 2.888 z m -16.672,-4.53 v -2.625 h 15.491 v 2.625 h -15.484 z m -4.267,-4.267 v -2.658 H 532.7 v 2.658 h -15.452 z m -4.3,-4.3 v -2.623 h 15.499 v 2.623 h -15.492 z m -4.265,-4.265 v -2.667 h 15.464 v 2.658 h -15.457 z m 4.265,-6.925 h 15.499 v 2.625 h -15.492 v -2.625 z m 4.3,-4.267 H 532.7 v 2.626 h -15.452 v -2.626 z m 12.833,-5.941 v -19.731 h 6.925 v 19.723 z m -8.566,0 v -19.731 h 6.925 v 19.723 z m 7.745,1.642 h 7.745 v 2.657 h -15.483 v -2.657 z m -12.012,-1.642 v -32.466 h 24.025 v 32.458 h -2.626 v -20.543 a 0.821,0.821 0 0 0 -0.82,-0.822 h -17.125 a 0.821,0.821 0 0 0 -0.82,0.822 v 20.543 z m 22.933,-34.2 h -21.949 l 10.97,-13.811 10.986,13.811 z m -24.051,0 h -2.213 l 2.309,-2.9 v -0.006 l 6.729,-8.443 a 0.8,0.8 0 0 0 0.312,-0.393 l 6,-7.522 15.4,19.358 h -2.2 a 0.806,0.806 0 0 0 -0.147,-0.053 l -12.479,-15.687 a 0.82,0.82 0 0 0 -0.641,-0.309 v 0 a 0.818,0.818 0 0 0 -0.642,0.309 l -12.422,15.64 z m -0.523,34.2 h -32.584 v -32.466 h 32.592 v 32.458 z m -33.412,-34.2 a 0.8,0.8 0 0 0 -0.369,0.1 h -2.2 l 2.191,-2.755 h 32.107 l -2.117,2.655 z m 3.446,52.974 v 15.457 h -2.626 v -15.464 z m 5.119,17.1 h 23.964 l -2.145,2.7 a 0.731,0.731 0 0 0 -0.19,-0.039 h -31.9 l 2.11,-2.657 h 8.169 z m -3.479,-6.4 h 2.66 v 4.757 h -2.66 z m 0,-4.3 h 2.66 v 2.66 h -2.66 z m 4.3,-6.4 h 2.626 v 15.457 h -2.626 v -15.464 z m 4.267,10.7 h 2.625 v 4.757 h -2.616 v -4.757 z m 0,-4.3 h 2.625 v 2.66 h -2.616 v -2.66 z m 4.265,-6.4 h 2.66 v 15.457 h -2.66 v -15.464 z m 31.711,36.987 h -2.148 a 0.8,0.8 0 0 0 -0.418,-0.131 H 501.1 l 2.274,-2.857 a 0.538,0.538 0 0 0 0.041,-0.053 l 6.725,-8.45 a 0.8,0.8 0 0 0 0.287,-0.36 l 6,-7.539 15.4,19.39 z m -31.581,-1.691 -1.236,1.553 h -29.637 a 0.8,0.8 0 0 0 -0.418,0.131 H 466.8 l 2.189,-2.756 h 32.108 l -0.847,1.065 z M 472.4,684.723 h 32.115 l -2.115,2.657 h -32.112 z m 3.388,-4.267 h 32.121 l -2.088,2.625 H 473.7 l 2.084,-2.625 z m 3.391,-4.267 H 511.3 l -2.089,2.626 h -32.118 l 2.085,-2.626 z m -30.393,-5.941 v -2.625 h 32.59 v 2.625 z m -0.382,-34.232 -15.184,-22.788 -0.822,-1.236 h 2.295 l 16.036,24.023 z m -1.261,34.232 h -9.058 v -20.807 a 0.822,0.822 0 0 0 -0.82,-0.822 h -12.833 a 0.821,0.821 0 0 0 -0.82,0.822 v 20.807 h -9.059 v -32.59 h 32.59 z m 0,4.3 h -15.458 v -2.658 h 15.457 v 2.657 z m -9.058,4.268 v -2.626 h 2.658 v 2.626 z m 9.058,1.641 v 2.625 h -15.458 v -2.625 z m -9.058,6.924 v -2.657 h 2.658 v 2.657 z m 9.058,1.642 v 2.625 h -9.681 v -2.625 z m -9.058,6.893 v -2.626 h 2.658 v 2.626 z m 9.058,1.641 v 2.658 h -9.681 v -2.658 z m -6.4,6.924 h -2.658 v -2.625 h 2.658 z m -4.3,-17.449 -3.087,-2.307 h 3.087 z m -33.219,0.349 -0.014,-2.657 h 27.408 l 3.554,2.657 z m -0.041,-6.924 h 21.73 l 3.509,2.625 H 403.2 Z m -0.024,-4.267 h 16.047 l 3.511,2.626 h -19.541 l -0.015,-2.626 z m 26.391,-6.2 v -19.729 h 6.893 v 19.724 z m -4.3,0 v -19.729 h 2.66 v 19.724 z m 4.792,1.905 v 3.477 a 0.821,0.821 0 0 0 0.82,0.822 h 5.579 v 2.626 h -5.579 a 0.819,0.819 0 0 0 -0.82,0.82 v 2.608 L 416.2,671.89 Z m -26.908,0 h 10.326 l 3.553,2.657 h -13.862 l -0.014,-2.657 z m -12.247,-1.642 h -10.534 v -32.59 h 32.558 v 32.59 H 390.89 Z m -8.905,8.567 3.481,-2.626 h 16.057 l 0.015,2.626 z m 9.179,-6.925 h 10.331 l 0.015,2.657 h -13.865 l 3.522,-2.657 z m 21.748,-38.5 v 2.625 h -28.577 l -1.166,-2.625 z m -30.473,-1.642 -1.166,-2.625 h 31.639 v 2.625 z m 25.435,-19.756 h 2.906 v 3.48 a 0.822,0.822 0 0 0 0.82,0.82 h 1.312 v 7.021 l -5.038,-11.322 z m -0.731,-1.641 -5.494,-12.345 a 0.817,0.817 0 0 0 -0.749,-0.488 h -3.446 v -19.729 h 32.592 v 32.558 h -11.192 v -20.809 a 0.82,0.82 0 0 0 -0.819,-0.822 h -8.567 a 0.82,0.82 0 0 0 -0.819,0.822 v 20.809 z m -11.82,-59.41 v -2.658 h 13.326 v 2.658 z m -6.433,-4.3 v -19.723 h 6.925 v 19.723 z m 15.492,-19.723 v 19.723 h -6.926 v -19.723 z m -17.133,-0.822 v 20.545 h -2.626 v -32.458 h 24.026 v 32.458 h -2.627 V 526.1 a 0.82,0.82 0 0 0 -0.819,-0.82 h -17.133 a 0.821,0.821 0 0 0 -0.82,0.82 z m 20.338,-13.654 H 385.6 l 10.97,-13.812 11.016,13.812 z m -24.08,0 h -2.19 l 9.04,-11.365 a 0.788,0.788 0 0 0 0.278,-0.351 l 6,-7.544 15.4,19.359 h -2.2 a 1.165,1.165 0 0 0 -0.11,-0.048 l -12.517,-15.692 a 0.823,0.823 0 0 0 -0.641,-0.31 v 0 a 0.829,0.829 0 0 0 -0.642,0.312 L 383.5,512.447 Z m 11,-50.9 h -2.644 l 8.26,-11.224 13.618,-18.5 21.907,29.728 H 394.5 Z m -4.682,0 h -2.261 L 409.88,431.25 h 2.229 l -22.292,30.293 z m -6.527,0 22.322,-30.293 h 2.229 l -22.326,30.289 z m 18.429,-31.933 V 392.72 h 2.66 v 36.889 z m 6.926,-36.889 v 36.889 h -2.627 V 392.72 Z m 4.265,0 v 36.889 h -2.626 V 392.72 Z m -18.248,-1.642 v -19.73 h 44.173 v 2.626 h -7.975 a 0.816,0.816 0 0 0 -0.319,0.071 l -0.061,0.028 a 0.824,0.824 0 0 0 -0.247,0.2 l -0.014,0.011 -13.382,16.791 z m 5.416,38.531 h -2.626 V 392.72 h 2.626 v 36.889 z m -4.267,0 H 393.19 V 392.72 h 2.626 v 36.889 z m -7.333,10.5 h -2.233 l 6.531,-8.862 h 2.229 l -6.531,8.862 z m -6.5,0 6.539,-8.862 h 2.229 l -6.531,8.862 z m 6.912,-25.994 h 2.66 v 15.491 h -2.66 v -15.493 z m 0,-7.012 V 392.72 h 2.66 v 18.736 l -2.66,-4.349 z m 48.574,-44.319 h 9.681 v 2.625 h -9.681 z m 0.623,-4.268 h 2.658 v 2.627 h -2.658 v -2.628 z m 1.575,11.193 h -1.575 v -2.66 h 2.658 v 2.66 z m 7.483,1.641 v 2.626 h -6.67 v -2.626 z m 17.55,4.265 2.088,2.625 h -31.919 a 0.844,0.844 0 0 0 -0.186,0.038 l -2.117,-2.662 z m 4.662,0 h 7.745 v 3.445 a 0.82,0.82 0 0 0 0.82,0.82 h 3.446 v 3.48 a 0.819,0.819 0 0 0 0.82,0.819 h 3.446 v 3.448 a 0.821,0.821 0 0 0 0.82,0.82 h 3.48 v 2.625 h -10.846 l -3.031,-3.81 a 0.772,0.772 0 0 0 -0.2,-0.253 L 466.8,375.62 Z m 9.388,0 h 15.459 v 2.625 h -15.458 v -2.625 z m 16.278,4.265 h 3.446 v 2.66 h -15.458 v -2.66 z m 0.822,-4.265 h 36.857 v 15.457 h -24.024 v -3.445 a 0.82,0.82 0 0 0 -0.822,-0.82 h -3.445 v -3.446 a 0.82,0.82 0 0 0 -0.82,-0.82 h -3.48 v -3.48 a 0.82,0.82 0 0 0 -0.82,-0.82 h -3.446 z m 38.5,16.278 V 380 c 1.82,-5.859 4.211,-12.071 6.6,-18 5.041,12.608 9.751,25.43 9.751,34.3 a 9.609,9.609 0 0 1 -0.607,3.347 h -2.741 a 0.819,0.819 0 0 0 -0.82,0.82 v 3.446 H 543.9 V 398.4 a 2.953,2.953 0 0 0 -5.906,0 v 7.182 a 9.7,9.7 0 0 1 -1.266,-0.51 l -0.47,-0.744 a 0.646,0.646 0 0 0 -0.064,-0.075 0.677,0.677 0 0 0 -0.056,-0.07 0.754,0.754 0 0 0 -0.1,-0.077 0.821,0.821 0 0 0 -0.07,-0.05 0.771,0.771 0 0 0 -0.126,-0.053 c -0.022,-0.008 -0.045,-0.021 -0.068,-0.028 a 0.817,0.817 0 0 0 -0.211,-0.028 h -0.633 a 9.716,9.716 0 0 1 -3.73,-7.647 31.39,31.39 0 0 1 0.246,-3.578 h 2.084 a 0.82,0.82 0 0 0 0.82,-0.822 z m 22.578,9.386 q -0.526,1.306 -1.05,2.628 h -7.71 v -2.628 z m -4.46,-4.265 h 15.457 v 2.626 h -8.567 c -0.041,-0.1 -0.081,-0.205 -0.123,-0.307 a 0.822,0.822 0 0 0 -0.76,-0.514 v 0 a 0.821,0.821 0 0 0 -0.762,0.513 c -0.04,0.1 -0.082,0.205 -0.124,0.309 h -5.121 v -2.626 z m 16.278,4.265 h 5.614 v 2.628 h -5.614 a 0.819,0.819 0 0 0 -0.82,0.819 v 4.3 a 0.821,0.821 0 0 0 0.82,0.82 h 5.614 v 2.626 h -5.614 a 0.82,0.82 0 0 0 -0.82,0.82 v 4.267 a 0.821,0.821 0 0 0 0.82,0.82 h 5.614 v 2.658 h -5.614 a 0.821,0.821 0 0 0 -0.82,0.82 v 1.954 a 177.6,177.6 0 0 0 -6.222,-18.265 h 2.777 a 0.82,0.82 0 0 0 0.82,-0.822 v -3.446 z m 0.822,-4.265 h 15.459 v 2.626 h -15.463 v -2.626 z m 0,-17.133 h 2.625 v 15.492 h -2.625 z m 4.265,10.7 h 2.658 v 4.792 h -2.661 v -4.792 z m 0,-4.267 h 2.658 v 2.626 h -2.661 v -2.626 z m 4.3,-6.433 h 2.626 v 15.492 h -2.629 v -15.492 z m 4.266,10.7 h 2.627 v 4.792 H 582.4 v -4.792 z m 0,-4.267 h 2.627 v 2.626 H 582.4 v -2.626 z m 3.446,14.965 a 0.819,0.819 0 0 0 0.82,-0.819 v -3.446 h 3.48 a 0.819,0.819 0 0 0 0.819,-0.82 v -5.613 h 2.628 v 5.614 a 0.821,0.821 0 0 0 0.82,0.82 h 4.3 a 0.821,0.821 0 0 0 0.82,-0.82 v -5.613 h 2.627 v 5.613 a 0.819,0.819 0 0 0 0.819,0.82 h 4.267 a 0.821,0.821 0 0 0 0.82,-0.82 v -5.613 h 2.66 v 5.613 a 0.819,0.819 0 0 0 0.819,0.82 h 4.267 a 0.822,0.822 0 0 0 0.82,-0.82 v -5.613 h 2.626 v 5.613 a 0.82,0.82 0 0 0 0.82,0.82 h 4.3 a 0.82,0.82 0 0 0 0.82,-0.82 v -5.613 h 2.625 v 5.613 a 0.822,0.822 0 0 0 0.822,0.82 h 4.267 a 0.819,0.819 0 0 0 0.819,-0.82 v -12.015 h 2.66 v 3.448 a 0.821,0.821 0 0 0 0.822,0.82 h 3.445 v 3.447 a 0.821,0.821 0 0 0 0.82,0.822 h 3.448 v 3.478 a 0.82,0.82 0 0 0 0.819,0.82 h 8.456 l -9.69,15.851 a 0.82,0.82 0 0 0 0.7,1.248 h 3.448 v 29.541 l -4.087,-9.195 a 0.7,0.7 0 0 0 -0.08,-0.182 L 633.132,408.7 a 0.82,0.82 0 0 0 -0.75,-0.488 H 598.15 a 0.8,0.8 0 0 0 -0.5,0.2 0.7,0.7 0 0 0 -0.154,0.141 c -0.01,0.014 -0.025,0.02 -0.035,0.034 -0.01,0.014 -0.007,0.031 -0.016,0.043 a 0.778,0.778 0 0 0 -0.046,0.071 l -10.739,24.175 v -2.444 a 0.82,0.82 0 0 0 -0.82,-0.82 h -5.579 v -2.658 h 5.579 a 0.82,0.82 0 0 0 0.82,-0.82 v -4.267 a 0.82,0.82 0 0 0 -0.82,-0.82 h -5.579 v -2.658 h 5.579 a 0.82,0.82 0 0 0 0.82,-0.82 V 413.3 a 0.819,0.819 0 0 0 -0.82,-0.82 h -5.579 v -2.626 h 5.579 a 0.82,0.82 0 0 0 0.82,-0.82 v -4.3 a 0.819,0.819 0 0 0 -0.82,-0.819 h -5.579 v -2.628 z m 0.82,-21.4 h 2.66 v 15.492 h -2.66 v -15.49 z m 4.3,6.433 h 2.628 v 2.626 h -2.628 z m 0,-6.17 h 2.628 v 4.531 h -2.628 z m 4.267,0 h 2.66 v 15.229 h -2.66 v -15.227 z m 4.3,6.17 h 2.627 v 2.626 h -2.627 z m 0,-6.17 h 2.627 v 4.531 h -2.627 z m 0,-8.8 h 2.627 v 7.156 h -2.627 z m 6.891,8.8 v 15.229 H 603.8 v -15.227 z m -2.625,-1.9 v -6.892 h 2.625 v 6.892 z m -4.267,-19.463 h 6.891 v 10.931 h -6.891 v -10.933 z m 8.534,27.537 h 2.66 v 2.626 h -2.66 z m 0,-6.17 h 2.66 v 4.531 h -2.66 z m 0,-8.8 h 2.66 v 7.156 h -2.66 z m 6.924,8.8 v 15.229 h -2.625 v -15.231 z m -2.625,-1.9 v -6.892 h 2.625 v 6.892 z m -4.3,-19.463 h 6.924 v 10.931 h -6.924 v -10.937 z m 8.566,27.537 h 2.626 v 2.626 h -2.626 z m 0,-6.17 h 2.626 v 4.531 h -2.626 z m 4.267,0 h 2.658 v 15.229 h -2.658 v -15.235 z m 4.3,6.17 h 2.625 v 2.626 h -2.625 z m 0,-6.17 h 2.625 v 4.531 h -2.625 z m 4.268,0 h 2.626 v 15.229 h -2.626 v -15.235 z m 4.264,0 h 15.491 v 2.4 h -15.494 v -2.4 z m 0,-21.629 h 6.926 v 19.726 h -6.926 V 358.52 Z m 8.567,0 h 6.926 v 19.726 h -6.926 V 358.52 Z m 11.193,25.665 v 2.628 h -15.461 v -2.628 h 15.459 z m -2.627,-5.119 v -7.712 h 9.583 v 3.44 a 0.821,0.821 0 0 0 0.82,0.822 h 3.446 v 3.445 a 0.813,0.813 0 0 0 0.168,0.492 l -5.484,8.971 v -0.9 a 0.819,0.819 0 0 0 -0.819,-0.82 h -3.448 v -3.446 a 0.819,0.819 0 0 0 -0.819,-0.82 h -3.448 v -3.48 z m 11.225,-7.712 h 15.459 v 2.626 h -15.462 v -2.626 z m 57.533,4.267 1.6,2.625 h -49.404 l -1.606,-2.625 z m -40.434,-4.267 h 36.857 v 2.626 h -36.859 v -2.626 z m 38.5,0 h 10.14 v 14.54 l -7.045,-11.527 a 0.817,0.817 0 0 0 -0.7,-0.391 h -2.394 v -2.626 z m 11.385,19.724 H 679.66 l -1.607,-2.625 h 49.408 l 1.607,2.625 z m -4.215,-6.893 1.606,2.628 h -49.409 l -1.606,-2.628 z m -50.408,-1.639 -1.625,-2.66 h 49.407 l 1.624,2.66 z m -8.093,-5.4 v -1.532 h 0.934 l -0.934,1.525 z m -20.615,13.926 h -3.446 v -2.625 h 15.459 v 2.625 z m 0.82,1.642 h 10.271 l -1.624,2.658 h -8.647 z m 34.49,3.779 a 0.7,0.7 0 0 0 0.087,0.14 l 9.681,15.839 h -2.375 L 669.451,380.81 a 0.819,0.819 0 0 0 -1.406,0 l -19.028,31.668 h -2.34 l 22.071,-36.105 1.835,3 a 0.773,0.773 0 0 0 0.052,0.087 l 2.572,4.207 a 0.834,0.834 0 0 0 0.082,0.134 l 5.136,8.4 a 0.782,0.782 0 0 0 0.057,0.094 l 2.568,4.2 z m 10.411,51.85 v 11.694 l -1.351,1.835 a 0.821,0.821 0 0 0 0.661,1.307 h 0.69 v 0.623 H 688.8 v -15.459 z m -38.5,6.435 v 2.623 H 650.3 v -2.623 z m 0,-6.435 v 4.792 H 650.3 v -4.792 z m 4.267,0 v 15.459 H 654.6 v -15.459 z m 18.74,4.792 v -4.792 h 2.661 v 4.792 z m 0,1.642 h 2.661 v 2.623 h -2.661 z m -8.532,-1.642 v -4.792 h 2.625 v 4.792 z m 0,1.642 h 2.625 v 2.623 h -2.625 z m -5.94,0 v 2.623 h -2.626 v -2.623 z m -2.626,-1.642 v -4.792 h 2.626 v 4.792 z m 6.925,-4.792 v 15.459 h -2.66 v -15.459 z m -3.48,-1.641 H 661 v -19.757 h 6.926 v 19.758 h -5.614 z m 12.014,1.641 v 15.459 H 671.7 v -15.459 z m -3.447,-1.641 h -1.314 v -19.757 h 6.927 v 19.758 h -5.613 z m 12.014,1.641 v 15.459 h -2.629 v -15.459 z m 4.264,6.435 v 2.623 h -2.625 v -2.623 z m -2.625,-1.642 v -4.792 h 2.625 v 4.792 z m -33.6,-40.664 17.815,-29.651 17.784,29.651 z m 36.227,1.641 v 32.59 h -9.024 V 426.13 a 0.821,0.821 0 0 0 -0.82,-0.82 h -17.137 a 0.819,0.819 0 0 0 -0.819,0.82 v 20.578 H 650.3 v -32.59 z m 5.938,50.511 v -1.445 h 1.149 v 25.467 l -1.045,-1.312 a 0.832,0.832 0 0 0 -0.2,-0.257 l -10.123,-12.725 a 0.815,0.815 0 0 0 -0.64,-0.309 h -34.236 a 0.836,0.836 0 0 0 -0.32,0.073 0.588,0.588 0 0 0 -0.06,0.028 0.834,0.834 0 0 0 -0.249,0.2 l -0.014,0.01 -1.328,1.666 V 465.45 h 3.446 a 0.821,0.821 0 0 0 0.822,-0.82 v -5.581 h 2.657 v 5.581 a 0.821,0.821 0 0 0 0.822,0.82 h 4.267 a 0.821,0.821 0 0 0 0.82,-0.82 v -5.581 h 2.626 v 5.581 a 0.819,0.819 0 0 0 0.819,0.82 h 4.3 a 0.821,0.821 0 0 0 0.82,-0.82 v -5.581 h 2.625 v 5.581 a 0.821,0.821 0 0 0 0.822,0.82 h 4.267 a 0.819,0.819 0 0 0 0.819,-0.82 v -5.581 h 2.661 v 5.581 a 0.819,0.819 0 0 0 0.819,0.82 h 4.267 a 0.82,0.82 0 0 0 0.82,-0.82 v -5.581 h 2.625 v 5.581 a 0.821,0.821 0 0 0 0.82,0.82 h 4.3 a 0.821,0.821 0 0 0 0.82,-0.82 z m 21.616,-33.38 h 2.261 l -22.322,30.293 h -2.263 z M 693.1,454.784 h 2.236 l -1.933,2.623 h -0.3 v -2.623 z m 0,-6.435 h 2.625 v 4.792 H 693.1 Z m 4.267,0 h 2.626 v 0.116 l -2.626,3.564 z m 23.878,-17.1 -6.53,8.862 h -2.229 l 6.53,-8.862 z m 4.267,0 -6.53,8.862 h -2.229 l 6.528,-8.862 z m 4.3,0 -6.531,8.862 h -2.261 l 6.532,-8.862 z m -2.446,10.5 v 6.925 h -6.925 v -6.925 z m 0,15.491 h -6.925 v -6.925 h 6.925 z m -2.777,4.3 h -2.229 l 1.958,-2.657 h 2.229 z m -4.267,0 h -2.261 l 1.958,-2.657 h 2.26 z m -4.3,0 h -2.229 l 1.958,-2.657 h 2.228 z m -4.148,-12.865 v -6.925 h 6.926 v 6.925 z m 6.924,1.641 v 6.925 h -6.924 v -6.925 z m -7.042,11.224 h -2.228 l 1.958,-2.657 h 2.228 z m -6.53,0 5.006,-6.794 v 3.069 l -2.743,3.725 z m -4.265,0 9.272,-12.582 v 3.024 l -7.042,9.558 z m -4.267,0 13.538,-18.373 v 3.024 l -11.311,15.348 z m 0.941,34 h -2.145 a 0.8,0.8 0 0 0 -0.421,-0.131 H 665.4 l -2.088,-2.626 h 32.133 l 2.193,2.757 z m 11.209,1.87 -5.266,6.622 a 0.786,0.786 0 0 0 -0.312,0.391 l -6.7,8.426 a 0.822,0.822 0 0 0 0.643,1.333 h 3.445 v 33.278 a 0.915,0.915 0 0 0 0.017,0.11 l -3.894,2.936 a 0.815,0.815 0 0 0 -0.323,0.246 l -5.372,4.053 a 0.785,0.785 0 0 0 -0.351,0.264 l -1.487,1.122 a 10.945,10.945 0 0 0 0.087,-1.346 c 0,-6.421 -2.4,-14.887 -5.515,-23.566 h 11.259 a 0.82,0.82 0 0 0 0.82,-0.82 v -33.05 z m -5.786,50.414 h 10.332 l 0.014,2.625 h -13.828 l 3.48,-2.625 z m 10.371,6.924 H 693.877 L 697.4,552.1 h 16.012 l 0.015,2.657 z m 0.025,4.267 H 688.221 L 691.7,556.4 h 21.738 l 0.015,2.625 z m 0.025,4.3 H 682.52 l 3.523,-2.66 h 27.418 l 0.017,2.66 z m 0,34.2 h -6.925 v -20.804 a 0.821,0.821 0 0 0 -0.822,-0.82 h -17.1 a 0.82,0.82 0 0 0 -0.819,0.82 v 3.709 h -6.923 v -15.458 h 32.592 v 32.557 z m -15.46,-0.263 v -19.72 h 6.893 v 19.724 z m 0,21.66 v -14.518 l 2.626,5.913 v 8.609 z m -5.94,-27.9 v 27.9 h -2.626 v -33.805 l 2.626,5.913 z m 4.3,9.68 v 18.216 h -2.658 v -24.2 l 2.658,5.986 z m -6.926,-19.637 v -3.53 h 6.926 v 19.129 l -6.926,-15.6 z m 7.747,72.086 h -3.479 v -20.833 a 0.822,0.822 0 0 0 -0.822,-0.82 h -8.534 a 0.819,0.819 0 0 0 -0.819,0.82 v 20.841 h -6.928 v -32.59 h 24.026 v 32.59 z m 0.819,6.4 v -4.757 h 2.626 v 4.757 z m 0,4.3 v -2.66 h 2.626 v 2.66 z m 0,2.133 v -0.491 h 2.626 v 1.117 l -0.243,-0.307 -0.02,-0.018 c -0.02,-0.022 -0.041,-0.039 -0.06,-0.059 a 0.609,0.609 0 0 0 -0.08,-0.067 0.814,0.814 0 0 0 -0.484,-0.165 z m -4.3,0 v -11.183 h 2.658 v 11.191 z m -5.907,-11.191 v 11.191 h -2.628 v -11.183 z m -2.628,-1.9 v -19.755 h 6.893 v 19.759 z m 4.267,6.661 v -4.757 h 2.626 v 4.757 z m 2.626,5.943 v 0.491 h -2.626 v -0.491 z m -2.626,-1.642 v -2.66 h 2.626 v 2.66 z m -5.906,1.642 v 0.491 h -2.66 v -0.491 z m -2.66,-5.943 v -4.757 h 2.66 v 4.757 z m 2.66,1.641 v 2.66 h -2.66 v -2.66 z m -19.712,9.059 2.088,-2.625 h 32.139 l -2.113,2.657 a 0.888,0.888 0 0 0 -0.221,-0.032 z m -3.418,4.3 2.113,-2.657 h 32.133 l -2.113,2.657 z m -3.4,4.268 2.089,-2.626 h 32.133 l -2.088,2.626 z m -1.305,1.641 h 32.135 l -2.088,2.625 h -32.125 l 2.087,-2.625 z m -9.847,-8.566 a 0.82,0.82 0 0 0 0.82,-0.82 v -5.579 h 2.626 v 5.579 a 0.82,0.82 0 0 0 0.82,0.82 h 4.268 a 0.822,0.822 0 0 0 0.82,-0.82 v -5.579 h 2.657 v 5.579 a 0.821,0.821 0 0 0 0.82,0.82 h 1.732 l -5.609,7.051 a 0.809,0.809 0 0 0 -0.34,0.426 l -3.632,4.566 -8.023,-12.043 z m -3.479,-17.1 h 2.66 v 15.457 h -2.66 V 654.791 Z M 576,595.451 v -5.645 h 5.35 v 5.645 z m 5.35,1.642 v 5.644 H 576 v -5.644 z m -10.629,7.286 h 11.45 a 0.821,0.821 0 0 0 0.82,-0.82 v -14.573 a 0.82,0.82 0 0 0 -0.82,-0.82 h -13.954 a 0.819,0.819 0 0 0 -0.819,0.82 v 13.977 a 13.431,13.431 0 0 0 -3.119,-0.467 V 567 h 39.811 v 39.81 h -30.376 a 13.438,13.438 0 0 0 -3,-2.428 z m -1.68,-8.928 v -5.645 h 5.319 v 5.645 z m 5.319,1.642 v 5.644 h -5.319 v -5.644 z m -12,-34.4 h 39.512 l -1.674,2.658 h -39.52 l 1.676,-2.658 z m -15.162,-15.825 a 0.815,0.815 0 0 0 -0.194,-0.317 l -6.985,-11.427 h 74.613 a 13.451,13.451 0 0 0 -1.973,4.562 h -37.286 a 0.827,0.827 0 0 0 -0.695,0.382 l -16.065,25.485 -11.421,-18.684 z m -38.64,20.813 -1.6,-2.625 h 49.438 l 1.6,2.625 h -49.44 z m -15.214,17 2.088,-2.623 h 32.133 l -2.126,2.665 a 0.819,0.819 0 0 0 -0.21,-0.042 z m -3.42,4.3 2.113,-2.658 h 32.126 l -2.119,2.658 z m -3.395,4.267 2.088,-2.625 h 32.113 l -2.092,2.625 z m -1.307,1.641 h 32.115 l -2.094,2.626 h -32.11 l 2.088,-2.626 z m -7.683,7.023 h -0.688 v -19.754 h 6.926 v 11.916 l -6.239,7.842 z m -11.617,9.007 v -7.365 h 15.459 v 30.569 l -15.459,-23.2 z m -26.924,1.069 16.002,24.028 h -2.3 l -16.037,-24.023 z m -7.307,-34.2 h 32.59 v 32.558 h -32.59 v -32.552 z m -16.417,-25.665 h 2.326 l 16,24.028 h -2.3 l -16.036,-24.023 z m 1.944,-11 v 9.361 h -3.48 a 0.828,0.828 0 0 0 -0.212,0.029 0.49,0.49 0 0 0 -0.057,0.024 0.728,0.728 0 0 0 -0.136,0.057 1.711,1.711 0 0 0 -0.166,0.127 0.635,0.635 0 0 0 -0.056,0.066 0.578,0.578 0 0 0 -0.055,0.063 l -4.9,7.35 v -5.614 h 1.312 a 0.82,0.82 0 0 0 0.82,-0.82 v -16.003 a 11.444,11.444 0 0 0 6.926,5.363 z m -6.926,-21.633 v -5.3 h 1.456 c -0.548,1.809 -1.038,3.582 -1.456,5.3 z m 3.168,-5.3 h 0.278 a 0.07,0.07 0 0 1 0.024,0 0.822,0.822 0 0 0 0.521,-1.456 l -0.26,-0.327 c 1.586,-4.907 3.536,-10.026 5.515,-14.989 h 1.262 c 4.633,11.62 9.114,24.107 9.114,32.689 a 9.785,9.785 0 0 1 -6.8,9.313 v -7.671 a 2.434,2.434 0 0 0 -2.461,-2.463 h -0.984 a 2.434,2.434 0 0 0 -2.461,2.463 v 7.671 a 9.785,9.785 0 0 1 -6.8,-9.313 c 0,-4.471 1.216,-10 3.037,-15.917 z m -8.26,-16.774 h 12.566 c -1.768,4.453 -3.5,9.02 -4.97,13.455 l -10.7,-13.455 z m 7.712,-21.4 v 19.758 h -6.893 v -19.757 z m 8.567,0 V 494.7 q -0.277,-0.685 -0.553,-1.367 a 0.855,0.855 0 0 0 -1.521,0 q -0.491,1.212 -0.984,2.442 h -3.869 v -19.758 z m 6.433,21.4 v 14.6 c -1.543,-4.791 -3.426,-9.766 -5.346,-14.6 z m 4.265,-7.832 -4.123,6.189 v 0 h -4.933 V 475.2 a 0.819,0.819 0 0 0 -0.819,-0.82 H 405.2 a 0.819,0.819 0 0 0 -0.82,0.82 v 20.578 h -3.59 l -3.513,-4.416 -0.015,-0.013 a 0.816,0.816 0 0 0 -0.628,-0.3 h -1.314 v -27.864 h 36.857 v 26.4 z m 14.092,-18.194 h 2.3 l -16.007,24.025 h -2.295 l 16.005,-24.025 z m -10.317,-8.205 h 1.312 a 0.063,0.063 0 0 1 0.022,0 0.823,0.823 0 0 0 0.544,-1.438 l -1.878,-2.548 v -10.85 h 2.658 v 15.459 h -2.658 z m -18.74,-66.068 v 32.492 h -2.66 v -32.492 z m -2.66,-3.166 v -1.231 h 0.981 z m 28.325,3.166 v 32.492 h -24.026 v -32.492 z m -6.012,-13.456 a 0.8,0.8 0 0 0 0.28,0.352 l 9.04,11.365 h -28.153 a 0.817,0.817 0 0 0 -0.372,0.1 h -2.226 l 15.431,-19.359 6,7.544 z m 1.209,-1.115 -2.115,-2.66 h 32.135 l 2.115,2.66 z m 3.395,4.267 -2.089,-2.628 h 32.135 l 2.089,2.628 z m 3.393,4.265 -2.089,-2.625 h 32.135 l 2.092,2.625 z m 35.633,4.4 H 478.3 a 0.813,0.813 0 0 0 -0.372,-0.1 h -29.646 l -2.116,-2.658 H 478.3 l 2.193,2.756 z m 0.88,-1.529 -0.977,-1.227 h 0.977 z m -2.625,14.264 v -11.096 h 2.625 v 11.094 z m 11.192,0 h -2.66 V 392.72 h 2.66 v 15.491 z m 38.752,5.908 -0.992,1.574 -0.683,1.085 h -39.513 l 1.676,-2.658 z m -36.822,-4.267 h 39.513 l -1.656,2.626 h -39.513 z m 10.9,-23.039 h -15.489 v -2.628 h 15.492 v 2.628 z m 4.267,4.265 h -15.456 v -2.625 h 15.459 v 2.625 z m -2.626,12.866 V 392.72 h 2.626 v 11.224 z m -4.3,0 V 392.72 h 2.66 v 11.224 z m -4.265,0 V 392.72 h 2.625 v 11.224 z m -4.267,3.29 V 392.72 h 2.626 v 11.224 h -0.1 a 0.818,0.818 0 0 0 -0.695,0.383 l -1.832,2.907 z m 56.763,19.3 q -0.359,1.57 -0.623,3.07 h -26.853 l 1.862,-2.953 a 0.8,0.8 0 0 0 0.133,-0.21 l 2.868,-4.551 9.832,-15.594 12.784,20.237 z m -6.089,-21.808 v 3.48 h -2.626 V 398.4 a 1.313,1.313 0 0 1 2.626,0 v 6.334 z m 11.329,5.121 q -0.491,1.314 -0.964,2.626 H 541.4 l -1.659,-2.626 h 13.84 z m 0.619,-1.641 H 543.9 v -2.658 h 11.333 q -0.52,1.325 -1.026,2.658 z m -11.763,5.908 h 9.6 c -1.223,3.493 -2.309,6.932 -3.153,10.2 l -6.444,-10.2 z m 26.3,29.964 h 5.614 v 2.626 h -5.614 a 0.82,0.82 0 0 0 -0.82,0.82 v 4.274 a 0.821,0.821 0 0 0 0.82,0.82 h 15.76 v 3.841 H 561.423 V 447.1 a 11.437,11.437 0 0 0 6.5,-4.657 v 0.823 a 0.82,0.82 0 0 0 0.82,0.82 z m 5.614,-17.132 v 2.658 h -5.138 q -0.231,-1.3 -0.532,-2.664 c 0.02,0 0.038,0.006 0.056,0.006 z m 4.267,2.658 H 576 v -2.658 h 2.627 v 2.658 z m 6.4,4.267 h -15.253 q -0.073,-0.977 -0.2,-2 v -0.625 h 15.459 v 2.626 z m -0.7,4.267 h -4.06 v -2.626 h 5.225 l -1.166,2.626 z m 29.664,8.566 h -2.471 l -12.55,-28.263 a 0.821,0.821 0 0 0 -1.5,0 L 584.9,446.709 h -2.587 l 15.836,-35.657 15.836,35.657 z m -13.341,-34.231 c -0.021,0 -0.039,0.011 -0.06,0.013 l -1.172,-2.639 h 32.438 l 1.164,2.626 z m 1.843,4.3 -1.182,-2.658 h 32.439 l 1.18,2.658 z m 1.93,4.267 c -0.01,0 -0.02,0.006 -0.031,0.007 l -1.17,-2.633 h 31.855 a 0.81,0.81 0 0 0 0.5,-0.185 l 1.247,2.811 z m 1.9,4.267 a 0.335,0.335 0 0 0 -0.041,0.008 l -1.17,-2.634 h 32.435 l 1.167,2.626 z m 1.864,4.3 -1.18,-2.658 h 32.434 l 1.184,2.658 z m 1.9,4.267 -1.166,-2.626 h 32.195 a 0.775,0.775 0 0 0 0.221,-0.045 l 1.188,2.671 z m 1.9,4.267 -1.167,-2.626 h 32.437 l 1.166,2.626 z m 1.909,4.3 -0.147,-0.327 -1.034,-2.331 h 32.437 l 1.181,2.658 z m 66.677,80.28 h 5.933 a 0.82,0.82 0 0 0 0.82,-0.822 v -12.834 a 0.82,0.82 0 0 0 -0.82,-0.82 h -17.13 a 0.821,0.821 0 0 0 -0.82,0.82 V 521.9 a 0.821,0.821 0 0 0 0.82,0.822 h 5.949 c -0.91,2.32 -1.8,4.634 -2.637,6.924 h -11.025 v -32.459 h 32.592 v 32.459 h -11.036 c -0.85,-2.313 -1.743,-4.632 -2.647,-6.924 z m -1.808,-4.521 v -8.311 h 6.925 v 11.189 h -5.769 c -0.386,-0.966 -0.771,-1.927 -1.156,-2.878 z m -2.79,2.878 h -5.776 v -11.191 h 6.924 v 8.311 q -0.577,1.436 -1.147,2.876 z m -9.269,97.836 h -2.472 l 16.37,-36.854 h 2.5 l -16.4,36.854 z m 6.094,0 2.19,-4.916 v 4.914 z m -29.01,-6.176 -1.4,3.136 v -3.128 h 1.316 c 0.029,0 0.056,-0.007 0.084,-0.008 z M 633,599.161 a 0.821,0.821 0 0 0 0.82,-0.822 v -5.581 h 2.66 v 5.581 a 0.822,0.822 0 0 0 0.82,0.822 h 4.267 a 0.822,0.822 0 0 0 0.82,-0.822 v -5.581 h 2.66 v 5.581 a 0.817,0.817 0 0 0 0.521,0.763 l -3.421,7.7 H 629.56 v -7.645 z m -0.82,-17.1 v 15.457 h -2.62 v -15.456 z m 4.3,6.4 v 2.657 h -2.66 v -2.657 z m -2.66,-1.644 v -4.756 h 2.66 v 4.756 z m 6.925,-4.756 v 15.457 h -2.626 v -15.456 z m 4.3,6.4 v 2.657 h -2.66 v -2.657 z m -2.66,-1.644 v -4.756 h 2.66 v 4.756 z m -5.68,-49.786 h 5.055 q -2.956,3.211 -5.919,6.425 -3.589,3.891 -7.174,7.786 h -4.113 l -0.383,-0.607 12.534,-13.6 z m -9.648,7.251 v 0.8 l -2.626,2.85 v -3.648 a 0.822,0.822 0 0 1 0.822,-0.819 h 0.984 a 0.82,0.82 0 0 1 0.82,0.819 z m -7.733,-13.454 a 13.489,13.489 0 0 0 -3.46,2.718 v -2.718 z m -46.225,0 h 2.626 v 2.657 h -2.626 z m -34.1,2.657 -0.134,-0.217 v -2.44 h 2.635 v 2.657 z m -48.73,4.268 -1.6,-2.626 h 49.412 l 1.6,2.626 z m 2.605,4.267 -1.6,-2.625 H 540.7 l 1.6,2.625 z m 2.625,4.3 -1.623,-2.658 h 49.419 l 1.625,2.658 z m 2.6,4.266 -1.6,-2.625 h 49.424 l 1.6,2.625 z m 2.6,4.268 -1.6,-2.626 h 49.428 l 1.6,2.626 z m 2.625,4.3 -1.621,-2.657 h 49.43 l 1.624,2.657 z m 2.878,4.267 a 0.825,0.825 0 0 0 -0.243,0.049 l -1.632,-2.674 h 49.453 l 1.6,2.625 z m -45.25,5.9 c 0.029,0 0.059,0.013 0.089,0.013 h 3.459 v 5.284 l -3.534,-5.3 z m -15.74,-17.185 h 2.295 l 16.036,24.023 h -2.326 z m -4.267,0 h 2.295 l 16.005,24.023 h -2.295 z m -4.3,0 h 2.326 L 455,576.151 h -2.3 l -16.036,-24.023 z m -4.268,0 h 2.295 l 16.037,24.023 H 448.4 l -16,-24.031 z m -0.911,-20.842 h 0.69 v 19.2 h -2.626 v -13.947 a 11.334,11.334 0 0 0 1.936,-5.26 z m 4.957,-12.833 v 2.625 h -6.032 q -0.283,-1.289 -0.626,-2.625 z m 0,-4.266 v 2.625 h -6.893 v -2.625 z m 0,-4.3 v 2.657 h -6.893 v -2.657 z m 18.772,2.657 v -2.657 h 6.893 v 2.657 z m 0,4.267 v -2.625 h 6.893 v 2.625 z m 0,4.265 v -2.625 h 6.893 v 2.625 z m -8.566,-0.261 v -10.934 h 6.925 v 10.928 z m -8.566,0 v -10.934 h 6.925 v 10.928 z m -6.892,4.56 c -0.119,-0.862 -0.268,-1.75 -0.443,-2.655 h 31.359 v 2.655 z m 5.251,5.909 v 19.2 h -2.626 v -19.2 z m 4.3,0 v 19.2 h -2.658 v -19.2 z m 4.267,0 v 19.2 h -2.626 v -19.2 z m 4.267,0 V 551.8 l -0.63,-0.943 a 0.817,0.817 0 0 0 -0.682,-0.366 h -1.314 v -19.2 z m 4.3,0 v 26.95 l -2.658,-3.983 v -22.973 z m 4.267,0 v 33.342 l -2.626,-3.934 v -29.414 z m 4.267,0 v 33.928 l -1.75,2.864 a 0.792,0.792 0 0 0 -0.085,0.193 l -0.791,-1.184 v -35.8 z m -30.564,-1.641 q -0.021,-1.266 -0.156,-2.626 h 30.72 v 2.626 z m 30.564,-24.025 v 2.626 h -32.539 v -2.626 z m 0,-4.265 v 2.623 h -32.539 v -2.623 z m 0,-4.3 v 2.658 h -32.539 v -2.3 H 433 a 0.817,0.817 0 0 0 0.679,-0.361 z m -25.284,-1.641 h -2.295 l 16.005,-24.025 h 2.327 z m 4.3,0 H 438.8 l 16.036,-24.025 h 2.3 l -16.005,24.025 z m 4.267,0 h -2.3 L 459.1,471.39 h 2.3 l -16,24.025 z m 4.265,0 h -2.295 l 16.005,-24.025 h 2.352 l -16.037,24.025 z m 4.3,0 h -2.326 l 16.037,-24.025 h 2.295 l -16.007,24.025 z m 4.268,0 h -2.3 l 16.007,-24.025 h 2.295 l -16.005,24.025 z m 11.035,-10.141 -6.77,10.141 H 460.2 l 16,-24.03 h 2.327 l -9.267,13.884 z m 26.368,10.141 h -31.145 l 8.617,-12.911 6.98,-10.455 15.568,23.366 z M 478.73,448.355 h 2.625 v 15.459 h -2.625 v -15.465 z m 4.757,24.353 v 1.56 l -1.04,-1.56 z m 39.352,-1.642 h -22.724 v -0.491 a 0.82,0.82 0 0 0 -0.82,-0.82 h -14.967 a 0.821,0.821 0 0 0 -0.82,0.82 v 0.491 h -0.492 V 431.25 h 39.844 v 39.81 z m -14.915,27.309 q -0.3,0.239 -0.576,0.495 v -0.495 z M 522.86,494.1 v 2.625 h -0.507 a 13.415,13.415 0 0 0 -11.85,0 H 507.37 V 494.1 Z m 0,-4.265 v 2.623 h -15.491 v -2.623 z m 0,-4.3 v 2.66 h -15.491 v -2.66 z m 0,-4.265 v 2.625 h -15.491 v -2.625 z m -15.491,-5.941 V 472.7 h 15.491 v 2.626 z m 15.491,1.642 v 2.657 h -15.491 v -2.658 z m 5.383,31.833 a 11.849,11.849 0 0 1 -8.862,11.457 v -9.815 a 2.465,2.465 0 0 0 -2.461,-2.463 h -0.984 a 2.465,2.465 0 0 0 -2.463,2.463 v 9.815 a 11.822,11.822 0 1 1 14.77,-11.457 z m 16.522,-36.1 -13.842,22.645 a 0.82,0.82 0 0 0 0.7,1.249 h 3.48 v 15.489 h -3.709 a 0.822,0.822 0 0 0 -0.82,0.82 v 16.279 h -2.626 v -13.434 a 13.438,13.438 0 0 0 -3.445,-17.706 V 472.7 Z m 1.891,-3.091 -0.887,1.449 H 524.5 V 431.25 h 22.155 v 38.361 z m -14.443,59.575 v -15.46 h 2.626 v 15.457 z m -8.566,0 v -9.031 a 13.534,13.534 0 0 0 2.658,-2.225 v 11.256 z m -4.267,0 v -7.248 a 13.448,13.448 0 0 0 2.626,-0.889 v 8.137 z m -4.267,0 v -18.74 a 0.823,0.823 0 0 1 0.822,-0.82 h 0.984 a 0.823,0.823 0 0 1 0.82,0.82 v 18.74 z m -4.3,0 v -8.151 a 13.442,13.442 0 0 0 2.658,0.9 v 7.248 z m -4.267,0 V 517.93 a 13.554,13.554 0 0 0 2.626,2.2 v 9.052 z m -9.386,1.642 h 38.3 l 1.625,2.657 h -49.41 l -1.623,-2.657 z m -0.82,-42.306 v 5 l -3.332,-5 z m 0,-4.3 v 2.655 h -4.426 l -1.771,-2.655 z m 0,-4.267 v 2.625 h -7.291 l -1.748,-2.625 z m -9.059,-4.268 h 9.059 v 2.626 h -9.059 z m 13.358,38.04 v 15.457 h -2.658 v -15.458 z m 0.82,-1.642 h -3.479 v -15.738 a 0.3,0.3 0 0 0 0,-0.226 v -20.434 h 1.32 a 0.819,0.819 0 0 0 0.82,-0.82 V 472.7 h 5.613 v 27.954 a 13.426,13.426 0 0 0 -0.82,15.094 v 13.435 h -2.626 v -16.277 a 0.821,0.821 0 0 0 -0.82,-0.82 z m -15.819,-36.4 v 1.776 l -1.182,-1.776 z m -0.492,-1.641 v -2.656 h 13.325 v 2.658 H 485.15 Z m -10.7,55.336 v -19.757 h 6.925 v 19.759 z m 8.4,1.9 -19.1,31.244 v -31.24 z m 2.794,-21.661 v 19.561 h -1.051 a 0.826,0.826 0 0 0 -0.407,0.112 0.409,0.409 0 0 0 -0.091,0.087 h -1.078 v -19.756 z m -3.446,-1.642 h -8.566 a 0.82,0.82 0 0 0 -0.82,0.82 v 20.842 h -9.06 v -32.59 h 32.592 v 32.131 h -9.059 V 508.8 a 0.82,0.82 0 0 0 -0.82,-0.82 z m 90.776,-13.028 h -35.6 l 17.786,-29.65 17.815,29.65 z M 605.9,452.616 v 2.658 h -15.495 v -2.658 z m -45.044,12.406 -1.6,-2.625 h 49.437 l 1.6,2.625 z m 52.039,4.267 h -49.437 l -1.6,-2.625 h 49.434 l 1.6,2.625 z m 9.033,11.65 -4.128,-6.766 a 0.809,0.809 0 0 0 -0.222,-0.365 l -2.453,-4.019 -0.006,-0.007 -3.312,-5.425 v -16.008 h 32.59 v 29.735 l -2.275,2.855 z m 8.768,14.338 a 0.7,0.7 0 0 0 -0.059,-0.071 l -2.451,-4.012 a 0.053,0.053 0 0 0 -0.013,-0.021 l -5.242,-8.591 h 17.882 l -10.117,12.7 z m -3.736,-2.948 1.6,2.625 h -49.41 l -1.6,-2.625 z m -2.605,-4.267 1.6,2.625 h -49.171 a 0.75,0.75 0 0 0 -0.217,0.046 l -1.632,-2.671 z m -2.625,-4.3 1.621,2.658 H 573.93 l -1.623,-2.658 z m -2.605,-4.267 1.6,2.626 H 571.3 l -1.6,-2.626 z m -53.033,-5.909 -1.627,-2.658 h 49.43 l 1.624,2.658 z m 50.429,1.642 1.6,2.623 h -49.426 l -1.6,-2.623 z m 36.277,76.012 12.7,-13.821 12.7,13.821 z m 23.541,30.82 h 2.472 l -16.371,36.854 h -2.471 z m -4.265,0 h 2.469 l -16.37,36.854 h -2.5 l 16.4,-36.854 z m -4.3,0 h 2.5 l -16.4,36.854 H 651.4 l 16.37,-36.854 z m -4.264,0 h 2.47 l -16.38,36.856 h -2.468 l 16.37,-36.854 z m -2.045,-1.642 v -15.391 a 4.0385,4.0385 0 0 1 8.077,0 v 15.393 h -8.082 z m -2.224,1.642 h 2.472 l -16.37,36.854 h -2.5 l 16.4,-36.854 z m -8.278,0 h 2.184 l -2.184,4.917 z m 7.614,-45.03 h 5.056 l -13.065,14.211 h -5.057 l 13.065,-14.211 z m -22.579,14.211 h -5.086 q 3.069,-3.337 6.146,-6.675 3.476,-3.767 6.945,-7.536 h 5.059 l -13.065,14.211 z M 651.29,537.03 h 5.058 l -13.068,14.212 h -5.058 l 13.063,-14.211 z m -4.594,59.552 v -14.52 h 2.626 v 8.612 l -2.626,5.91 z m 8.247,-14.522 h 2.5 l -12.914,29.022 v -3.456 a 0.817,0.817 0 0 0 -0.594,-0.785 l 11.007,-24.781 z m 24.307,-17.43 v 15.79 h -8.075 v -15.393 a 5.677,5.677 0 1 0 -11.354,0 v 15.393 h -8.075 v -27.537 h 27.5 v 10.77 a 0.811,0.811 0 0 0 0,0.977 z m -32.065,-54.741 v 19.756 h -6.925 v -19.756 z m 8.534,0 v 19.756 h -6.893 v -19.756 z m -18.641,-14.475 10.961,-13.78 11,13.78 z m 22.94,1.772 v 32.459 h -2.66 v -20.578 a 0.819,0.819 0 0 0 -0.819,-0.82 h -17.1 a 0.821,0.821 0 0 0 -0.822,0.82 v 20.578 h -2.625 v -32.458 z m -24.845,34.1 h 36.912 c -0.976,2.724 -1.877,5.4 -2.654,7.989 l -3.329,-3.62 c -0.006,-0.008 -0.017,-0.01 -0.024,-0.018 a 0.847,0.847 0 0 0 -0.239,-0.165 l -0.022,-0.01 a 0.8,0.8 0 0 0 -0.317,-0.073 h -28.42 a 13.463,13.463 0 0 0 -10.507,-6.177 V 496.6 h 3.448 a 0.06,0.06 0 0 1 0.022,0 c 0.018,0 0.032,0 0.049,-0.006 a 0.768,0.768 0 0 0 0.042,0.133 0.826,0.826 0 0 0 0.739,0.463 h 3.479 v 33.279 a 0.82,0.82 0 0 0 0.822,0.82 z M 586.7,446.709 598.216,420.8 l 11.505,25.908 z m 23.464,1.641 v 13.322 l -2.942,-4.82 c -0.017,-0.027 -0.038,-0.046 -0.056,-0.07 a 0.817,0.817 0 0 0 0.373,-0.686 v -4.3 a 0.822,0.822 0 0 0 -0.822,-0.82 h -17.132 a 0.82,0.82 0 0 0 -0.82,0.82 v 4.3 a 0.814,0.814 0 0 0 0.087,0.362 h -2.713 v -8.107 z m -29.112,0 h 3.448 v 2.626 H 569.564 V 448.35 Z M 576,444.082 h 2.627 v 2.626 H 576 Z m 5.688,0 -1.167,2.626 h -0.254 v -2.626 z M 576,438.143 v -2.626 h 2.627 v 2.626 z m 7.6,1.641 -1.181,2.658 h -12.855 v -2.658 z m -13.745,-4.267 h 4.509 v 2.626 h -4.685 a 11.368,11.368 0 0 0 0.186,-2.035 c 0,-0.194 -0.006,-0.394 -0.01,-0.591 z m -12.724,20.94 v -18.74 a 0.854,0.854 0 0 1 0.822,-0.822 h 1.016 a 0.853,0.853 0 0 1 0.82,0.822 v 18.74 z m 3.469,1.643 h 45.456 l 1.623,2.657 h -49.437 l -1.624,-2.657 z m -12.3,8.827 V 441.2 a 11.436,11.436 0 0 0 7.188,5.891 v 9.369 h -0.327 a 0.808,0.808 0 0 0 -0.612,0.312 c -0.027,0.032 -0.067,0.046 -0.089,0.082 z m 6.861,-8.077 22.068,36.1 h -2.34 l -19.025,-31.668 a 0.823,0.823 0 0 0 -0.7,-0.4 v 0 a 0.819,0.819 0 0 0 -0.7,0.4 l -18.993,31.667 h -2.373 l 22.071,-36.1 z m -34.552,-31.9 -1.676,2.658 h -39.516 l 1.676,-2.658 z m -35.787,-5.908 1.655,-2.626 h 39.513 l -1.656,2.626 z m 38.477,1.641 -1.656,2.626 h -39.516 l 1.656,-2.626 z m -65.944,30.458 v -4.792 h 2.626 v 4.792 z m 0,1.642 h 2.626 v 2.623 h -2.626 z m -5.087,-19.267 h 12.012 v 2.626 h -15.495 v -2.626 z m 9.354,-5.908 v -19.757 h 6.925 v 19.758 z m -8.534,0 v -19.757 h 6.893 v 19.758 z m 7.713,1.641 h 7.745 v 2.626 h -15.462 v -2.625 z m 8.566,-23.039 h -17.1 a 0.821,0.821 0 0 0 -0.82,0.82 v 20.578 h -6.925 v -32.491 h 32.59 v 32.492 h -6.925 v -20.578 a 0.82,0.82 0 0 0 -0.82,-0.82 z m -24.845,34.231 v -2.658 h 15.459 v 2.658 h -15.463 z m -1.641,12.342 v 2.623 h -2.626 v -2.623 z m -2.626,-1.642 v -4.792 h 2.626 v 4.792 z m 6.892,-4.792 v 15.459 h -2.625 v -15.459 z m 4.3,6.435 v 2.623 h -2.658 v -2.623 z m -2.658,-1.642 v -4.792 h 2.658 v 4.792 z m 6.925,-4.792 v 15.459 h -2.626 v -15.46 z m -3.446,-1.641 h -12.017 v -2.626 h 15.459 v 2.626 z m 12.012,1.641 v 15.459 h -2.658 v -15.46 z m 4.267,6.435 v 2.623 h -2.626 v -2.623 z m -2.626,-1.642 v -4.792 h 2.626 v 4.792 z m 6.893,-4.792 v 15.459 h -2.626 v -15.461 z m 0.82,-1.641 h -16.283 v -2.626 h 3.449 a 0.82,0.82 0 0 0 0.82,-0.82 v -3.479 h 3.48 a 0.819,0.819 0 0 0 0.82,-0.82 v -3.446 h 3.446 a 0.82,0.82 0 0 0 0.82,-0.82 v -3.449 h 11.192 v 15.459 h -7.748 z m 3.479,8.075 v 2.623 h -2.663 v -2.623 z m -2.658,-1.642 v -4.792 h 2.658 v 4.792 z m -46.319,98.987 h 2.295 l 16.005,24.023 h -2.295 z m -5.013,-1.642 v -9.361 a 11.425,11.425 0 0 0 4.794,-2.664 v 12.025 z m 0.716,1.642 h 2.326 l 16.005,24.023 h -2.3 L 423.834,552.13 Z m -4.982,-1.642 v -18.741 a 0.8,0.8 0 0 1 0.822,-0.822 h 0.984 a 0.8,0.8 0 0 1 0.822,0.822 v 18.739 z m 3.009,1.642 16.034,24.021 h -2.326 l -16.005,-24.023 z m 40.471,59.864 h 2.326 l 16.007,24.023 h -2.3 l -16.036,-24.023 z m -4.268,0 h 2.295 l 16.036,24.022 h -2.327 l -16.005,-24.023 z m -4.267,0 h 2.295 l 16.003,24.022 h -2.3 l -16,-24.023 z m -4.3,0 h 2.327 l 16.005,24.023 h -2.295 L 449.5,611.993 Z m 9.766,24.023 h -2.295 l -16.005,-24.023 h 2.295 z m -14.035,-24.023 h 2.3 l 16.036,24.023 h -2.326 L 445.236,611.994 Z M 485.3,536.018 a 0.817,0.817 0 0 0 -0.7,-0.4 v 0 a 0.821,0.821 0 0 0 -0.7,0.4 l -19.027,31.666 h -2.34 l 22.069,-36.1 1.827,2.991 a 0.827,0.827 0 0 0 0.194,0.319 l 2.443,4 v 0 l 5.212,8.538 a 0.7,0.7 0 0 0 0.116,0.187 l 12.244,20.062 h -2.34 z m -18.518,31.665 17.814,-29.65 17.784,29.65 z m 25.518,14.475 v 1.189 l -6.891,8.664 v -9.853 z m -7.713,-1.641 h -8.566 a 0.82,0.82 0 0 0 -0.82,0.82 v 20.578 h -9.059 v -32.59 H 503 v 11.095 h -7.976 a 0.817,0.817 0 0 0 -0.641,0.31 l -0.446,0.56 a 0.818,0.818 0 0 0 -0.816,-0.773 z m 61.211,-49.69 v 2.657 h -2.658 v -2.657 z m 4.265,0 v 2.657 h -2.626 v -2.657 z m 4.267,0 v 2.657 h -2.626 v -2.657 z m -3.446,-1.642 h -3.446 v -19.757 h 6.893 v 19.758 z m 7.745,1.642 v 2.657 h -2.658 v -2.657 z m 4.268,0 v 2.657 h -2.626 v -2.657 z m -3.448,-1.642 h -3.479 v -19.757 h 6.93 v 19.758 z m 7.713,1.642 v 2.657 h -2.626 v -2.657 z m 4.3,0 v 2.657 h -2.652 v -2.657 z m -3.48,-1.642 h -3.447 v -20.577 a 0.819,0.819 0 0 0 -0.819,-0.82 h -17.1 a 0.82,0.82 0 0 0 -0.82,0.82 v 20.578 h -9.061 V 496.6 H 573.6 v 32.589 h -5.613 z M 580,530.828 v 2.657 h -2.625 v -2.657 z m 4.3,0 v 2.657 h -2.657 v -2.657 z m 4.268,0 v 2.657 h -2.628 v -2.657 z m 4.267,0 v 2.657 h -2.626 v -2.657 z m 4.3,0 v 2.657 h -2.66 v -2.657 z m 4.267,0 v 2.657 h -2.625 v -2.657 z m 4.268,0 v 2.657 h -2.629 v -2.657 z m 4.3,0 v 2.657 h -2.658 v -2.657 z m 4.268,0 v 2.657 h -2.627 v -2.657 z m -3.448,-1.642 H 575.243 V 496.6 h 49.69 v 32.589 h -14.147 z m 3.542,10.5 a 11.767,11.767 0 0 1 21.129,-3.716 l -6.9,7.491 a 2.457,2.457 0 0 0 -2.31,-1.642 h -0.984 a 2.465,2.465 0 0 0 -2.461,2.461 v 4.165 l -5.28,-8.377 c -0.028,-0.043 -0.077,-0.063 -0.113,-0.1 a 0.807,0.807 0 0 0 -0.581,-0.282 z m -40.157,4.267 1.655,-2.625 h 39.511 l -1.655,2.625 z m -2.69,4.267 1.655,-2.625 h 39.513 l -1.655,2.625 z m -2.71,4.3 1.676,-2.66 h 39.511 l -1.153,1.829 -0.523,0.83 z m 35.787,5.908 -1.656,2.625 H 563.39 l 1.656,-2.625 z m -38.478,-1.642 1.656,-2.625 h 39.513 l -1.655,2.625 z m 71.088,12.314 v -4.857 H 642 v 4.857 z m -0.819,1.642 h 6.465 a 0.819,0.819 0 0 0 0.819,-0.82 v -6.5 a 0.82,0.82 0 0 0 -0.819,-0.822 h -11.1 l -6.124,-9.713 h 24.51 V 580.42 H 629.56 v -9.741 a 0.829,0.829 0 0 0 0.295,0.059 z m -2.742,-5.14 -0.857,-1.358 h 2.778 v 4.856 h -4.858 V 567 h 2.352 a 0.822,0.822 0 0 0 0.584,-1.4 z m 15.706,95.592 v 2.66 h -2.626 v -2.66 z m -2.626,-1.641 v -4.757 h 2.626 v 4.757 z m 6.893,-4.757 v 15.457 h -2.626 v -15.462 z m 4.3,6.4 v 2.66 h -2.657 v -2.66 z m -2.657,-1.641 v -4.757 h 2.657 v 4.757 z m 6.924,-4.757 v 14.943 l -0.41,0.514 h -2.215 v -15.464 z m 1.641,4.757 v -4.757 h 2.626 v 4.757 z m 2.626,5.943 v 0.491 h -0.886 a 0.822,0.822 0 0 0 -0.643,0.309 l -1.1,1.379 v -2.179 z m -2.626,-1.642 v -2.66 h 2.626 v 2.66 z m 6.925,-9.058 v 11.191 h -2.658 v -11.198 z m 0.82,-1.642 h -29.145 v -15.9 a 1.017,1.017 0 0 0 0.022,-0.115 1.033,1.033 0 0 0 -0.022,-0.112 v -16.471 h 32.592 v 32.59 z m 0.822,6.4 v -4.757 h 2.626 v 4.757 z m 2.626,5.943 v 0.491 h -2.626 v -0.491 z m -2.626,-1.642 v -2.66 h 2.626 v 2.66 z m 4.264,-9.058 h 2.627 v 11.191 h -2.627 v -11.199 z m 2.627,-50.4 v 14.522 h -2.627 v -8.608 l 2.627,-5.915 z m 4.3,-9.678 v 24.2 h -2.66 V 600.7 l 2.66,-5.984 z m 4.267,-9.608 v 33.809 h -2.628 v -27.9 l 2.628,-5.915 z m -1.723,-0.162 -6.752,15.2 a 0.655,0.655 0 0 0 -0.035,0.08 l -4.245,9.554 -0.021,0.045 -4.041,9.086 h -2.5 l 16.4,-36.854 h 2.472 l -1.28,2.883 z m -5.43,-33.443 c -0.01,-0.01 -0.014,-0.018 -0.022,-0.027 -0.027,-0.022 -0.042,-0.059 -0.07,-0.078 l -9.849,-10.715 c 1.841,-6.317 4.472,-13.246 7.216,-20.124 4.85,12.085 9.745,25.354 9.745,34.294 a 9.592,9.592 0 0 1 -0.429,2.841 l -1.8,1.36 a 0.8,0.8 0 0 0 -0.563,0.423 l -4,3.017 v -10.32 a 0.675,0.675 0 0 0 0.024,-0.116 0.8,0.8 0 0 0 -0.25,-0.56 z m -26.59,-67.685 a 0.806,0.806 0 0 0 0.155,0.194 l 9.069,11.4 h -2.163 L 648.679,479.8 a 0.819,0.819 0 0 0 -0.64,-0.309 v 0 a 0.82,0.82 0 0 0 -0.641,0.309 l -12.451,15.656 a 0.74,0.74 0 0 0 -0.193,0.085 h -2.175 l 15.429,-19.359 6.068,7.631 z m -2.064,-5.5 a 0.846,0.846 0 0 0 -0.186,0.038 l -2.117,-2.664 h 32.135 l 2.089,2.626 z m 3.18,4.267 -2.088,-2.625 h 32.133 l 2.088,2.625 z m 36.858,5.94 2.088,2.626 H 662 l -2.089,-2.626 z m -33.44,-1.642 -2.113,-2.655 h 32.135 l 2.112,2.655 z m -9.945,-38.53 v 15.459 h -2.627 v -15.468 z m -3.448,-1.641 h -29.433 l -1.166,-2.626 h 32.435 l 1.168,2.626 z m -60.191,-24.024 v 2.626 h -15.46 v -2.626 z m -9.027,-4.3 h 2.627 v 2.658 H 576 v -2.658 z m 9.027,-4.267 v 2.626 h -15.46 v -2.626 z M 576,409.851 h 2.627 v 2.626 H 576 Z m 0,-5.94 v -2.628 h 2.627 v 2.628 z m 9.027,1.641 v 2.658 h -15.463 v -2.658 z m -25.01,-4.268 h 3.645 v 2.628 h -2.6 q -0.518,-1.315 -1.043,-2.628 z m 7.909,30.657 v 2.759 a 0.812,0.812 0 0 0 0.284,0.615 q 0.012,0.4 0.012,0.8 a 9.758,9.758 0 0 1 -6.795,9.283 v -7.674 a 2.5,2.5 0 0 0 -2.461,-2.463 h -1.016 a 2.5,2.5 0 0 0 -2.463,2.463 v 7.662 a 9.757,9.757 0 0 1 -6.761,-9.27 c 0,-8.972 4.9,-22.212 9.747,-34.266 4.3,10.743 8.349,21.64 9.453,30.1 z m -37.841,-28 v -4.258 a 11.363,11.363 0 0 0 2.454,4.258 z m -4.267,0 V 392.72 h 2.626 v 11.224 z m -4.3,0 V 392.72 h 2.658 v 11.224 z m -4.267,0 V 392.72 h 2.626 v 11.224 z m -4.3,0 V 392.72 h 2.66 v 11.224 z m -4.265,0 V 392.72 h 2.625 v 11.224 z m 25.391,1.641 -1.655,2.626 h -39.515 l 1.656,-2.626 z m -51.058,-9.48 v -3.382 h 2.626 v 16.311 a 0.821,0.821 0 0 0 0.82,0.82 h 3.47 l -11.184,17.739 v -17.739 h 3.449 a 0.82,0.82 0 0 0 0.82,-0.82 v -12.548 a 0.812,0.812 0 0 0 0.024,-0.186 0.8,0.8 0 0 0 -0.024,-0.193 z m -52.971,52.245 v 2.833 l -2.088,-2.833 z m 0.82,-1.641 h -4.119 l -11.39,-15.459 h 36.087 v 2.626 h -3.479 a 0.82,0.82 0 0 0 -0.822,0.82 v 3.446 H 443.7 a 0.819,0.819 0 0 0 -0.82,0.82 v 3.479 h -3.446 a 0.82,0.82 0 0 0 -0.82,0.82 v 3.446 h -7.745 z m 3.446,8.075 v 2.189 l -1.613,-2.189 z m -2.626,-1.642 v -4.792 h 2.626 v 4.792 z m 3.446,12.309 h 4.3 a 0.821,0.821 0 0 0 0.82,-0.82 v -5.581 h 2.626 v 5.581 a 0.82,0.82 0 0 0 0.82,0.82 h 4.267 a 0.821,0.821 0 0 0 0.82,-0.82 v -5.581 h 2.658 v 5.581 a 0.821,0.821 0 0 0 0.82,0.82 h 4.267 a 0.82,0.82 0 0 0 0.82,-0.82 v -5.581 h 2.626 v 5.581 a 0.82,0.82 0 0 0 0.82,0.82 h 4.3 a 0.82,0.82 0 0 0 0.82,-0.82 v -5.581 h 2.626 v 5.581 a 0.821,0.821 0 0 0 0.82,0.82 h 4.267 a 0.821,0.821 0 0 0 0.82,-0.82 v -5.581 h 2.658 v 5.581 a 0.821,0.821 0 0 0 0.82,0.82 h 3.446 v 5.613 l -0.63,-0.946 a 0.731,0.731 0 0 0 -0.179,-0.164 0.694,0.694 0 0 0 -0.1,-0.092 0.793,0.793 0 0 0 -0.4,-0.112 H 445.83 a 0.82,0.82 0 0 0 -0.682,0.368 l -11.33,17 v -23.93 h 0.493 v 1.445 a 0.82,0.82 0 0 0 0.82,0.82 z m -21.4,87.336 15.6,23.365 h -31.168 z m -16.28,11.193 v -11.389 h 9.059 v 8.077 l -9.059,13.6 v -10.008 a 0.856,0.856 0 0 0 0.024,-0.116 0.769,0.769 0 0 0 -0.024,-0.161 z m 29.966,50.876 v -2.864 h 1.912 z m 3.446,-2.205 13.283,19.938 2.284,3.427 h -31.166 l 15.6,-23.365 z m -16.313,16.473 h 3.342 l -3.342,5.008 z m 0,-10.208 v -2.623 h 9.059 v 2.623 z m 6.212,5.908 -1.775,2.66 h -4.437 v -2.66 z m -6.212,-1.641 v -2.625 h 9.059 l -1.751,2.623 z m 11.907,-6.89 -1.208,1.808 v -1.808 z m -16.174,-6.2 v -19.726 h 6.926 v 19.726 z m 2.134,1.9 h 13.358 v 2.658 H 412.42 Z m 36.365,28.322 v -2.657 h 32.59 v 2.657 z m 0,4.268 v -2.626 h 32.59 v 2.626 z m 24.845,4.3 h -24.845 v -2.658 h 32.59 v 2.658 z m 0.82,4.267 v -2.625 h 6.925 v 2.625 z m 0,4.265 v -2.623 h 6.925 v 2.623 z m 0,4.3 v -2.658 h 6.925 v 2.658 z m -8.534,-0.261 v -10.927 h 6.893 v 10.929 z m -8.566,0 v -10.927 h 6.925 v 10.929 z m 24.025,1.9 v 2.625 h -32.59 v -2.625 z m -25.665,-4.3 v 2.658 h -6.925 v -2.658 z m -6.925,-5.908 v -2.625 h 6.925 v 2.625 z m 6.925,1.642 v 2.623 h -6.925 v -2.623 z m 81.525,-72.632 v 7.79 l -6.2,-7.79 z m 0.82,-1.641 h -8.419 c -0.018,-0.01 -0.038,-0.017 -0.057,-0.026 a 0.82,0.82 0 0 0 -0.317,-0.071 h -24.617 v -11.089 h 49.69 v 32.59 h -7.579 l -7.88,-9.9 v -10.678 a 0.819,0.819 0 0 0 -0.82,-0.82 z m 27.11,37.054 v 18.707 h -2.625 v -18.701 a 0.822,0.822 0 0 1 0.82,-0.82 h 0.985 a 0.8,0.8 0 0 1 0.82,0.82 z m -0.82,-2.463 h -0.985 a 2.465,2.465 0 0 0 -2.461,2.463 v 9.782 a 11.815,11.815 0 1 1 5.908,0 v -9.782 a 2.435,2.435 0 0 0 -2.461,-2.463 z M 627.919,567 v 39.81 h -22.19 V 567 Z m -23.009,-1.642 h -2.778 l 1.975,-3.132 c 0,-0.01 0.014,-0.018 0.02,-0.029 l 10.2,-16.183 2.5,-3.961 14.693,23.3 h -26.609 z m 25.962,45.751 h -1.312 v -2.657 h 13.326 v 2.657 z m 0.822,9.7 v -8.057 h 9.056 v 21.67 l -9.056,-13.612 z m -2.134,49.705 V 649.7 a 0.821,0.821 0 0 0 -0.822,-0.82 h -8.564 a 0.82,0.82 0 0 0 -0.82,0.82 v 20.809 h -11.195 v -32.555 h 32.591 v 32.557 z m -8.567,-0.263 v -19.727 h 6.927 v 19.724 z m 3.477,-57.335 15.571,23.4 h -31.17 l 15.6,-23.4 z m -3.857,-0.66 h 2.326 L 606.9,636.278 h -2.295 l 16.007,-24.025 z m -4.268,0 h 2.3 l -16.007,24.025 h -2.298 l 16,-24.025 z m -4.265,0 h 2.295 l -16,24.025 h -2.328 l 16.037,-24.025 z m -4.3,0 h 2.327 l -16.037,24.025 h -2.295 z m -4.267,0 h 2.3 L 589.8,636.278 h -2.3 l 16.005,-24.025 z m -4.265,0 h 2.293 l -16,24.025 h -2.331 l 16.036,-24.025 z m -22.277,24.025 h -2.293 l 16.005,-24.025 h 2.295 l -16.006,24.025 z m 17.977,-24.025 h 2.327 l -16.036,24.025 h -2.3 l 16.007,-24.025 z m 11.573,47.067 v 2.657 h -6.893 v -2.66 z m -6.893,-5.909 v -2.623 h 6.893 v 2.623 z m 6.893,1.642 v 2.625 h -6.893 v -2.625 z m -15.457,6.661 v -10.929 h 6.925 v 10.926 z m -8.567,0 v -10.929 h 6.928 v 10.926 z m 24.025,1.9 v 2.626 H 574.06 v -2.626 z m -32.459,-5.941 v -2.625 h 6.8 v 2.625 z m 6.8,1.642 v 2.657 h -6.8 v -2.655 z m 25.053,15.491 1.772,-2.658 h 32.26 l -1.772,2.658 z m -1.917,-0.081 v -2.577 h 1.718 z m -0.924,4.346 1.747,-2.625 h 32.26 l -1.747,2.625 z m -3.342,2.056 v -8.979 h 2.627 v 5.037 l -2.627,3.943 z m 0.5,2.211 1.749,-2.626 h 32.262 l -1.751,2.626 z m -2.866,4.3 1.772,-2.657 h 32.26 l -1.772,2.657 z m -1.9,-0.106 v -15.382 h 2.626 V 683.6 l -2.626,3.94 z m 0.808,1.75 h 32.259 l -1.748,2.625 h -32.26 l 1.75,-2.625 z m 106.022,-70.37 V 614 l 2.184,4.917 z M 714.3,599.161 h 3 l -15.017,33.808 v -12.411 h 3.47 a 0.819,0.819 0 0 0 0.656,-1.314 l -4.186,-9.425 c -0.006,-0.013 -0.011,-0.024 -0.015,-0.035 l -4.247,-9.559 a 0.3,0.3 0 0 0 -0.036,-0.08 l -0.436,-0.984 z m 11.083,-51.332 3.5,2.625 h -13.839 l -0.015,-2.625 z m -20.47,89.828 v 15.491 h -2.626 v -15.49 z m -1.363,32.59 -1.263,-1.588 v -13.87 h 2.626 v 15.457 z m 2.183,1.642 h 3.479 v 2.657 h -2.242 l -2.113,-2.657 z m 0.822,-7.22 v -27.011 h 24.025 v 32.59 h -2.627 V 649.7 a 0.82,0.82 0 0 0 -0.819,-0.82 h -17.1 a 0.821,0.821 0 0 0 -0.82,0.82 v 20.546 h -2.657 v -5.576 z m 12.075,-54.531 11.506,25.876 h -23.02 l 11.516,-25.876 z m 7.682,60.109 h -6.926 v -19.723 h 6.926 v 19.724 z m -15.459,0 v -19.723 h 6.893 v 19.724 z m 15.459,4.3 h -15.456 v -2.657 h 15.459 v 2.657 z m -4.268,4.268 h -11.68 l -2.088,-2.626 h 13.768 z m -334.8,-274.394 a 0.948,0.948 0 0 0 -0.08,-0.13 l -7.073,-11.572 h 7.153 v 11.7 z M 719.388,683.9 v -3.445 h 3.48 a 0.821,0.821 0 0 0 0.82,-0.82 v -3.446 h 3.447 a 0.822,0.822 0 0 0 0.819,-0.822 v -3.477 h 3.311 v -37.378 l -11.881,-26.726 a 0.822,0.822 0 0 0 -1.5,0 l -12.563,28.23 h -2.59 l 15.839,-35.657 3.059,6.875 0.006,0.014 5.694,12.791 0.015,0.039 3.786,8.507 a 0.7,0.7 0 0 0 0.036,0.081 l 0.1,0.224 v -4.04 l -0.013,-0.026 h 0.013 v -1.641 h -0.742 l -1.17,-2.625 h 1.912 v -1.642 h -2.641 l -0.534,-1.2 -0.632,-1.424 h 3.807 v -1.642 h -4.492 c -0.015,0 -0.029,0.008 -0.045,0.01 l -1.187,-2.668 h 5.723 v -1.641 h -6.429 -0.022 l -0.017,-0.036 -1.152,-2.591 h 7.62 v -1.642 h -8.351 l -1.17,-2.626 h 9.52 v -1.642 H 721.1 a 0.6,0.6 0 0 0 -0.076,0.015 l -0.159,-0.358 -1.03,-2.313 h 11.434 v -1.642 h -16.146 v -32.554 h 16.142 v -1.642 h -16.146 l -0.017,-2.66 h 16.163 v -1.64 h -16.172 l -0.017,-2.625 h 16.188 v -1.642 h -16.2 l -0.017,-2.657 h 16.029 l 0.183,0.135 v -2.05 l -2.53,-1.894 h 2.53 v -1.642 h -4.721 l -0.394,-0.295 a 0.832,0.832 0 0 0 -0.493,-0.164 h -22.869 a 0.828,0.828 0 0 0 -0.493,0.165 v -32.163 h 28.976 v -1.966 l -0.18,0.225 h -29.617 a 0.8,0.8 0 0 0 -0.369,0.1 h -2.2 l 2.191,-2.756 h 30.17 v -1.642 H 702.4 l 2.087,-2.625 h 26.776 v -1.641 H 705.8 l 2.088,-2.627 h 23.38 v -1.641 H 709.19 l 2.113,-2.657 h 19.962 v -1.642 h -18.656 l 2.089,-2.625 h 16.567 v -1.642 H 714.3 a 0.817,0.817 0 0 0 -0.643,0.31 l -3.512,4.416 H 699.92 c -0.014,-0.014 -0.025,-0.029 -0.041,-0.042 l -3.99,-5.017 v -27.531 h 35.376 v -1.642 h -0.37 l 0.37,-0.5 v -2.764 l -2.411,3.266 h -2.231 l 2.177,-2.955 h 0.006 c 0.011,-0.013 0.028,-0.018 0.038,-0.034 l 2.421,-3.289 V 452.5 l -2.26,3.07 v -13.817 h 2.26 v -1.641 h -1.68 l 1.68,-2.279 v -2.766 l -3.718,5.045 h -2.23 l 5.948,-8.07 v -2.433 H 714.3 a 0.822,0.822 0 0 0 -0.661,0.334 l -12.355,16.765 H 688.8 v -32.59 h 42.464 v -1.641 h -38.525 l -1.6,-2.626 h 40.13 v -1.641 h -40.893 a 0.8,0.8 0 0 0 -0.217,0.043 l -1.653,-2.7 h 42.759 v -1.641 h -43.76 l -1.606,-2.628 h 45.366 v -1.639 h -46.37 l -1.6,-2.626 h 47.974 v -1.641 h -48.983 l -1.624,-2.658 h 49.408 l 1.195,1.955 v -3.6 h -0.275 l -1.525,-2.495 v -0.393 h 1.8 v -1.641 h -1.8 v -2.626 h 1.8 v -1.641 h -1.8 v -2.658 h 1.8 v -1.641 h -1.8 v -2.626 h 1.8 v -1.641 h -1.8 v -2.363 h 1.8 v -1.641 h -1.8 v -15.2 h -1.642 v 15.2 H 720.9 v -15.2 h -1.641 v 15.2 h -5.842 v -15.2 h -1.641 v 15.2 h -24.028 v -15.2 h -1.639 v 15.2 h -6.925 v -15.2 h -1.641 v 15.2 h -6.927 v -15.2 h -1.641 v 15.2 h -6.891 v -15.2 h -1.642 v 15.2 h -6.924 v -15.2 h -1.642 v 15.2 h -1.017 V 357.7 a 0.82,0.82 0 0 0 -0.82,-0.82 h -17.132 a 0.819,0.819 0 0 0 -0.819,0.82 v 20.546 h -3.448 a 0.815,0.815 0 0 0 -0.6,0.264 h -2.847 v -24 h -1.641 v 23.731 h -2.658 v -23.727 h -1.641 v 24 h -2.626 v -24 h -1.642 v 2.629 h -2.625 v -2.629 h -1.639 v 2.629 h -2.66 v -2.629 h -1.641 v 2.629 h -2.62 v -2.629 h -1.639 v 2.629 h -2.627 v -2.629 h -1.641 v 23.731 h -2.66 v -23.731 h -1.639 v 24 h -2.628 v -24 h -1.639 v 23.731 h -3.48 a 0.819,0.819 0 0 0 -0.819,0.82 v 5.614 H 582.4 v -5.614 a 0.82,0.82 0 0 0 -0.82,-0.82 h -4.27 a 0.822,0.822 0 0 0 -0.822,0.82 v 5.614 h -2.658 v -5.614 a 0.821,0.821 0 0 0 -0.82,-0.82 h -4.267 a 0.821,0.821 0 0 0 -0.82,0.82 v 16.313 H 552.3 c -0.309,-9.558 -5.383,-22.943 -10.594,-35.884 a 0.82,0.82 0 0 0 -0.76,-0.513 v 0 a 0.821,0.821 0 0 0 -0.76,0.512 c -2.018,4.978 -4.067,10.2 -5.838,15.315 V 374.8 a 0.819,0.819 0 0 0 -0.82,-0.819 h -3.445 v -19.467 h -1.643 v 19.466 h -24.024 v -19.466 h -1.641 v 19.466 h -6.925 v -19.466 h -1.641 v 19.466 h -6.926 v -19.466 h -1.641 v 19.466 h -6.891 v -19.466 h -1.642 v 19.466 h -6.925 v -19.466 h -1.641 v 19.466 h -19.758 v -3.446 a 0.821,0.821 0 0 0 -0.82,-0.82 h -5.581 v -2.66 h 5.581 a 0.82,0.82 0 0 0 0.82,-0.82 v -4.265 a 0.82,0.82 0 0 0 -0.82,-0.82 h -5.581 v -2.629 h 5.581 a 0.82,0.82 0 0 0 0.82,-0.82 v -3.185 h -1.642 v 2.365 h -9.681 v -2.365 h -1.641 v 15.2 h -32.59 v -15.2 h -1.642 v 15.2 h -6.925 v -15.2 h -1.641 v 14.935 h -6.891 v -14.936 h -1.642 v 14.936 h -5.126 v 1.9 h 13.659 v 2.363 h -13.659 v 1.641 h 13.659 v 2.626 h -13.659 v 1.641 h 13.659 v 2.658 h -13.659 v 1.641 h 13.659 v 2.626 h -13.659 v 1.641 h 13.659 v 2.626 h -13.659 v 3.857 l 0.43,0.7 h -0.43 v 1.641 h 1.436 l 1.6,2.626 h -3.038 v 1.639 h 4.042 l 1.6,2.628 h -5.646 v 1.641 h 6.65 l 1.625,2.658 h -8.275 v 1.641 h 9.277 l 1.606,2.626 h -10.877 v 1.641 h 7.259 v 15.491 h -7.259 v 2.433 l 0.584,-0.792 h 2.228 l -2.812,3.815 v 2.766 l 4.85,-6.581 h 2.261 l -6.539,8.862 h -0.572 v 1.641 h 7.9 l -7.9,10.74 v 2.769 l 6.661,-9.054 11.023,-14.958 h 2.261 l -19.945,27.066 v 2.766 l 21.983,-29.831 h 2.229 l -22.322,30.293 h -1.89 v 1.642 h 14.315 v 27.864 h -14.315 v 1.642 h 15.568 l -2.119,2.662 a 0.735,0.735 0 0 0 -0.184,-0.038 h -13.265 v 1.642 h 12.173 l -2.113,2.657 h -10.06 v 1.641 h 8.754 l -2.089,2.627 h -6.665 v 1.641 h 5.36 l -2.088,2.625 h -3.272 v 1.642 h 1.965 l -1.965,2.471 v 1.927 h 3.615 v 32.458 h -3.615 v 1.642 h 14.315 v 3.48 a 0.821,0.821 0 0 0 0.82,0.82 h 1.312 v 9.918 l -4.292,-3.216 a 0.845,0.845 0 0 0 -0.2,-0.147 l -11.27,-8.437 -0.007,-0.007 -0.678,-0.507 v 2.052 l 3.367,2.52 h -3.367 v 1.642 h 5.558 l 3.505,2.625 h -9.063 v 1.641 h 11.255 l 3.55,2.66 h -14.8 v 1.642 h 16.448 v 32.557 h -16.453 v 1.642 h 21 l 1.182,2.655 h -22.182 v 1.642 h 22.915 l 1.17,2.626 h -24.085 v 1.642 h 24.227 a 0.8,0.8 0 0 0 0.5,-0.19 l 1.252,2.815 h -25.979 v 1.641 h 26.713 l 1.182,2.658 h -27.9 v 1.642 h 28.627 l 1.168,2.623 h -29.8 v 1.642 h 30.3 a 0.808,0.808 0 0 0 0.21,-0.042 l 1.185,2.667 h -31.685 v 1.641 h 32.424 l 1.124,2.525 v 0.134 h -32.368 l -0.291,-0.656 -0.889,-2 v 4.045 l 1.769,3.983 c 0.01,0.022 0.02,0.046 0.031,0.067 l 1.374,3.092 h -2.472 l -0.7,-1.574 v 37.445 h 9.076 l -9.076,6.847 v 2.054 l 0.444,-0.335 h 21.735 l 0.015,2.625 h -22.2 v 1.642 h 22.2 l 0.015,2.657 h -22.22 v 1.642 h 22.224 v 17.391 h 1.642 v -17.391 h 32.59 v 17.391 h 1.641 v -0.291 h 9.681 v 0.291 h 1.642 V 705.3 a 0.822,0.822 0 0 0 -0.82,-0.82 h -5.581 v -2.625 h 5.581 a 0.82,0.82 0 0 0 0.82,-0.82 v -4.3 a 0.82,0.82 0 0 0 -0.82,-0.82 h -5.581 v -2.626 h 5.581 a 0.822,0.822 0 0 0 0.82,-0.822 V 688.2 a 0.822,0.822 0 0 0 -0.82,-0.822 h -5.581 v -2.657 h 5.581 a 0.821,0.821 0 0 0 0.82,-0.822 v -4.266 a 0.82,0.82 0 0 0 -0.82,-0.82 h -5.581 v -2.626 h 5.581 a 0.822,0.822 0 0 0 0.82,-0.822 V 671.89 H 480.5 l -8.992,11.32 a 0.82,0.82 0 0 0 -0.352,0.443 l -6.7,8.434 a 0.821,0.821 0 0 0 0.642,1.332 h 3.446 v 12.993 h 1.641 V 693.42 h 32.592 v 12.993 h 1.641 V 693.42 h 24.022 v 12.993 h 1.641 V 693.42 h 3.445 a 0.128,0.128 0 0 1 0.024,0 0.821,0.821 0 0 0 0.521,-1.455 l -17,-21.407 c 0,-0.006 -0.011,-0.006 -0.015,-0.011 a 0.836,0.836 0 0 0 -0.247,-0.2 c -0.021,-0.011 -0.041,-0.018 -0.063,-0.028 a 0.81,0.81 0 0 0 -0.316,-0.073 h -12.014 v -16.277 a 0.821,0.821 0 0 0 -0.82,-0.82 h -4.3 a 0.821,0.821 0 0 0 -0.82,0.82 v 5.579 h -2.626 v -5.579 a 0.821,0.821 0 0 0 -0.822,-0.82 h -4.267 a 0.82,0.82 0 0 0 -0.819,0.82 v 5.579 h -2.66 v -5.579 a 0.82,0.82 0 0 0 -0.82,-0.82 h -3.446 v -15.491 h 36.859 v 2.657 h -3.447 a 0.822,0.822 0 0 0 -0.82,0.82 v 3.448 h -3.48 a 0.821,0.821 0 0 0 -0.82,0.82 v 3.445 h -3.446 a 0.82,0.82 0 0 0 -0.819,0.822 v 4.3 a 0.82,0.82 0 0 0 0.819,0.822 h 3.446 v 3.444 a 0.821,0.821 0 0 0 0.82,0.822 h 3.48 v 3.48 a 0.821,0.821 0 0 0 0.82,0.82 h 3.447 v 3.442 a 0.821,0.821 0 0 0 0.82,0.82 h 3.445 v 3.709 a 0.822,0.822 0 0 0 0.82,0.82 h 47.461 v 16.311 a 0.821,0.821 0 0 0 0.819,0.822 h 4.267 a 0.822,0.822 0 0 0 0.82,-0.822 v -16.307 h 2.626 v 16.311 a 0.821,0.821 0 0 0 0.82,0.822 h 4.3 a 0.822,0.822 0 0 0 0.82,-0.822 v -16.311 h 2.626 v 16.311 a 0.822,0.822 0 0 0 0.82,0.822 h 3.955 l -4.836,7.258 c -0.01,0.014 -0.008,0.035 -0.017,0.052 a 0.778,0.778 0 0 0 -0.1,0.306 c 0,0.025 -0.014,0.048 -0.014,0.073 v 0.022 9.417 h 1.639 v -8.6 h 2.628 v 8.6 h 1.639 v -8.6 h 2.66 v 8.6 h 1.641 v -8.6 h 2.627 v 8.6 h 1.639 v -8.6 h 2.625 v 8.6 h 1.642 v -8.6 h 2.66 v 8.6 h 1.639 v -8.6 h 2.625 v 8.6 h 1.642 v -8.6 h 2.626 v 8.6 h 1.641 v -8.6 h 2.658 v 8.6 h 1.641 v -8.6 h 26.683 v 8.6 h 1.642 V 689.12 h 32.59 v 17.294 h 1.639 V 689.12 h 24.026 v 17.294 h 1.641 V 689.12 h 3.446 a 0.065,0.065 0 0 1 0.024,0 0.82,0.82 0 0 0 0.521,-1.455 l -2.34,-2.942 h 3.5 a 0.82,0.82 0 0 0 0.82,-0.822 z"
         data-name="Path 954"
         id="Path_954"
         inkscape:connector-curvature="0"
         style="fill:#ffffff" />
      <path
         transform="translate(-290.523,-354.514)"
         d="m 603.635,361.211 h 14.573 a 0.818,0.818 0 0 0 0.819,-0.819 v -5.878 h -1.638 v 5.058 h -5.648 v -5.058 H 610.1 v 5.058 h -5.645 v -5.058 h -1.641 v 5.878 a 0.819,0.819 0 0 0 0.82,0.819 z"
         data-name="Path 955"
         id="Path_955"
         inkscape:connector-curvature="0"
         style="fill:#ffffff" />
    </g>
    <path
       transform="translate(-285.528,-305.934)"
       d="m 632.479,489.532 h -6.926 v -11.189 h 6.926 z m -8.566,0 h -6.893 v -11.189 h 6.893 z M 633.3,476.7 h -17.1 a 0.821,0.821 0 0 0 -0.82,0.82 v 12.833 a 0.822,0.822 0 0 0 0.82,0.822 h 17.1 a 0.822,0.822 0 0 0 0.819,-0.822 v -12.832 a 0.82,0.82 0 0 0 -0.819,-0.82 z"
       data-name="Path 956"
       id="Path_956"
       inkscape:connector-curvature="0"
       style="fill:#ffffff" />
    <path
       transform="translate(-339.317,-292.648)"
       d="m 497.188,514.383 h -15.457 v -2.623 h 15.457 z m 1.641,-3.444 a 0.821,0.821 0 0 0 -0.82,-0.822 h -17.1 a 0.821,0.821 0 0 0 -0.819,0.822 v 4.267 a 0.821,0.821 0 0 0 0.819,0.82 h 17.1 a 0.821,0.821 0 0 0 0.82,-0.82 v -4.266 z"
       data-name="Path 957"
       id="Path_957"
       inkscape:connector-curvature="0"
       style="fill:#ffffff" />
    <path
       transform="translate(-370.604,-256.169)"
       d="m 419.314,601.869 h -17.1 a 0.82,0.82 0 0 0 -0.819,0.82 v 5.379 h 1.641 v -4.558 h 6.891 v 4.559 h 1.641 v -4.559 h 6.925 v 4.559 h 1.642 v -5.379 a 0.821,0.821 0 0 0 -0.822,-0.82 z"
       data-name="Path 958"
       id="Path_958"
       inkscape:connector-curvature="0"
       style="fill:#ffffff" />
    <path
       transform="translate(-351.558,-254.956)"
       d="m 467.222,604.921 h -17.1 a 0.822,0.822 0 0 0 -0.82,0.82 v 1.114 h 1.642 v -0.291 h 6.891 v 0.291 h 1.641 v -0.291 h 6.924 v 0.291 h 1.641 v -1.114 a 0.822,0.822 0 0 0 -0.822,-0.82 z"
       data-name="Path 959"
       id="Path_959"
       inkscape:connector-curvature="0"
       style="fill:#ffffff" />
    <path
       transform="translate(-332.996,-261.828)"
       d="m 512.431,612.513 v -9.777 a 2.464,2.464 0 0 0 -2.461,-2.461 h -1.017 a 2.464,2.464 0 0 0 -2.461,2.461 v 9.784 a 11.845,11.845 0 1 1 5.94,-0.007 z m -2.988,-24.876 a 13.44,13.44 0 0 0 -4.556,26.09 h 3.245 v -10.992 a 0.822,0.822 0 0 1 0.82,-0.82 h 1.017 a 0.823,0.823 0 0 1 0.82,0.82 v 10.992 h 3.223 a 13.436,13.436 0 0 0 -4.57,-26.09 z"
       data-name="Path 960"
       id="Path_960"
       inkscape:connector-curvature="0"
       style="fill:#ffffff" />
    <path
       transform="translate(-281.878,-291.463)"
       d="m 626.2,514.742 h 6.925 V 525.67 H 626.2 Z m -1.642,11.749 a 0.821,0.821 0 0 0 0.822,0.82 h 8.4 V 513.1 h -8.4 a 0.821,0.821 0 0 0 -0.822,0.822 v 12.57 z"
       data-name="Path 961"
       id="Path_961"
       inkscape:connector-curvature="0"
       style="fill:#ffffff" />
    <g
       transform="translate(0,336.87)"
       data-name="Group 99"
       id="Group_99">
      <path
         transform="translate(-370.604,-595.551)"
         d="m 418.494,599.818 h -15.457 v -2.625 h 15.457 z m 0.82,-4.267 h -17.1 a 0.819,0.819 0 0 0 -0.819,0.82 v 4.27 a 0.82,0.82 0 0 0 0.819,0.82 h 17.1 a 0.822,0.822 0 0 0 0.822,-0.82 v -4.27 a 0.821,0.821 0 0 0 -0.822,-0.82 z"
         data-name="Path 962"
         id="Path_962"
         inkscape:connector-curvature="0"
         style="fill:#ffffff" />
      <path
         transform="translate(-379.364,-593.114)"
         d="m 393.843,601.681 h -14.479 v 1.642 h 5.126 v 4.82 h 1.641 v -4.82 h 6.891 v 4.82 h 1.641 V 602.5 a 0.82,0.82 0 0 0 -0.82,-0.82 z"
         data-name="Path 963"
         id="Path_963"
         inkscape:connector-curvature="0"
         style="fill:#ffffff" />
    </g>
    <path
       transform="translate(-302.568,-275.721)"
       d="m 589.62,565.264 h -6.891 v -10.929 h 6.891 z m -8.534,0 h -6.925 v -10.929 h 6.925 z m 9.354,-12.57 h -17.1 a 0.82,0.82 0 0 0 -0.82,0.82 v 12.571 a 0.82,0.82 0 0 0 0.82,0.82 h 17.1 a 0.821,0.821 0 0 0 0.82,-0.82 v -12.571 a 0.821,0.821 0 0 0 -0.82,-0.82 z"
       data-name="Path 964"
       id="Path_964"
       inkscape:connector-curvature="0"
       style="fill:#ffffff" />
    <path
       transform="translate(-343.874,-332.002)"
       d="m 482.612,418.454 h -5.352 v -5.678 h 5.351 v 5.678 z m 0,7.286 h -5.352 v -5.645 h 5.351 v 5.645 z m -6.992,-7.286 h -5.35 v -5.678 h 5.35 z m 0,7.286 h -5.35 v -5.645 h 5.35 z m 0.82,-14.6 h -6.991 a 0.821,0.821 0 0 0 -0.82,0.82 v 14.6 a 0.821,0.821 0 0 0 0.82,0.822 h 13.983 a 0.82,0.82 0 0 0 0.819,-0.822 v -14.6 a 0.82,0.82 0 0 0 -0.819,-0.82 z"
       data-name="Path 965"
       id="Path_965"
       inkscape:connector-curvature="0"
       style="fill:#ffffff" />
    <path
       transform="translate(-332.016,-313.338)"
       d="m 515.553,462.346 h -15.46 v -2.625 h 15.46 z m 0.82,-4.267 h -17.1 a 0.82,0.82 0 0 0 -0.82,0.82 v 4.267 a 0.82,0.82 0 0 0 0.82,0.82 h 17.1 a 0.82,0.82 0 0 0 0.819,-0.82 V 458.9 a 0.82,0.82 0 0 0 -0.819,-0.82 z"
       data-name="Path 966"
       id="Path_966"
       inkscape:connector-curvature="0"
       style="fill:#ffffff" />
    <path
       transform="translate(-285.528,-273.209)"
       d="m 617.02,560.652 h 15.459 v 2.626 H 617.02 Z m -0.822,4.267 h 17.1 a 0.819,0.819 0 0 0 0.819,-0.82 v -4.269 a 0.821,0.821 0 0 0 -0.819,-0.82 H 616.2 a 0.822,0.822 0 0 0 -0.82,0.82 v 4.27 a 0.82,0.82 0 0 0 0.82,0.82 z"
       data-name="Path 967"
       id="Path_967"
       inkscape:connector-curvature="0"
       style="fill:#ffffff" />
    <path
       transform="translate(-348.99,-332.002)"
       d="m 469.709,418.454 h -5.35 v -5.678 h 5.35 z m 0,7.286 h -5.35 v -5.645 h 5.35 z m -6.991,-7.286 H 457.4 v -5.678 h 5.318 z m 0,7.286 H 457.4 v -5.645 h 5.318 z m 7.811,-14.6 H 456.58 a 0.821,0.821 0 0 0 -0.82,0.82 v 14.6 a 0.821,0.821 0 0 0 0.82,0.822 h 13.95 a 0.821,0.821 0 0 0 0.82,-0.822 v -14.6 a 0.821,0.821 0 0 0 -0.82,-0.82 z"
       data-name="Path 968"
       id="Path_968"
       inkscape:connector-curvature="0"
       style="fill:#ffffff" />
    <path
       transform="translate(-337.235,-326.681)"
       d="m 486.967,433.153 h 5.646 v 5.316 h -5.646 z m 0,-6.991 h 5.646 v 5.349 h -5.646 z m 7.287,6.991 h 5.677 v 5.316 h -5.677 z m 0,-6.991 h 5.677 v 5.349 h -5.677 z m -8.107,13.949 h 14.606 a 0.82,0.82 0 0 0 0.819,-0.82 v -13.949 a 0.82,0.82 0 0 0 -0.819,-0.822 h -14.607 a 0.821,0.821 0 0 0 -0.82,0.822 v 13.949 a 0.821,0.821 0 0 0 0.82,0.82 z"
       data-name="Path 969"
       id="Path_969"
       inkscape:connector-curvature="0"
       style="fill:#ffffff" />
    <path
       transform="translate(-366.17,-276.86)"
       d="m 421.117,554.094 h -6.926 v -2.624 h 6.926 v 2.625 z m 0.82,-4.265 h -8.567 a 0.821,0.821 0 0 0 -0.82,0.82 v 4.267 a 0.821,0.821 0 0 0 0.82,0.82 h 8.567 a 0.821,0.821 0 0 0 0.82,-0.82 v -4.267 a 0.821,0.821 0 0 0 -0.82,-0.82 z"
       data-name="Path 970"
       id="Path_970"
       inkscape:connector-curvature="0"
       style="fill:#ffffff" />
    <path
       transform="translate(-372.248,-322.844)"
       d="m 398.9,435.815 h 15.46 v 2.623 H 398.9 Z m -0.819,4.265 h 17.1 A 0.82,0.82 0 0 0 416,439.258 v -4.265 a 0.821,0.821 0 0 0 -0.819,-0.822 h -17.1 a 0.821,0.821 0 0 0 -0.82,0.822 v 4.265 a 0.82,0.82 0 0 0 0.82,0.822 z"
       data-name="Path 971"
       id="Path_971"
       inkscape:connector-curvature="0"
       style="fill:#ffffff" />
    <path
       transform="translate(-319.243,-310.911)"
       d="m 547.712,477.05 h -6.926 v -11.225 h 6.926 z m -8.566,0 h -6.926 v -11.225 h 6.926 z m 9.386,-12.866 H 531.4 a 0.82,0.82 0 0 0 -0.82,0.82 v 12.866 a 0.82,0.82 0 0 0 0.82,0.822 h 17.132 a 0.821,0.821 0 0 0 0.82,-0.822 V 465 a 0.821,0.821 0 0 0 -0.82,-0.82 z"
       data-name="Path 972"
       id="Path_972"
       inkscape:connector-curvature="0"
       style="fill:#ffffff" />
    <path
       transform="translate(-362.51,-287.811)"
       d="m 438.855,534.853 h -6.925 v -10.928 h 6.925 z m -8.567,0 H 423.4 v -10.928 h 6.892 v 10.928 z m 9.388,-12.57 h -17.1 a 0.82,0.82 0 0 0 -0.82,0.82 v 12.57 a 0.82,0.82 0 0 0 0.82,0.82 h 17.1 a 0.82,0.82 0 0 0 0.82,-0.82 V 523.1 a 0.82,0.82 0 0 0 -0.82,-0.82 z"
       data-name="Path 973"
       id="Path_973"
       inkscape:connector-curvature="0"
       style="fill:#ffffff" />
    <path
       transform="translate(-319.243,-313.338)"
       d="m 547.712,462.346 h -15.493 v -2.625 h 15.492 v 2.625 z m 0.82,-4.267 H 531.4 a 0.82,0.82 0 0 0 -0.82,0.82 v 4.267 a 0.82,0.82 0 0 0 0.82,0.82 h 17.132 a 0.821,0.821 0 0 0 0.82,-0.82 V 458.9 a 0.821,0.821 0 0 0 -0.82,-0.82 z"
       data-name="Path 974"
       id="Path_974"
       inkscape:connector-curvature="0"
       style="fill:#ffffff" />
    <path
       transform="translate(-311.092,-276.785)"
       d="m 559.647,554.284 h -6.927 v -2.626 h 6.926 v 2.626 z m 0.819,-4.267 H 551.9 a 0.819,0.819 0 0 0 -0.82,0.819 v 4.27 a 0.82,0.82 0 0 0 0.82,0.82 h 8.564 a 0.821,0.821 0 0 0 0.822,-0.82 v -4.27 a 0.82,0.82 0 0 0 -0.822,-0.819 z"
       data-name="Path 975"
       id="Path_975"
       inkscape:connector-curvature="0"
       style="fill:#ffffff" />
    <path
       transform="translate(-311.092,-273.209)"
       d="m 559.647,563.278 h -6.927 v -2.626 h 6.926 v 2.626 z m 0.819,-4.268 H 551.9 a 0.821,0.821 0 0 0 -0.82,0.82 v 4.27 a 0.819,0.819 0 0 0 0.82,0.82 h 8.564 a 0.82,0.82 0 0 0 0.822,-0.82 v -4.27 a 0.822,0.822 0 0 0 -0.822,-0.82 z"
       data-name="Path 976"
       id="Path_976"
       inkscape:connector-curvature="0"
       style="fill:#ffffff" />
    <path
       transform="translate(-339.392,-282.947)"
       d="m 481.543,536.16 h 15.491 v 2.625 h -15.491 z m -0.82,4.265 h 17.132 a 0.821,0.821 0 0 0 0.82,-0.82 v -4.267 a 0.821,0.821 0 0 0 -0.82,-0.82 h -17.133 a 0.821,0.821 0 0 0 -0.82,0.82 v 4.267 a 0.821,0.821 0 0 0 0.82,0.82 z"
       data-name="Path 977"
       id="Path_977"
       inkscape:connector-curvature="0"
       style="fill:#ffffff" />
    <path
       transform="translate(-305.612,-313.208)"
       d="m 566.507,460.049 h 15.459 v 2.623 h -15.459 z m -0.82,4.265 h 17.1 a 0.819,0.819 0 0 0 0.819,-0.82 v -4.265 a 0.82,0.82 0 0 0 -0.819,-0.822 h -17.1 a 0.821,0.821 0 0 0 -0.822,0.822 v 4.265 a 0.821,0.821 0 0 0 0.822,0.82 z"
       data-name="Path 978"
       id="Path_978"
       inkscape:connector-curvature="0"
       style="fill:#ffffff" />
    <path
       transform="translate(-347.907,-282.947)"
       d="m 475.584,538.785 h -15.458 v -2.625 h 15.459 v 2.625 z m 0.819,-4.267 H 459.3 a 0.82,0.82 0 0 0 -0.819,0.82 v 4.267 a 0.82,0.82 0 0 0 0.819,0.82 h 17.1 a 0.821,0.821 0 0 0 0.822,-0.82 v -4.267 a 0.821,0.821 0 0 0 -0.822,-0.82 z"
       data-name="Path 979"
       id="Path_979"
       inkscape:connector-curvature="0"
       style="fill:#ffffff" />
    <path
       transform="translate(-348.99,-326.662)"
       d="m 469.709,431.853 h -5.35 v -5.643 h 5.35 z m 0,7.287 h -5.35 v -5.645 h 5.35 z m -6.991,-7.287 H 457.4 v -5.643 h 5.318 z m 0,7.287 H 457.4 v -5.645 h 5.318 z m 7.811,-14.573 H 456.58 a 0.821,0.821 0 0 0 -0.82,0.82 v 14.574 a 0.822,0.822 0 0 0 0.82,0.82 h 13.95 a 0.822,0.822 0 0 0 0.82,-0.82 v -14.574 a 0.821,0.821 0 0 0 -0.82,-0.82 z"
       data-name="Path 980"
       id="Path_980"
       inkscape:connector-curvature="0"
       style="fill:#ffffff" />
    <path
       transform="translate(-358.859,-341.675)"
       d="m 448.038,391.073 h -15.459 v -2.628 h 15.459 z m 1.641,-3.446 a 0.819,0.819 0 0 0 -0.82,-0.82 h -17.1 a 0.82,0.82 0 0 0 -0.82,0.82 v 4.265 a 0.821,0.821 0 0 0 0.82,0.822 h 17.1 a 0.82,0.82 0 0 0 0.82,-0.822 z"
       data-name="Path 981"
       id="Path_981"
       inkscape:connector-curvature="0"
       style="fill:#ffffff" />
    <path
       transform="translate(-377.122,-270.772)"
       d="m 402.137,577.973 h -6.926 v -11.19 h 6.926 z m -8.567,0 h -6.925 v -11.19 h 6.925 z m 9.388,-12.833 h -17.134 a 0.821,0.821 0 0 0 -0.82,0.82 v 12.834 a 0.821,0.821 0 0 0 0.82,0.82 h 17.133 a 0.82,0.82 0 0 0 0.819,-0.82 V 565.96 a 0.82,0.82 0 0 0 -0.819,-0.82 z"
       data-name="Path 982"
       id="Path_982"
       inkscape:connector-curvature="0"
       style="fill:#ffffff" />
    <path
       transform="translate(-297.096,-313.208)"
       d="m 603.415,462.672 h -15.491 v -2.623 h 15.491 z m 0.82,-4.265 H 587.1 a 0.821,0.821 0 0 0 -0.82,0.822 v 4.265 a 0.821,0.821 0 0 0 0.82,0.82 h 17.133 a 0.82,0.82 0 0 0 0.82,-0.82 v -4.265 a 0.82,0.82 0 0 0 -0.82,-0.822 z"
       data-name="Path 983"
       id="Path_983"
       inkscape:connector-curvature="0"
       style="fill:#ffffff" />
    <path
       transform="translate(-305.639,-260.352)"
       d="m 569.06,597.749 h -2.626 v -4.76 h 2.626 z m 0.822,-6.4 h -4.265 a 0.821,0.821 0 0 0 -0.822,0.822 v 6.4 a 0.821,0.821 0 0 0 0.822,0.82 h 4.265 a 0.821,0.821 0 0 0 0.82,-0.82 v -6.4 a 0.821,0.821 0 0 0 -0.82,-0.822 z"
       data-name="Path 984"
       id="Path_984"
       inkscape:connector-curvature="0"
       style="fill:#ffffff" />
    <path
       transform="translate(-299.71,-336.802)"
       d="m 581.347,400.7 h 15.493 v 2.626 h -15.493 z m -0.82,4.267 h 17.133 a 0.82,0.82 0 0 0 0.82,-0.82 v -4.267 a 0.821,0.821 0 0 0 -0.82,-0.82 h -17.133 a 0.819,0.819 0 0 0 -0.819,0.82 v 4.267 a 0.818,0.818 0 0 0 0.819,0.82 z"
       data-name="Path 985"
       id="Path_985"
       inkscape:connector-curvature="0"
       style="fill:#ffffff" />
    <path
       transform="translate(-320.756,-293.377)"
       d="m 540.757,515.573 h -5.35 v -5.645 h 5.35 z m 0,7.286 h -5.35 v -5.643 h 5.35 z m -6.991,-7.286 h -5.35 v -5.645 h 5.35 z m 0,7.286 h -5.35 v -5.643 h 5.35 z m 7.811,-14.573 H 527.6 a 0.821,0.821 0 0 0 -0.822,0.822 v 14.571 a 0.821,0.821 0 0 0 0.822,0.82 h 13.981 a 0.82,0.82 0 0 0 0.82,-0.82 v -14.571 a 0.82,0.82 0 0 0 -0.82,-0.822 z"
       data-name="Path 986"
       id="Path_986"
       inkscape:connector-curvature="0"
       style="fill:#ffffff" />
    <path
       transform="translate(-377.122,-273.209)"
       d="m 402.137,563.278 h -15.492 v -2.626 h 15.492 z m 0.82,-4.268 h -17.133 a 0.822,0.822 0 0 0 -0.82,0.82 v 4.27 a 0.82,0.82 0 0 0 0.82,0.82 h 17.133 a 0.819,0.819 0 0 0 0.819,-0.82 v -4.27 a 0.82,0.82 0 0 0 -0.819,-0.82 z"
       data-name="Path 987"
       id="Path_987"
       inkscape:connector-curvature="0"
       style="fill:#ffffff" />
    <path
       transform="translate(-371.034,-295.113)"
       d="m 408.882,512.453 h -6.926 v -6.891 h 6.926 z m 0.82,-8.534 h -8.567 a 0.82,0.82 0 0 0 -0.819,0.82 v 8.532 a 0.82,0.82 0 0 0 0.819,0.822 h 8.565 a 0.82,0.82 0 0 0 0.819,-0.822 v -8.532 a 0.82,0.82 0 0 0 -0.819,-0.82 z"
       data-name="Path 988"
       id="Path_988"
       inkscape:connector-curvature="0"
       style="fill:#ffffff" />
    <path
       transform="translate(-337.235,-331.806)"
       d="m 486.967,420.26 h 5.646 v 5.35 h -5.646 z m 0,-6.991 h 5.646 v 5.35 h -5.646 z m 7.287,6.991 h 5.677 v 5.35 h -5.677 z m 0,-6.991 h 5.677 v 5.35 h -5.677 z m -8.107,13.981 h 14.606 a 0.819,0.819 0 0 0 0.819,-0.82 v -13.982 a 0.82,0.82 0 0 0 -0.819,-0.82 h -14.607 a 0.821,0.821 0 0 0 -0.82,0.82 v 13.982 a 0.82,0.82 0 0 0 0.82,0.82 z"
       data-name="Path 989"
       id="Path_989"
       inkscape:connector-curvature="0"
       style="fill:#ffffff" />
    <path
       transform="translate(-311.269,-324.636)"
       d="m 567.733,442.5 h -6.893 v -11.19 h 6.893 z m -8.532,0 h -6.928 v -11.19 h 6.927 v 11.19 z m 9.353,-12.833 h -17.1 a 0.819,0.819 0 0 0 -0.819,0.82 v 12.834 a 0.819,0.819 0 0 0 0.819,0.82 h 17.1 a 0.821,0.821 0 0 0 0.82,-0.82 v -12.838 a 0.821,0.821 0 0 0 -0.82,-0.82 z"
       data-name="Path 990"
       id="Path_990"
       inkscape:connector-curvature="0"
       style="fill:#ffffff" />
    <path
       transform="translate(-311.269,-327.073)"
       d="m 567.733,427.833 h -15.46 v -2.658 h 15.46 z m 0.82,-4.3 h -17.1 a 0.819,0.819 0 0 0 -0.819,0.82 v 4.3 a 0.819,0.819 0 0 0 0.819,0.822 h 17.1 a 0.821,0.821 0 0 0 0.82,-0.822 v -4.3 a 0.821,0.821 0 0 0 -0.82,-0.82 z"
       data-name="Path 991"
       id="Path_991"
       inkscape:connector-curvature="0"
       style="fill:#ffffff" />
    <path
       transform="translate(-314.117,-293.18)"
       d="m 545.113,517.38 h 5.645 v 5.349 h -5.645 z m 0,-6.959 h 5.645 v 5.318 h -5.645 z m 7.286,6.959 h 5.645 v 5.349 H 552.4 v -5.349 z m 0,-6.959 h 5.645 v 5.318 H 552.4 v -5.318 z m -8.107,13.949 h 14.574 a 0.821,0.821 0 0 0 0.82,-0.82 V 509.6 a 0.821,0.821 0 0 0 -0.82,-0.822 h -14.575 a 0.821,0.821 0 0 0 -0.82,0.822 v 13.95 a 0.821,0.821 0 0 0 0.82,0.82 z"
       data-name="Path 992"
       id="Path_992"
       inkscape:connector-curvature="0"
       style="fill:#ffffff" />
    <path
       transform="translate(-352.099,-292.648)"
       d="m 465.039,514.383 h -15.458 v -2.623 h 15.459 v 2.623 z m 1.641,0.823 v -4.266 a 0.821,0.821 0 0 0 -0.82,-0.822 h -17.1 a 0.822,0.822 0 0 0 -0.82,0.822 v 4.267 a 0.822,0.822 0 0 0 0.82,0.82 h 17.1 a 0.821,0.821 0 0 0 0.82,-0.82 z"
       data-name="Path 993"
       id="Path_993"
       inkscape:connector-curvature="0"
       style="fill:#ffffff" />
    <path
       transform="translate(-347.907,-280.51)"
       d="m 475.584,553.48 h -6.926 v -11.19 h 6.926 z m -8.567,0 h -6.891 v -11.19 h 6.891 z m 9.386,-12.833 H 459.3 a 0.82,0.82 0 0 0 -0.819,0.822 V 554.3 a 0.819,0.819 0 0 0 0.819,0.82 h 17.1 a 0.82,0.82 0 0 0 0.822,-0.82 v -12.831 a 0.821,0.821 0 0 0 -0.822,-0.822 z"
       data-name="Path 994"
       id="Path_994"
       inkscape:connector-curvature="0"
       style="fill:#ffffff" />
  </g>
</svg>
