<?xml version="1.0" encoding="UTF-8" standalone="no" ?>
<svg xmlns:dc="http://purl.org/dc/elements/1.1/" xmlns:cc="http://creativecommons.org/ns#" xmlns:rdf="http://www.w3.org/1999/02/22-rdf-syntax-ns#" xmlns:svg="http://www.w3.org/2000/svg" xmlns="http://www.w3.org/2000/svg" xmlns:sodipodi="http://sodipodi.sourceforge.net/DTD/sodipodi-0.dtd" xmlns:inkscape="http://www.inkscape.org/namespaces/inkscape" width="187.04001" height="232.00999" viewBox="0 0 187.04001 232.01" version="1.1" id="svg3723" sodipodi:docname="right-flag.svg" inkscape:version="0.92.4 (5da689c313, 2019-01-14)">

   <path id="Path_887" data-name="Path 887" d="M 179.51,88.22 12.66,45.2 v -4.84 h 1.84 a 2.748,2.748 0 0 0 2.75,-2.75 V 25.8 A 2.748,2.748 0 0 0 14.5,23.05 V 13.19 A 3.8,3.8 0 0 0 13.93,11.2 L 8.09,1.78 A 3.766,3.766 0 0 0 4.89,0 H 0 v 232.01 h 12.66 v -48.17 l 161.82,41.72 a 10.045,10.045 0 0 0 12.56,-9.73 V 97.95 a 10.034,10.034 0 0 0 -7.53,-9.73 z" inkscape:connector-curvature="0" style="fill:#ffd166" />
</svg>